SplineFontDB: 3.0
FontName: Caudex-BoldItalic
FullName: Caudex Bold Italic
FamilyName: Caudex
Weight: Bold
Copyright: Copyright (c) The Caudex Contributors (https://github.com/nidud/caudex)
Version: 1.08
ItalicAngle: -13
UnderlinePosition: -100
UnderlineWidth: 30
Ascent: 1638
Descent: 410
LayerCount: 2
Layer: 0 1 "Back"  1
Layer: 1 1 "Fore"  0
NeedsXUIDChange: 1
XUID: [1021 997 1545580258 12644143]
FSType: 0
OS2Version: 0
OS2_WeightWidthSlopeOnly: 0
OS2_UseTypoMetrics: 1
CreationTime: 936868149
ModificationTime: 1465178328
PfmFamily: 17
TTFWeight: 700
TTFWidth: 5
LineGap: 0
VLineGap: 0
Panose: 2 4 8 2 5 5 5 10 3 4
OS2TypoAscent: 2034
OS2TypoAOffset: 0
OS2TypoDescent: -606
OS2TypoDOffset: 0
OS2TypoLinegap: 0
OS2WinAscent: 2034
OS2WinAOffset: 0
OS2WinDescent: 606
OS2WinDOffset: 0
HheadAscent: 2034
HheadAOffset: 0
HheadDescent: -606
HheadDOffset: 0
OS2SubXSize: 1285
OS2SubYSize: 1230
OS2SubXOff: 0
OS2SubYOff: 0
OS2SupXSize: 655
OS2SupYSize: 860
OS2SupXOff: 0
OS2SupYOff: 550
OS2StrikeYSize: 100
OS2StrikeYPos: 530
OS2FamilyClass: 260
OS2Vendor: 'PfEd'
Lookup: 258 0 0 "'kern' Horizontal Kerning in Latin lookup 0"  {"'kern' Horizontal Kerning in Latin lookup 0 subtable" [307,0,0] } ['kern' ('latn' <'dflt' > ) ]
MarkAttachClasses: 1
DEI: 91125
KernClass2: 18 19 "'kern' Horizontal Kerning in Latin lookup 0 subtable"
 148 A Aacute Agrave Acircumflex Adieresis Atilde Abreve Aring Aringacute Amacron Aogonek uni1EA0 uni1EA2 uni1EA4 uni1EA6 uni1EA8 uni1EAA uni1EAC uni1EAE
 17 F uni03DC uni1E1E
 24 L Lacute uni1E36 uniA748
 45 P Rho uni1E54 uni1E56 uniA750 uniA752 uniA754
 31 R Racute Rcaron uni1E58 uni1E5A
 24 T Tcaron uni1E6A uni1E6C
 71 V W Wcircumflex uni1E7E Wgrave Wacute Wdieresis uni1E86 uni1E88 uniA760
 70 Y Ycircumflex Ydieresis uni0232 Upsilondieresis Ygrave uni1EF4 uni1EF6
 9 r uni1E5B
 87 v w wcircumflex uni1D20 uni1D21 uni1E7F wgrave wacute wdieresis uni1E87 uni1E89 uniA761
 28 y ycircumflex uni1E8F ygrave
 12 quotedblbase
 9 quoteleft
 10 quoteright
 12 quotedblleft

StartChar: .notdef
Encoding: 65536 -1 0
Width: 772
Flags: W
LayerCount: 2
Fore
SplineSet
324 1404 m 1,0,-1
 1096 1404 l 1,1,-1
 772 0 l 1,2,-1
 0 0 l 1,3,-1
 324 1404 l 1,0,-1
328 244 m 2,5,-1
 312 175 l 2,6,7
 310 167 310 167 310 159 c 0,8,9
 310 156 310 156 310 154 c 0,10,11
 310 102 310 102 388 102 c 256,12,13
 480 102 480 102 496 175 c 2,14,-1
 512 244 l 2,15,16
 515 255 515 255 515 265 c 0,17,18
 515 317 515 317 437 317 c 256,19,4
 345 317 345 317 328 244 c 2,5,-1
515 504 m 2,20,-1
 553 653 l 2,21,22
 568 713 568 713 592 744 c 0,23,24
 615 773 615 773 673 805 c 0,25,26
 697 819 697 819 715 829 c 0,27,28
 879 917 879 917 912 1059 c 0,29,30
 920 1093 920 1093 920 1123 c 0,31,32
 920 1192 920 1192 879 1237 c 0,33,34
 818 1302 818 1302 684 1302 c 0,35,36
 554 1302 554 1302 464 1235 c 1,37,38
 374 1169 374 1169 347 1054 c 0,39,40
 345 1045 345 1045 345 1038 c 0,41,42
 345 1024 345 1024 353 1016 c 0,43,44
 364 1005 364 1005 394 1005 c 0,45,46
 420 1005 420 1005 441 1016 c 0,47,48
 458 1026 458 1026 464 1046 c 0,49,50
 500 1162 500 1162 542 1204 c 1,51,52
 583 1248 583 1248 651 1248 c 0,53,54
 728 1248 728 1248 757 1201 c 1,55,56
 772 1175 772 1175 772 1134 c 0,57,58
 772 1101 772 1101 762 1059 c 0,59,60
 742 971 742 971 688 908 c 1,61,62
 631 844 631 844 509 771 c 1,63,-1
 448 505 l 2,64,65
 441 475 441 475 441 452 c 0,66,67
 441 443 441 443 442 436 c 0,68,69
 444 411 444 411 459 411 c 0,70,71
 476 411 476 411 490 433 c 256,72,73
 504 455 504 455 515 504 c 2,20,-1
EndSplineSet
Validated: 1
EndChar

StartChar: exclam
Encoding: 33 33 4
Width: 550
Flags: W
LayerCount: 2
Fore
SplineSet
340 250 m 0,0,1
 454 250 454 250 454 174 c 0,2,3
 454 160 454 160 450 143 c 2,4,-1
 431 61 l 2,5,6
 407 -45 407 -45 272 -45 c 0,7,8
 158 -45 158 -45 157 31 c 0,9,10
 157 45 157 45 161 61 c 2,11,-1
 180 143 l 2,12,13
 205 250 205 250 340 250 c 0,0,1
430 374 m 1,14,15
 420 331 420 331 370 331 c 2,16,-1
 349 331 l 2,17,18
 309 331 309 331 309 360 c 0,19,20
 309 367 309 367 310 374 c 2,21,-1
 461 1329 l 1,22,-1
 463 1340 l 2,23,24
 482 1424 482 1424 581 1424 c 2,25,-1
 644 1424 l 2,26,27
 726 1424 726 1424 726 1366 c 0,28,29
 726 1353 726 1353 723 1339 c 2,30,-1
 721 1329 l 1,31,-1
 430 374 l 1,14,15
EndSplineSet
Validated: 1
EndChar

StartChar: numbersign
Encoding: 35 35 5
Width: 1100
Flags: W
LayerCount: 2
Fore
SplineSet
254 22 m 2,0,-1
 392 362 l 1,1,-1
 142 362 l 2,2,3
 110 362 110 362 109 382 c 0,4,5
 109 385 109 385 110 390 c 2,6,-1
 111 394 l 1,7,-1
 146 480 l 1,8,9
 158 507 158 507 193 507 c 2,10,-1
 450 507 l 1,11,-1
 545 742 l 1,12,-1
 295 742 l 2,13,14
 257 742 257 742 264 770 c 2,15,-1
 265 774 l 1,16,-1
 300 860 l 1,17,18
 312 887 312 887 347 887 c 2,19,-1
 604 887 l 1,20,-1
 744 1233 l 2,21,22
 758 1267 758 1267 790 1267 c 2,23,-1
 875 1267 l 2,24,25
 908 1267 908 1267 901 1238 c 0,26,27
 900 1233 900 1233 897 1227 c 2,28,-1
 760 887 l 1,29,-1
 896 887 l 1,30,-1
 1036 1233 l 2,31,32
 1050 1267 1050 1267 1083 1267 c 2,33,-1
 1167 1267 l 2,34,35
 1201 1267 1201 1267 1194 1238 c 0,36,37
 1193 1233 1193 1233 1190 1227 c 2,38,-1
 1053 887 l 1,39,-1
 1302 887 l 2,40,41
 1336 887 1336 887 1336 868 c 0,42,43
 1336 865 1336 865 1335 862 c 0,44,45
 1334 858 1334 858 1332 854 c 2,46,-1
 1298 770 l 1,47,48
 1289 742 1289 742 1250 742 c 2,49,-1
 994 742 l 1,50,-1
 899 507 l 1,51,-1
 1148 507 l 2,52,53
 1187 507 1187 507 1181 482 c 0,54,55
 1180 478 1180 478 1178 474 c 2,56,-1
 1144 390 l 1,57,58
 1135 362 1135 362 1097 362 c 2,59,-1
 841 362 l 1,60,-1
 701 16 l 2,61,62
 687 -19 687 -19 654 -19 c 2,63,-1
 570 -19 l 2,64,65
 536 -19 536 -19 543 12 c 0,66,67
 544 17 544 17 546 22 c 2,68,-1
 684 362 l 1,69,-1
 548 362 l 1,70,-1
 408 16 l 2,71,72
 394 -19 394 -19 362 -19 c 2,73,-1
 277 -19 l 2,74,75
 244 -19 244 -19 251 12 c 0,76,77
 252 16 252 16 254 22 c 2,0,-1
701 742 m 1,78,-1
 606 507 l 1,79,-1
 742 507 l 1,80,-1
 837 742 l 1,81,-1
 701 742 l 1,78,-1
EndSplineSet
Validated: 1
EndChar

StartChar: dollar
Encoding: 36 36 6
Width: 1100
Flags: W
LayerCount: 2
Fore
SplineSet
947 388 m 2,0,-1
 949 399 l 1,1,2
 954 425 954 425 954 448 c 0,3,4
 954 516 954 516 908 557 c 0,5,6
 879 582 879 582 807 604 c 0,7,8
 792 609 792 609 775 612 c 1,9,-1
 654 87 l 1,10,11
 687 96 687 96 728 114 c 0,12,13
 805 148 805 148 864 218 c 0,14,15
 924 287 924 287 947 388 c 2,0,-1
973 1467 m 1,16,17
 1179 1451 1179 1451 1316 1347 c 1,18,-1
 1240 1126 l 2,19,20
 1228 1090 1228 1090 1188 1090 c 2,21,-1
 1183 1090 l 1,22,23
 1153 1092 1153 1092 1144 1131 c 0,24,25
 1123 1217 1123 1217 1061 1276 c 0,26,27
 1009 1325 1009 1325 942 1336 c 1,28,-1
 827 837 l 1,29,30
 858 832 858 832 895 826 c 0,31,32
 957 816 957 816 1034 790 c 0,33,34
 1112 764 1112 764 1146 712 c 0,35,36
 1180 662 1180 662 1193 602 c 0,37,38
 1198 578 1198 578 1198 550 c 0,39,40
 1198 509 1198 509 1187 459 c 0,41,42
 1136 237 1136 237 921 89 c 0,43,44
 809 12 809 12 698 -21 c 0,45,46
 658 -33 658 -33 625 -41 c 1,47,-1
 601 -143 l 2,48,49
 591 -186 591 -186 542 -186 c 2,50,-1
 496 -186 l 2,51,52
 457 -186 457 -186 457 -157 c 0,53,54
 457 -151 457 -151 459 -143 c 2,55,-1
 479 -58 l 1,56,57
 452 -59 452 -59 438 -59 c 0,58,59
 295 -59 295 -59 162 -15 c 1,60,-1
 127 258 l 2,61,62
 127 260 127 260 126 263 c 0,63,64
 126 269 126 269 128 278 c 0,65,66
 131 289 131 289 147 308 c 128,-1,67
 163 327 163 327 196 327 c 1,68,69
 221 320 221 320 231 285 c 0,70,71
 261 152 261 152 334 112 c 0,72,73
 402 75 402 75 509 73 c 1,74,-1
 639 636 l 1,75,76
 633 638 633 638 627 638 c 0,77,78
 518 650 518 650 430 698 c 0,79,80
 340 746 340 746 314 832 c 0,81,82
 300 878 300 878 300 927 c 0,83,84
 300 971 300 971 311 1018 c 0,85,86
 356 1213 356 1213 526 1341 c 0,87,88
 663 1444 663 1444 830 1464 c 1,89,-1
 850 1551 l 2,90,91
 860 1594 860 1594 907 1594 c 2,92,-1
 953 1594 l 2,93,94
 994 1594 994 1594 994 1564 c 0,95,96
 994 1558 994 1558 992 1551 c 2,97,-1
 973 1467 l 1,16,17
799 1328 m 1,98,99
 776 1322 776 1322 753 1313 c 0,100,101
 693 1287 693 1287 661 1261 c 0,102,103
 631 1234 631 1234 606 1200 c 128,-1,104
 581 1166 581 1166 565 1130 c 128,-1,105
 549 1094 549 1094 542 1062 c 0,106,107
 537 1041 537 1041 537 1020 c 0,108,109
 537 1009 537 1009 539 999 c 1,110,111
 544 938 544 938 577 909 c 0,112,113
 611 880 611 880 641 872 c 0,114,115
 664 865 664 865 691 860 c 1,116,-1
 799 1328 l 1,98,99
EndSplineSet
Validated: 1
EndChar

StartChar: percent
Encoding: 37 37 7
Width: 1300
Flags: W
LayerCount: 2
Fore
SplineSet
154 -52 m 1,0,-1
 1450 1440 l 1,1,-1
 1597 1440 l 1,2,-1
 302 -52 l 1,3,-1
 154 -52 l 1,0,-1
583 1383 m 1,4,5
 506 1382 506 1382 477 1316.5 c 128,-1,6
 448 1251 448 1251 437 1204 c 2,7,-1
 383 969 l 2,8,9
 372 923 372 923 372 859 c 0,10,11
 372 790 372 790 435 790 c 256,12,13
 498 790 498 790 537 841.5 c 128,-1,14
 576 893 576 893 594 969 c 2,15,-1
 648 1204 l 2,16,17
 658 1247 658 1247 658 1282 c 0,18,19
 658 1309 658 1309 648.5 1346 c 128,-1,20
 639 1383 639 1383 584 1383 c 2,21,-1
 583 1383 l 1,4,5
597 1434 m 0,22,23
 702 1434 702 1434 736 1380 c 128,-1,24
 770 1326 770 1326 770 1272 c 0,25,26
 770 1245 770 1245 764 1215 c 2,27,-1
 704 958 l 2,28,29
 683 868 683 868 605 803.5 c 128,-1,30
 527 739 527 739 424 739 c 128,-1,31
 321 739 321 739 290.5 792.5 c 128,-1,32
 260 846 260 846 260 897 c 0,33,34
 260 926 260 926 267 958 c 2,35,-1
 327 1215 l 2,36,37
 348 1304 348 1304 419.5 1369 c 128,-1,38
 491 1434 491 1434 597 1434 c 0,22,23
1208 623 m 1,39,40
 1131 622 1131 622 1101.5 556.5 c 128,-1,41
 1072 491 1072 491 1062 444 c 2,42,-1
 1007 209 l 2,43,44
 997 167 997 167 997 110 c 0,45,46
 997 105 997 105 997 99 c 0,47,48
 997 30 997 30 1060 30 c 256,49,50
 1123 30 1123 30 1162 81.5 c 128,-1,51
 1201 133 1201 133 1218 209 c 2,52,-1
 1273 444 l 2,53,54
 1282 483 1282 483 1282 516 c 0,55,56
 1282 519 1282 519 1282 522 c 0,57,58
 1282 549 1282 549 1273 586 c 128,-1,59
 1264 623 1264 623 1209 623 c 2,60,-1
 1208 623 l 1,39,40
1222 674 m 0,61,62
 1327 674 1327 674 1361 620 c 128,-1,63
 1395 566 1395 566 1395 512 c 0,64,65
 1395 485 1395 485 1388 455 c 2,66,-1
 1329 198 l 2,67,68
 1308 108 1308 108 1229.5 43.5 c 128,-1,69
 1151 -21 1151 -21 1048 -21 c 128,-1,70
 945 -21 945 -21 914.5 32.5 c 128,-1,71
 884 86 884 86 884 137 c 0,72,73
 884 166 884 166 892 198 c 2,74,-1
 951 455 l 2,75,76
 972 544 972 544 1044 609 c 128,-1,77
 1116 674 1116 674 1222 674 c 0,61,62
EndSplineSet
Validated: 1
EndChar

StartChar: ampersand
Encoding: 38 38 8
Width: 1292
Flags: W
LayerCount: 2
Fore
SplineSet
1001 303 m 1,0,-1
 1080 165 l 1,1,2
 1112 106 1112 106 1202 58 c 1,3,4
 1233 43 1233 43 1241 24 c 1,5,6
 1241 13 1241 13 1239 4 c 1,7,8
 1236 0 1236 0 1235 -4 c 1,9,10
 1213 -22 1213 -22 1192 -22 c 2,11,-1
 948 -22 l 2,12,13
 898 -22 898 -22 866 57 c 1,14,15
 845 107 845 107 835 122 c 1,16,17
 754 44 754 44 647 -4 c 0,18,19
 538 -52 538 -52 416 -52 c 0,20,21
 268 -52 268 -52 200 37 c 1,22,23
 160 91 160 91 159 165 c 0,24,25
 159 200 159 200 168 240 c 0,26,27
 171 253 171 253 175 265 c 0,28,29
 210 389 210 389 303 488 c 1,30,31
 390 583 390 583 552 676 c 1,32,33
 516 746 516 746 500 829 c 0,34,35
 494 860 494 860 494 893 c 0,36,37
 494 936 494 936 505 982 c 0,38,39
 508 996 508 996 512 1010 c 0,40,41
 549 1148 549 1148 657 1235 c 0,42,43
 764 1322 764 1322 905 1322 c 0,44,45
 1043 1322 1043 1322 1102 1251 c 0,46,47
 1139 1206 1139 1206 1139 1141 c 0,48,49
 1139 1112 1139 1112 1131 1079 c 2,50,-1
 1127 1062 l 1,51,52
 1094 951 1094 951 1010 865 c 0,53,54
 922 776 922 776 786 701 c 1,55,-1
 947 398 l 1,56,-1
 1080 571 l 1,57,58
 1089 585 1089 585 1094 599 c 0,59,60
 1096 604 1096 604 1097 608 c 0,61,62
 1099 616 1099 616 1098 621 c 0,63,64
 1097 631 1097 631 1092.5 639 c 128,-1,65
 1088 647 1088 647 1087 660 c 0,66,67
 1086 666 1086 666 1088 671 c 2,68,-1
 1089 674 l 2,69,70
 1090 677 1090 677 1094 686 c 0,71,72
 1114 720 1114 720 1147 720 c 2,73,-1
 1405 720 l 2,74,75
 1428 720 1428 720 1437 706 c 0,76,77
 1440 702 1440 702 1440 696 c 0,78,79
 1440 693 1440 693 1439 690 c 2,80,-1
 1439 688 l 2,81,82
 1438 683 1438 683 1434 675 c 1,83,84
 1420 656 1420 656 1381 639 c 0,85,86
 1363 632 1363 632 1344 624 c 128,-1,87
 1325 616 1325 616 1308 606 c 0,88,89
 1228 561 1228 561 1159 485 c 128,-1,90
 1090 409 1090 409 1001 303 c 1,0,-1
741 788 m 1,91,92
 814 826 814 826 868 890 c 1,93,94
 921 953 921 953 951 1052 c 1,95,-1
 954 1066 l 2,96,97
 962 1101 962 1101 962 1130 c 0,98,99
 962 1155 962 1155 957 1176 c 0,100,101
 945 1216 945 1216 874 1216 c 0,102,103
 819 1216 819 1216 779 1180 c 0,104,105
 733 1137 733 1137 712 1061 c 0,106,107
 708 1050 708 1050 706 1041 c 0,108,109
 696 998 696 998 696 956 c 0,110,111
 696 868 696 868 741 788 c 1,91,92
786 214 m 1,112,-1
 592 584 l 1,113,114
 445 492 445 492 401 336 c 0,115,116
 398 326 398 326 395 316 c 0,117,118
 387 280 387 280 387 247 c 0,119,120
 387 194 387 194 409 152 c 0,121,122
 447 82 447 82 528 82 c 0,123,124
 600 82 600 82 667.5 122.5 c 128,-1,125
 735 163 735 163 786 214 c 1,112,-1
EndSplineSet
Validated: 1
EndChar

StartChar: quotesingle
Encoding: 39 39 9
Width: 426
Flags: W
LayerCount: 2
Fore
SplineSet
495 968 m 1,0,1
 488 937 488 937 444 937 c 2,2,-1
 429 937 l 2,3,4
 392 937 392 937 392 960 c 0,5,6
 392 964 392 964 393 968 c 1,7,-1
 443 1408 l 1,8,-1
 444 1413 l 2,9,10
 456 1463 456 1463 535 1463 c 2,11,-1
 582 1463 l 2,12,13
 651 1463 651 1463 651 1426 c 0,14,15
 651 1421 651 1421 649 1414 c 2,16,-1
 648 1408 l 1,17,-1
 495 968 l 1,0,1
EndSplineSet
Validated: 1
EndChar

StartChar: parenleft
Encoding: 40 40 10
Width: 646
Flags: W
LayerCount: 2
Fore
SplineSet
185 568 m 0,0,1
 240 805 240 805 396 1056.5 c 128,-1,2
 552 1308 552 1308 908 1483 c 0,3,4
 923 1491 923 1491 936 1491 c 0,5,6
 945 1491 945 1491 956 1485 c 1,7,8
 960 1480 960 1480 960 1471 c 0,9,10
 960 1458 960 1458 957 1442 c 2,11,-1
 948 1404 l 1,12,13
 666 1201 666 1201 561 1025 c 128,-1,14
 456 849 456 849 391 568 c 0,15,16
 344 366 344 366 344 219 c 0,17,18
 344 216 344 216 344 213 c 0,19,20
 344 158 344 158 359 46.5 c 128,-1,21
 374 -65 374 -65 562 -268 c 1,22,-1
 553 -306 l 2,23,24
 546 -338 546 -338 532 -349 c 1,25,26
 519 -355 519 -355 510 -355 c 0,27,28
 497 -355 497 -355 486 -347 c 0,29,30
 210 -172 210 -172 181.5 6.5 c 128,-1,31
 153 185 153 185 153 288 c 0,32,33
 153 430 153 430 185 568 c 0,0,1
EndSplineSet
Validated: 1
EndChar

StartChar: comma
Encoding: 44 44 11
Width: 480
Flags: W
LayerCount: 2
Fore
SplineSet
193 -241 m 1,0,1
 152 -269 152 -269 117 -269 c 0,2,3
 92 -269 92 -269 71 -254 c 1,4,5
 64 -243 64 -243 64 -233 c 0,6,7
 64 -227 64 -227 65 -223 c 0,8,9
 68 -211 68 -211 81 -199 c 0,10,11
 109 -175 109 -175 139 -159 c 0,12,13
 235 -107 235 -107 262 -45 c 1,14,15
 177 -45 177 -45 176 25 c 0,16,17
 176 41 176 41 181 61 c 2,18,-1
 200 143 l 2,19,20
 225 250 225 250 360 250 c 256,21,22
 474 250 474 250 474 174 c 0,23,24
 474 160 474 160 470 143 c 2,25,-1
 451 60 l 1,26,27
 379 -136 379 -136 193 -241 c 1,0,1
EndSplineSet
Validated: 1
EndChar

StartChar: hyphen
Encoding: 45 45 12
Width: 1100
Flags: HW
LayerCount: 2
Fore
SplineSet
349 416 m 1,0,-1
 386 575 l 1,1,-1
 1054 575 l 1,2,-1
 1017 416 l 1,3,-1
 349 416 l 1,0,-1
EndSplineSet
EndChar

StartChar: period
Encoding: 46 46 13
Width: 480
Flags: W
LayerCount: 2
Fore
SplineSet
340 250 m 256,0,1
 454 250 454 250 454 174 c 0,2,3
 454 160 454 160 450 143 c 2,4,-1
 431 61 l 2,5,6
 407 -45 407 -45 272 -45 c 256,7,8
 158 -45 158 -45 157 31 c 0,9,10
 157 45 157 45 161 61 c 2,11,-1
 180 143 l 2,12,13
 205 250 205 250 340 250 c 256,0,1
EndSplineSet
Validated: 1
EndChar

StartChar: slash
Encoding: 47 47 14
Width: 1100
Flags: W
LayerCount: 2
Fore
SplineSet
37 -90 m 1,0,-1
 1269 1494 l 1,1,-1
 1463 1494 l 1,2,-1
 233 -90 l 1,3,-1
 37 -90 l 1,0,-1
EndSplineSet
Validated: 1
EndChar

StartChar: zero
Encoding: 48 48 15
Width: 1100
Flags: W
LayerCount: 2
Fore
SplineSet
888 1354 m 1,0,1
 720 1351 720 1351 656 1209 c 128,-1,2
 592 1067 592 1067 569 966 c 2,3,-1
 451 454 l 2,4,5
 428 354 428 354 428 215 c 0,6,7
 428 212 428 212 428 139 c 128,-1,8
 428 66 428 66 564 66 c 256,9,10
 700 66 700 66 785.5 178 c 128,-1,11
 871 290 871 290 909 454 c 2,12,-1
 1027 966 l 2,13,14
 1049 1060 1049 1060 1049 1137 c 0,15,16
 1049 1194 1049 1194 1029 1274 c 128,-1,17
 1009 1354 1009 1354 890 1354 c 2,18,-1
 888 1354 l 1,0,1
916 1466 m 0,19,20
 1145 1466 1145 1466 1219.5 1347.5 c 128,-1,21
 1294 1229 1294 1229 1294 1112 c 0,22,23
 1294 1053 1294 1053 1279 989 c 2,24,-1
 1151 431 l 2,25,26
 1106 235 1106 235 934.5 95 c 128,-1,27
 763 -45 763 -45 541 -45 c 0,28,29
 318 -45 318 -45 250.5 71 c 128,-1,30
 183 187 183 187 183 301 c 0,31,32
 183 363 183 363 199 431 c 2,33,-1
 327 989 l 2,34,35
 372 1183 372 1183 529 1324.5 c 128,-1,36
 686 1466 686 1466 916 1466 c 0,19,20
EndSplineSet
Validated: 1
EndChar

StartChar: one
Encoding: 49 49 16
Width: 1100
Flags: W
LayerCount: 2
Fore
SplineSet
417 21 m 2,0,-1
 418 26 l 2,1,2
 426 59 426 59 479 76 c 0,3,4
 534 94 534 94 546 146 c 2,5,-1
 796 1232 l 1,6,-1
 592 1232 l 1,7,-1
 611 1311 l 1,8,-1
 1087 1496 l 1,9,-1
 776 146 l 2,10,11
 773 135 773 135 773 125 c 0,12,13
 773 89 773 89 810.5 75.5 c 128,-1,14
 848 62 848 62 848 33 c 0,15,16
 848 28 848 28 847 22 c 2,17,-1
 847 21 l 2,18,19
 838 -20 838 -20 792 -20 c 2,20,-1
 452 -20 l 2,21,22
 415 -20 415 -20 415 8 c 0,23,24
 415 14 415 14 417 21 c 2,0,-1
EndSplineSet
Validated: 1
EndChar

StartChar: two
Encoding: 50 50 17
Width: 1100
Flags: W
LayerCount: 2
Fore
SplineSet
147 -20 m 1,0,-1
 170 78 l 2,1,2
 191 171 191 171 264 242 c 0,3,4
 329 306 329 306 470 427 c 1,5,6
 551 490 551 490 631 562 c 128,-1,7
 711 634 711 634 803 719.5 c 128,-1,8
 895 805 895 805 947.5 889.5 c 128,-1,9
 1000 974 1000 974 1013 1032 c 0,10,11
 1020 1061 1020 1061 1020 1086 c 128,-1,12
 1020 1111 1020 1111 1014 1133 c 0,13,14
 986 1225 986 1225 902 1261 c 0,15,16
 855 1281 855 1281 804 1281 c 0,17,18
 752 1281 752 1281 702 1270 c 1,19,20
 587 1242 587 1242 492 1138 c 0,21,22
 461 1104 461 1104 436 1060 c 1,23,-1
 388 1060 l 1,24,-1
 423 1213 l 1,25,26
 441 1244 441 1244 457 1265 c 1,27,28
 519 1337 519 1337 610 1393 c 128,-1,29
 701 1449 701 1449 816 1466 c 0,30,31
 861 1472 861 1472 905 1472 c 0,32,33
 1046 1472 1046 1472 1155 1401 c 0,34,35
 1266 1329 1266 1329 1266 1188 c 0,36,37
 1266 1143 1266 1143 1255 1090 c 1,38,-1
 1254 1086 l 2,39,40
 1221 945 1221 945 1117 820 c 128,-1,41
 1013 695 1013 695 885.5 582.5 c 128,-1,42
 758 470 758 470 627.5 353 c 128,-1,43
 497 236 497 236 442 170 c 1,44,-1
 773 170 l 2,45,46
 897 170 897 170 1056 223 c 1,47,-1
 1014 32 l 1,48,49
 931 -13 931 -13 860 -16.5 c 128,-1,50
 789 -20 789 -20 731 -20 c 2,51,-1
 147 -20 l 1,0,-1
EndSplineSet
Validated: 1
EndChar

StartChar: three
Encoding: 51 51 18
Width: 1100
Flags: W
LayerCount: 2
Fore
SplineSet
407 -51 m 0,0,1
 269 -51 269 -51 180 34 c 1,2,-1
 219 229 l 1,3,-1
 266 229 l 1,4,5
 305 122 305 122 428 92 c 0,6,7
 473 81 473 81 533 81 c 0,8,9
 591 81 591 81 661 114 c 0,10,11
 768 164 768 164 825 258 c 0,12,13
 856 311 856 311 867 360 c 0,14,15
 875 395 875 395 875 428 c 0,16,17
 875 440 875 440 874 451 c 0,18,19
 866 548 866 548 788 618.5 c 128,-1,20
 710 689 710 689 526 692 c 1,21,-1
 536 753 l 1,22,23
 626 780 626 780 719.5 817.5 c 128,-1,24
 813 855 813 855 869 923 c 128,-1,25
 925 991 925 991 939 1053 c 0,26,27
 943 1071 943 1071 945 1090 c 0,28,29
 945 1096 945 1096 945 1103 c 0,30,31
 945 1173 945 1173 902.5 1231 c 128,-1,32
 860 1289 860 1289 771 1289 c 0,33,34
 763 1289 763 1289 755 1288 c 0,35,36
 653 1282 653 1282 569 1203 c 0,37,38
 530 1166 530 1166 501 1108 c 1,39,-1
 452 1108 l 1,40,-1
 494 1289 l 1,41,42
 610 1391 610 1391 713.5 1428.5 c 128,-1,43
 817 1466 817 1466 906 1466 c 1,44,45
 1151 1463 1151 1463 1188 1268 c 0,46,47
 1192 1243 1192 1243 1192 1219 c 0,48,49
 1192 1188 1192 1188 1185 1157 c 0,50,51
 1154 1022 1154 1022 984 890 c 0,52,53
 949 862 949 862 931 851 c 1,54,55
 1039 791 1039 791 1070 702 c 128,-1,56
 1101 613 1101 613 1101 547 c 0,57,58
 1101 503 1101 503 1091 458 c 0,59,60
 1088 443 1088 443 1083 427 c 0,61,62
 1012 203 1012 203 764 50 c 0,63,64
 631 -31 631 -31 460 -48 c 0,65,66
 432 -51 432 -51 407 -51 c 0,0,1
EndSplineSet
Validated: 1
EndChar

StartChar: four
Encoding: 52 52 19
Width: 1100
Flags: W
LayerCount: 2
Fore
SplineSet
684 146 m 2,0,-1
 741 395 l 1,1,-1
 159 395 l 1,2,-1
 191 534 l 1,3,-1
 989 1424 l 1,4,-1
 1209 1424 l 1,5,-1
 1013 576 l 1,6,-1
 1215 576 l 1,7,-1
 1173 395 l 1,8,-1
 971 395 l 1,9,-1
 914 146 l 2,10,11
 912 139 912 139 912 132 c 0,12,13
 912 94 912 94 970 78.5 c 128,-1,14
 1028 63 1028 63 1028 29 c 0,15,16
 1028 25 1028 25 1027 21 c 1,17,-1
 1026 17 l 2,18,19
 1017 -20 1017 -20 972 -20 c 2,20,-1
 547 -20 l 1,21,22
 501 -18 501 -18 510 18 c 0,23,24
 510 20 510 20 512 22 c 0,25,26
 523 61 523 61 597.5 78.5 c 128,-1,27
 672 96 672 96 684 146 c 2,0,-1
783 576 m 1,28,-1
 919 1165 l 1,29,-1
 395 576 l 1,30,-1
 783 576 l 1,28,-1
EndSplineSet
Validated: 1
EndChar

StartChar: five
Encoding: 53 53 20
Width: 1100
Flags: W
LayerCount: 2
Fore
SplineSet
904 450 m 1,0,-1
 910 478 l 1,1,2
 912 484 912 484 914 489 c 0,3,4
 917 503 917 503 917 520 c 0,5,6
 917 548 917 548 908 585 c 1,7,8
 893 674 893 674 811 724 c 1,9,10
 747 756 747 756 682 756 c 0,11,12
 579 756 579 756 471 676 c 1,13,14
 424 633 424 633 364 633 c 0,15,16
 351 633 351 633 341 635 c 1,17,18
 329 635 329 635 303.5 637 c 128,-1,19
 278 639 278 639 289 687 c 2,20,-1
 447 1371 l 2,21,22
 455 1406 455 1406 470 1415 c 128,-1,23
 485 1424 485 1424 530 1424 c 2,24,-1
 1024 1424 l 2,25,26
 1060 1424 1060 1424 1137.5 1420.5 c 128,-1,27
 1215 1417 1215 1417 1275 1373 c 1,28,-1
 1225 1158 l 1,29,30
 1097 1210 1097 1210 974 1210 c 2,31,-1
 555 1210 l 1,32,-1
 461 803 l 1,33,34
 524 837 524 837 617 870 c 1,35,36
 713 906 713 906 799 906 c 0,37,38
 845 906 845 906 890 895 c 0,39,40
 1013 866 1013 866 1083 782 c 1,41,42
 1162 698 1162 698 1162 571 c 0,43,44
 1162 512 1162 512 1148 450 c 0,45,46
 1142 423 1142 423 1133 394 c 1,47,48
 1066 217 1066 217 915 99 c 0,49,50
 738 -40 738 -40 471 -44 c 1,51,52
 260 -44 260 -44 122 61 c 1,53,-1
 172 279 l 1,54,-1
 217 279 l 1,55,56
 248 184 248 184 334 143 c 1,57,58
 417 101 417 101 509 101 c 2,59,-1
 521 101 l 2,60,61
 532 101 532 101 544 102 c 0,62,63
 650 111 650 111 746 196 c 1,64,65
 865 293 865 293 904 450 c 1,0,-1
EndSplineSet
Validated: 1
EndChar

StartChar: six
Encoding: 54 54 21
Width: 1100
Flags: W
LayerCount: 2
Fore
SplineSet
543 756.5 m 128,-1,1
 432 632 432 632 392 459 c 0,2,3
 375 386 375 386 375 324 c 0,4,5
 375 239 375 239 419 151 c 128,-1,6
 463 63 463 63 566 63 c 2,7,-1
 577 63 l 1,8,9
 688 68 688 68 799.5 192.5 c 128,-1,10
 911 317 911 317 951 491 c 256,11,12
 968 564 968 564 968 626 c 0,13,14
 968 711 968 711 924.5 799 c 128,-1,15
 881 887 881 887 778 887 c 2,16,-1
 767 887 l 1,17,0
 654 881 654 881 543 756.5 c 128,-1,1
780 991 m 0,18,19
 814 991 814 991 848 987 c 0,20,21
 1018 968 1018 968 1108 863 c 0,22,23
 1205 750 1205 750 1206 601 c 0,24,25
 1206 545 1206 545 1192 484 c 1,26,-1
 1191 481 l 2,27,28
 1140 261 1140 261 959 110 c 0,29,30
 773 -46 773 -46 568 -46 c 2,31,-1
 553 -46 l 1,32,33
 333 -40 333 -40 247 85 c 128,-1,34
 161 210 161 210 161 339 c 0,35,36
 161 399 161 399 177 466 c 2,37,-1
 179 475 l 1,38,39
 257 800 257 800 451 1031 c 128,-1,40
 645 1262 645 1262 937 1435 c 0,41,42
 969 1454 969 1454 988 1462.5 c 128,-1,43
 1007 1471 1007 1471 1046 1471 c 2,44,-1
 1114 1470 l 2,45,46
 1177 1470 1177 1470 1178 1451 c 0,47,48
 1178 1428 1178 1428 1143 1412 c 1,49,50
 951 1297 951 1297 818.5 1185.5 c 128,-1,51
 686 1074 686 1074 608 972 c 1,52,53
 646 991 646 991 780 991 c 0,18,19
EndSplineSet
Validated: 1
EndChar

StartChar: seven
Encoding: 55 55 22
Width: 1100
Flags: W
LayerCount: 2
Fore
SplineSet
466 146 m 1,0,1
 412 74 412 74 369 -20 c 1,2,-1
 157 -19 l 1,3,4
 160 15 160 15 162 25 c 0,5,6
 178 82 178 82 209 129 c 0,7,8
 252 193 252 193 285 239 c 0,9,10
 392 384 392 384 704 766 c 0,11,12
 940 1055 940 1055 1067 1210 c 1,13,-1
 708 1210 l 2,14,15
 583 1210 583 1210 433 1157 c 1,16,-1
 483 1373 l 1,17,18
 561 1415 561 1415 635 1420 c 0,19,20
 701 1424 701 1424 758 1424 c 2,21,-1
 1252 1424 l 2,22,23
 1298 1424 1298 1424 1308 1415 c 0,24,25
 1313 1411 1313 1411 1313 1400 c 0,26,27
 1313 1385 1313 1385 1309 1364 c 2,28,-1
 1308 1358 l 1,29,30
 1290 1285 1290 1285 1244 1221 c 0,31,32
 1048 952 1048 952 854 683.5 c 128,-1,33
 660 415 660 415 466 146 c 1,0,1
EndSplineSet
Validated: 1
EndChar

StartChar: eight
Encoding: 56 56 23
Width: 1100
Flags: W
LayerCount: 2
Fore
SplineSet
919 678.5 m 128,-1,1
 868 736 868 736 754 736 c 0,2,3
 639 736 639 736 542 661 c 0,4,5
 441 584 441 584 400 406 c 2,6,-1
 399 402 l 1,7,8
 382 325 382 325 382 267 c 0,9,10
 382 189 382 189 424 131.5 c 128,-1,11
 466 74 466 74 601 74 c 0,12,13
 735 74 735 74 822.5 146 c 128,-1,14
 910 218 910 218 954 405 c 0,15,16
 970 475 970 475 970 530 c 0,17,18
 970 533 970 533 970 536 c 0,19,0
 970 621 970 621 919 678.5 c 128,-1,1
382 1102 m 1,20,21
 426 1287 426 1287 580 1377.5 c 128,-1,22
 734 1468 734 1468 954 1468 c 0,23,24
 1173 1468 1173 1468 1258 1362 c 1,25,26
 1313 1292 1313 1292 1314 1195 c 0,27,28
 1314 1150 1314 1150 1302 1100 c 2,29,-1
 1299 1088 l 1,30,31
 1235 837 1235 837 1027 794 c 1,32,33
 1088 778 1088 778 1157 676 c 1,34,35
 1203 610 1203 610 1203 509 c 0,36,37
 1203 448 1203 448 1186 374 c 2,38,-1
 1186 372 l 2,39,40
 1140 173 1140 173 967 68 c 1,41,42
 793 -40 793 -40 556 -40 c 2,43,-1
 554 -40 l 2,44,45
 317 -40 317 -40 205 74 c 256,46,47
 128 153 128 153 128 280 c 0,48,49
 128 336 128 336 143 402 c 1,50,51
 183 569 183 569 303.5 673.5 c 128,-1,52
 424 778 424 778 504 797 c 1,53,54
 368 831 368 831 368 986 c 0,55,56
 368 989 368 989 368 992 c 0,57,58
 368 1041 368 1041 382 1102 c 1,20,21
904 1363 m 0,59,60
 786 1363 786 1363 716 1288.5 c 128,-1,61
 646 1214 646 1214 620 1104 c 1,62,-1
 618 1095 l 1,63,64
 608 1049 608 1049 608 1009 c 0,65,66
 608 958 608 958 624 917 c 1,67,68
 650 846 650 846 791 846 c 1,69,-1
 793 845 l 1,70,71
 919 845 919 845 981 919 c 128,-1,72
 1043 993 1043 993 1069 1104 c 256,73,74
 1079 1149 1079 1149 1079 1189 c 0,75,76
 1079 1246 1079 1246 1050 1304.5 c 128,-1,77
 1021 1363 1021 1363 904 1363 c 0,59,60
EndSplineSet
Validated: 1
EndChar

StartChar: less
Encoding: 60 60 24
Width: 1100
Flags: W
LayerCount: 2
Fore
SplineSet
328 595 m 2,0,1
 320 605 320 605 320 618 c 2,2,-1
 320 628 l 1,3,-1
 320 630 l 2,4,5
 325 651 325 651 357 677 c 2,6,-1
 1115 1281 l 2,7,8
 1149 1307 1149 1307 1176 1307 c 0,9,10
 1200 1307 1200 1307 1214 1289 c 2,11,-1
 1251 1239 l 1,12,13
 1257 1229 1257 1229 1257 1217 c 0,14,15
 1257 1212 1257 1212 1256 1207 c 1,16,-1
 1255 1204 l 2,17,18
 1250 1182 1250 1182 1221 1158 c 1,19,-1
 561 631 l 1,20,-1
 978 105 l 1,21,22
 994 82 994 82 990 57 c 1,23,-1
 989 53 l 2,24,25
 985 37 985 37 969 23 c 2,26,-1
 908 -27 l 2,27,28
 888 -43 888 -43 864 -43 c 0,29,30
 837 -43 837 -43 815 -17 c 2,31,-1
 328 595 l 2,0,1
EndSplineSet
Validated: 1
EndChar

StartChar: at
Encoding: 64 64 25
Width: 2119
Flags: W
LayerCount: 2
Fore
SplineSet
1924 168 m 0,0,1
 1856 100 1856 100 1773.5 42 c 128,-1,2
 1691 -16 1691 -16 1603 -49 c 1,3,4
 1500 -89 1500 -89 1407 -89 c 0,5,6
 1338 -89 1338 -89 1277 -66 c 0,7,8
 1197 -36 1197 -36 1197 43 c 0,9,10
 1197 64 1197 64 1202 87 c 2,11,-1
 1196 61 l 1,12,-1
 901 -32 l 2,13,14
 861 -45 861 -45 834 -45 c 2,15,-1
 792 -45 l 1,16,17
 638 -37 638 -37 582 81 c 0,18,19
 556 134 556 134 556 201 c 0,20,21
 556 247 556 247 568 300 c 0,22,23
 594 414 594 414 667 529 c 128,-1,24
 740 644 740 644 825 722 c 1,25,26
 875 769 875 769 964 819 c 0,27,28
 994 835 994 835 1031 848 c 1,29,30
 1125 878 1125 878 1219.5 908 c 128,-1,31
 1314 938 1314 938 1409 968 c 0,32,33
 1433 976 1433 976 1454 976 c 2,34,-1
 1460 976 l 1,35,36
 1527 973 1527 973 1607 942 c 0,37,38
 1616 939 1616 939 1620 937 c 0,39,40
 1635 929 1635 929 1662 918 c 0,41,42
 1669 916 1669 916 1673 916 c 0,43,44
 1680 916 1680 916 1688 920 c 0,45,46
 1716 937 1716 937 1727 946 c 1,47,48
 1744 962 1744 962 1766 962 c 0,49,50
 1776 962 1776 962 1785 958 c 0,51,52
 1814 944 1814 944 1809 922 c 2,53,-1
 1808 918 l 1,54,-1
 1474 196 l 2,55,56
 1456 157 1456 157 1450 128 c 0,57,58
 1446 110 1446 110 1445 96 c 0,59,60
 1445 52 1445 52 1484 41 c 0,61,62
 1497 37 1497 37 1513 37 c 0,63,64
 1545 37 1545 37 1587 53 c 1,65,66
 1657 77 1657 77 1719 125 c 1,67,68
 1824 204 1824 204 1917 356 c 0,69,70
 2012 511 2012 511 2055 699 c 0,71,72
 2080 805 2080 805 2080 894 c 0,73,74
 2080 1084 2080 1084 1967 1190 c 0,75,76
 1797 1350 1797 1350 1503 1350 c 0,77,78
 1283 1350 1283 1350 1043 1240 c 1,79,80
 803 1131 803 1131 617 904 c 1,81,82
 429 677 429 677 361 387 c 0,83,84
 334 269 334 269 334 163 c 0,85,86
 334 66 334 66 357 -22 c 0,87,88
 404 -202 404 -202 553 -304 c 0,89,90
 698 -404 698 -404 937 -404 c 0,91,92
 1139 -404 1139 -404 1335 -333 c 0,93,94
 1514 -268 1514 -268 1664 -163 c 1,95,96
 1678 -152 1678 -152 1695 -152 c 0,97,98
 1713 -152 1713 -152 1723 -165 c 0,99,100
 1734 -179 1734 -179 1730 -196 c 0,101,102
 1727 -209 1727 -209 1717 -222 c 1,103,104
 1699 -249 1699 -249 1678 -265 c 0,105,106
 1495 -405 1495 -405 1288 -466 c 128,-1,107
 1081 -527 1081 -527 863 -527 c 0,108,109
 451 -527 451 -527 248 -267 c 0,110,111
 109 -89 109 -89 109 154 c 0,112,113
 109 264 109 264 138 388 c 0,114,115
 242 839 242 839 641 1151 c 1,116,117
 1042 1462 1042 1462 1520 1462 c 0,118,119
 1904 1462 1904 1462 2108 1254 c 1,120,121
 2253 1104 2253 1104 2253 886 c 0,122,123
 2253 796 2253 796 2231 702 c 0,124,125
 2163 408 2163 408 1924 168 c 0,0,1
1227 159 m 1,126,-1
 1506 765 l 1,127,128
 1488 793 1488 793 1440.5 822.5 c 128,-1,129
 1393 852 1393 852 1348 854 c 1,130,-1
 1345 854 l 2,131,132
 1330 854 1330 854 1313 848 c 0,133,134
 1270 835 1270 835 1228 821.5 c 128,-1,135
 1186 808 1186 808 1144 795 c 0,136,137
 1121 787 1121 787 1101 773 c 0,138,139
 1013 710 1013 710 950 619 c 128,-1,140
 887 528 887 528 853 439 c 1,141,142
 834 393 834 393 825 352 c 0,143,144
 815 309 815 309 815 273 c 0,145,146
 815 241 815 241 823 214 c 0,147,148
 847 130 847 130 923 105 c 0,149,150
 954 95 954 95 988 95 c 0,151,152
 999 95 999 95 1011 96 c 0,153,154
 1030 98 1030 98 1063 108 c 0,155,156
 1087 115 1087 115 1144 133 c 128,-1,157
 1201 151 1201 151 1227 159 c 1,126,-1
EndSplineSet
Validated: 1
EndChar

StartChar: A
Encoding: 65 65 26
Width: 1593
Flags: W
LayerCount: 2
Fore
SplineSet
1609 13 m 256,1,2
 1607 6 1607 6 1597.5 -7 c 128,-1,3
 1588 -20 1588 -20 1562 -20 c 2,4,-1
 1224 -20 l 2,5,6
 1206 -20 1206 -20 1192.5 -9 c 128,-1,7
 1179 2 1179 2 1178 11.5 c 128,-1,8
 1177 21 1177 21 1179 32 c 256,9,10
 1182 43 1182 43 1199 56 c 128,-1,11
 1216 69 1216 69 1229 77.5 c 128,-1,12
 1242 86 1242 86 1247 94.5 c 128,-1,13
 1252 103 1252 103 1254 114 c 0,14,15
 1257 126 1257 126 1255 141 c 2,16,-1
 1187 469 l 1,17,-1
 640 469 l 1,18,19
 593 397 593 397 538 311.5 c 128,-1,20
 483 226 483 226 449 174.5 c 128,-1,21
 415 123 415 123 412 113 c 128,-1,22
 409 103 409 103 407 96 c 256,23,24
 405 89 405 89 406 81 c 128,-1,25
 407 73 407 73 412 64 c 128,-1,26
 417 55 417 55 417 44 c 128,-1,27
 417 33 417 33 415 28 c 0,28,29
 413 21 413 21 409 15 c 0,30,31
 389 -20 389 -20 355 -20 c 2,32,-1
 97 -20 l 2,33,34
 62 -20 62 -20 62 2 c 0,35,36
 62 6 62 6 63 10 c 0,37,38
 64 16 64 16 69 24 c 0,39,40
 81 52 81 52 119.5 67 c 128,-1,41
 158 82 158 82 199 99 c 1,42,43
 235 121 235 121 256 152 c 2,44,-1
 1128 1447 l 1,45,-1
 1225 1447 l 1,46,47
 1251 1315 1251 1315 1285 1144 c 128,-1,48
 1319 973 1319 973 1355.5 792 c 128,-1,49
 1392 611 1392 611 1426 440 c 128,-1,50
 1460 269 1460 269 1484 152 c 0,51,52
 1490 120 1490 120 1515 100.5 c 128,-1,53
 1540 81 1540 81 1560 71 c 128,-1,54
 1580 61 1580 61 1593 50.5 c 128,-1,55
 1606 40 1606 40 1608 32 c 128,-1,56
 1610 24 1610 24 1610 19 c 0,57,0
 1610 16 1610 16 1609 13 c 256,1,2
1163 590 m 1,58,-1
 1059 1117 l 1,59,60
 997 1020 997 1020 898 868 c 128,-1,61
 799 716 799 716 718 590 c 1,62,-1
 1163 590 l 1,58,-1
EndSplineSet
Validated: 1
EndChar

StartChar: B
Encoding: 66 66 27
Width: 1240
Flags: W
LayerCount: 2
Fore
SplineSet
1058 1424 m 2,0,1
 1161 1424 1161 1424 1266 1387.5 c 128,-1,2
 1371 1351 1371 1351 1407 1243 c 0,3,4
 1422 1200 1422 1200 1422 1148 c 0,5,6
 1422 1099 1422 1099 1408 1041 c 1,7,8
 1380 928 1380 928 1297 839 c 0,9,10
 1234 771 1234 771 1178 748 c 1,11,12
 1273 715 1273 715 1316 594 c 1,13,14
 1331 547 1331 547 1332 491 c 0,15,16
 1332 436 1332 436 1317 372 c 1,17,18
 1286 248 1286 248 1195 150 c 0,19,20
 1114 64 1114 64 993.5 22 c 128,-1,21
 873 -20 873 -20 781 -20 c 2,22,-1
 154 -20 l 2,23,24
 116 -20 116 -20 116 8 c 0,25,26
 116 14 116 14 118 21 c 0,27,28
 127 59 127 59 181 77 c 128,-1,29
 235 95 235 95 247 146 c 2,30,-1
 503 1258 l 2,31,32
 505 1268 505 1268 506 1277 c 0,33,34
 506 1312 506 1312 468.5 1326.5 c 128,-1,35
 431 1341 431 1341 431 1371 c 0,36,37
 431 1377 431 1377 432 1383 c 0,38,39
 441 1424 441 1424 488 1424 c 2,40,-1
 1058 1424 l 2,0,1
597 667 m 1,41,-1
 464 93 l 1,42,-1
 665 93 l 2,43,44
 734 93 734 93 808 113 c 128,-1,45
 882 133 882 133 943 182 c 0,46,47
 1037 257 1037 257 1066 383 c 0,48,49
 1075 420 1075 420 1075 454 c 0,50,51
 1075 529 1075 529 1032 584 c 1,52,53
 965 667 965 667 819 667 c 2,54,-1
 597 667 l 1,41,-1
626 794 m 1,55,-1
 875 794 l 1,56,57
 985 806 985 806 1066 869 c 0,58,59
 1150 936 1150 936 1176 1050 c 0,60,61
 1184 1084 1184 1084 1184 1115 c 0,62,63
 1184 1183 1184 1183 1145 1231 c 0,64,65
 1085 1305 1085 1305 955 1305 c 2,66,-1
 744 1305 l 1,67,-1
 626 794 l 1,55,-1
EndSplineSet
Validated: 1
EndChar

StartChar: C
Encoding: 67 67 28
Width: 1405
Flags: W
LayerCount: 2
Fore
SplineSet
860 -57 m 0,0,1
 543 -57 543 -57 374 115.5 c 128,-1,2
 205 288 205 288 205 507 c 0,3,4
 205 597 205 597 229 701 c 0,5,6
 309 1046 309 1046 594.5 1255.5 c 128,-1,7
 880 1465 880 1465 1211 1465 c 0,8,9
 1329 1465 1329 1465 1456.5 1438.5 c 128,-1,10
 1584 1412 1584 1412 1697 1328 c 1,11,-1
 1620 1106 l 1,12,13
 1604 1071 1604 1071 1567 1071 c 2,14,-1
 1563 1071 l 1,15,16
 1535 1073 1535 1073 1525 1112 c 1,17,18
 1497 1231 1497 1231 1401 1286 c 1,19,20
 1311 1336 1311 1336 1195 1336 c 2,21,-1
 1175 1336 l 1,22,23
 916 1325 916 1325 726 1130 c 0,24,25
 552 952 552 952 502 735 c 0,26,27
 496 711 496 711 492 686 c 0,28,29
 482 624 482 624 482 566 c 0,30,31
 482 411 482 411 568.5 253.5 c 128,-1,32
 655 96 655 96 894 85 c 0,33,34
 918 84 918 84 938 84 c 0,35,36
 1059 84 1059 84 1146 120 c 1,37,38
 1244 162 1244 162 1336 295 c 0,39,40
 1364 336 1364 336 1401 336 c 0,41,42
 1409 336 1409 336 1417 334 c 1,43,44
 1446 322 1446 322 1439 292 c 0,45,46
 1436 281 1436 281 1429 268 c 2,47,-1
 1281 17 l 1,48,49
 1162 -28 1162 -28 1056.5 -42.5 c 128,-1,50
 951 -57 951 -57 860 -57 c 0,0,1
EndSplineSet
Validated: 1
EndChar

StartChar: D
Encoding: 68 68 29
Width: 1585
Flags: W
LayerCount: 2
Fore
SplineSet
476 116 m 1,0,1
 575 96 575 96 686 96 c 0,2,3
 728 96 728 96 770 99 c 0,4,5
 1112 128 1112 128 1307 387 c 0,6,7
 1411 524 1411 524 1460 736 c 2,8,-1
 1468 769 l 1,9,10
 1483 849 1483 849 1483 916 c 0,11,12
 1483 920 1483 920 1483 924 c 0,13,14
 1483 1108 1483 1108 1376 1201 c 1,15,16
 1252 1314 1252 1314 1005 1314 c 2,17,-1
 979 1314 l 2,18,19
 858 1314 858 1314 748 1297 c 1,20,-1
 476 116 l 1,0,1
568 1427 m 2,21,-1
 883 1433 l 1,22,23
 1037 1433 1037 1433 1206.5 1423.5 c 128,-1,24
 1376 1414 1376 1414 1509.5 1349.5 c 128,-1,25
 1643 1285 1643 1285 1707 1154 c 1,26,27
 1747 1071 1747 1071 1747 951 c 0,28,29
 1747 852 1747 852 1720 727 c 1,30,31
 1681 558 1681 558 1577 409 c 128,-1,32
 1473 260 1473 260 1313 155 c 0,33,34
 1041 -23 1041 -23 708 -27 c 1,35,-1
 628 -27 l 2,36,37
 570 -27 570 -27 519 -26 c 1,38,-1
 402 -26 l 2,39,40
 318 -26 318 -26 276 -23 c 1,41,-1
 253 -23 l 2,42,43
 214 -23 214 -23 148 -29 c 1,44,45
 109 -29 109 -29 109 -1 c 0,46,47
 109 4 109 4 111 11 c 256,48,49
 120 51 120 51 174 69 c 128,-1,50
 228 87 228 87 240 139 c 2,51,-1
 499 1262 l 2,52,53
 501 1272 501 1272 502 1281 c 0,54,55
 502 1316 502 1316 464.5 1330.5 c 128,-1,56
 427 1345 427 1345 427 1375 c 0,57,58
 427 1381 427 1381 428 1387 c 0,59,60
 437 1428 437 1428 484 1428 c 1,61,62
 525 1427 525 1427 568 1427 c 2,21,-1
EndSplineSet
Validated: 1
EndChar

StartChar: E
Encoding: 69 69 30
Width: 1251
Flags: W
LayerCount: 2
Fore
SplineSet
512 114 m 1,0,-1
 914 114 l 2,1,2
 994 114 994 114 1070 181 c 128,-1,3
 1146 248 1146 248 1188 288 c 0,4,5
 1221 319 1221 319 1245 319 c 0,6,7
 1283 319 1283 319 1283 291 c 0,8,9
 1283 285 1283 285 1281 278 c 0,10,11
 1278 263 1278 263 1272 253 c 2,12,-1
 1132 -20 l 1,13,-1
 193 -20 l 2,14,15
 158 -20 158 -20 158 8 c 0,16,17
 158 14 158 14 160 21 c 0,18,19
 169 59 169 59 223 76.5 c 128,-1,20
 277 94 277 94 289 146 c 2,21,-1
 545 1257 l 2,22,23
 547 1268 547 1268 548 1277 c 0,24,25
 548 1313 548 1313 510.5 1327 c 128,-1,26
 473 1341 473 1341 473 1371 c 0,27,28
 473 1377 473 1377 474 1383 c 0,29,30
 483 1424 483 1424 530 1424 c 2,31,-1
 1483 1424 l 1,32,-1
 1419 1147 l 2,33,34
 1410 1106 1410 1106 1363 1106 c 0,35,36
 1338 1106 1338 1106 1316 1156 c 1,37,38
 1283 1224 1283 1224 1258.5 1257.5 c 128,-1,39
 1234 1291 1234 1291 1186 1291 c 2,40,-1
 784 1291 l 1,41,-1
 668 788 l 1,42,-1
 872 788 l 2,43,44
 918 788 918 788 950 839.5 c 128,-1,45
 982 891 982 891 1026 891 c 0,46,47
 1063 891 1063 891 1063 863 c 0,48,49
 1063 857 1063 857 1061 850 c 2,50,-1
 1003 596 l 2,51,52
 994 555 994 555 948 555 c 0,53,54
 905 555 905 555 894 606 c 128,-1,55
 883 657 883 657 836 657 c 2,56,-1
 638 657 l 1,57,-1
 512 114 l 1,0,-1
EndSplineSet
Validated: 1
EndChar

StartChar: F
Encoding: 70 70 31
Width: 1139
Flags: W
LayerCount: 2
Fore
SplineSet
194 -20 m 2,0,1
 158 -20 158 -20 158 8 c 0,2,3
 158 14 158 14 160 21 c 0,4,5
 165 43 165 43 200 62 c 1,6,7
 216 72 216 72 237.5 83.5 c 128,-1,8
 259 95 259 95 273 112 c 1,9,10
 285 128 285 128 289 146 c 2,11,-1
 545 1257 l 2,12,13
 547 1268 547 1268 548 1277 c 0,14,15
 548 1313 548 1313 510.5 1327 c 128,-1,16
 473 1341 473 1341 473 1371 c 0,17,18
 473 1377 473 1377 474 1383 c 0,19,20
 483 1424 483 1424 530 1424 c 2,21,-1
 1483 1424 l 1,22,-1
 1419 1147 l 2,23,24
 1410 1106 1410 1106 1363 1106 c 0,25,26
 1338 1106 1338 1106 1316 1156 c 1,27,28
 1283 1224 1283 1224 1258.5 1257.5 c 128,-1,29
 1234 1291 1234 1291 1186 1291 c 2,30,-1
 784 1291 l 1,31,-1
 668 788 l 1,32,-1
 872 788 l 2,33,34
 901 788 901 788 931 816 c 0,35,36
 953 836 953 836 973 863.5 c 128,-1,37
 993 891 993 891 1026 891 c 0,38,39
 1063 891 1063 891 1063 863 c 0,40,41
 1063 857 1063 857 1061 850 c 2,42,-1
 1003 596 l 2,43,44
 994 555 994 555 948 555 c 0,45,46
 913 555 913 555 905 586 c 128,-1,47
 897 617 897 617 883 638 c 1,48,49
 868 658 868 658 842 658 c 2,50,-1
 638 658 l 1,51,-1
 520 146 l 2,52,53
 514 122 514 122 520 106 c 1,54,55
 527 92 527 92 540.5 82 c 128,-1,56
 554 72 554 72 567 63 c 0,57,58
 595 43 595 43 590 21 c 0,59,60
 588 13 588 13 584 5 c 1,61,62
 563 -20 563 -20 535 -20 c 2,63,-1
 194 -20 l 2,0,1
EndSplineSet
Validated: 1
EndChar

StartChar: G
Encoding: 71 71 32
Width: 1563
Flags: W
LayerCount: 2
Fore
SplineSet
860 -57 m 0,0,1
 543 -57 543 -57 374 115.5 c 128,-1,2
 205 288 205 288 205 507 c 0,3,4
 205 597 205 597 229 701 c 0,5,6
 309 1046 309 1046 594.5 1255.5 c 128,-1,7
 880 1465 880 1465 1211 1465 c 0,8,9
 1329 1465 1329 1465 1456.5 1438.5 c 128,-1,10
 1584 1412 1584 1412 1697 1328 c 1,11,-1
 1620 1106 l 1,12,13
 1604 1071 1604 1071 1567 1071 c 2,14,-1
 1563 1071 l 1,15,16
 1535 1073 1535 1073 1525 1112 c 1,17,18
 1493 1244 1493 1244 1413 1287 c 128,-1,19
 1333 1330 1333 1330 1180 1330 c 0,20,21
 968 1330 968 1330 766.5 1181.5 c 128,-1,22
 565 1033 565 1033 489 701 c 0,23,24
 474 636 474 636 474 573 c 0,25,26
 474 429 474 429 568.5 262.5 c 128,-1,27
 663 96 663 96 894 85 c 0,28,29
 918 84 918 84 938 84 c 0,30,31
 1046 84 1046 84 1126 112 c 0,32,33
 1219 145 1219 145 1298 244 c 1,34,-1
 1341 428 l 1,35,36
 1345 448 1345 448 1327 459 c 0,37,38
 1305 473 1305 473 1255.5 495.5 c 128,-1,39
 1206 518 1206 518 1206 546 c 0,40,41
 1206 550 1206 550 1207 554 c 0,42,43
 1216 595 1216 595 1262 595 c 2,44,-1
 1663 595 l 2,45,46
 1701 595 1701 595 1702 567 c 0,47,48
 1702 561 1702 561 1700 554 c 0,49,50
 1691 515 1691 515 1637 497 c 128,-1,51
 1583 479 1583 479 1571 428 c 2,52,-1
 1477 20 l 1,53,54
 1300 12 1300 12 1152 -23 c 1,55,56
 1073 -43 1073 -43 999.5 -50 c 128,-1,57
 926 -57 926 -57 860 -57 c 0,0,1
EndSplineSet
Validated: 1
EndChar

StartChar: H
Encoding: 72 72 33
Width: 1638
Flags: W
LayerCount: 2
Fore
SplineSet
775 1257 m 2,0,-1
 672 809 l 1,1,-1
 1467 809 l 1,2,-1
 1570 1257 l 2,3,4
 1572 1267 1572 1267 1573 1276 c 0,5,6
 1573 1311 1573 1311 1535.5 1326 c 128,-1,7
 1498 1341 1498 1341 1498 1371 c 0,8,9
 1498 1377 1498 1377 1499 1383 c 0,10,11
 1508 1424 1508 1424 1555 1424 c 2,12,-1
 1894 1424 l 2,13,14
 1932 1424 1932 1424 1932 1396 c 0,15,16
 1932 1390 1932 1390 1930 1383 c 0,17,18
 1921 1344 1921 1344 1866.5 1326 c 128,-1,19
 1812 1308 1812 1308 1800 1257 c 2,20,-1
 1544 146 l 2,21,22
 1542 135 1542 135 1541 126 c 0,23,24
 1541 90 1541 90 1579 76 c 128,-1,25
 1617 62 1617 62 1617 33 c 0,26,27
 1617 27 1617 27 1616 21 c 0,28,29
 1607 -20 1607 -20 1560 -20 c 2,30,-1
 1221 -20 l 2,31,32
 1183 -20 1183 -20 1183 8 c 0,33,34
 1183 14 1183 14 1185 21 c 0,35,36
 1194 59 1194 59 1248 76.5 c 128,-1,37
 1302 94 1302 94 1314 146 c 2,38,-1
 1436 677 l 1,39,-1
 641 677 l 1,40,-1
 519 146 l 2,41,42
 517 135 517 135 516 126 c 0,43,44
 516 90 516 90 553.5 76 c 128,-1,45
 591 62 591 62 591 33 c 0,46,47
 591 27 591 27 590 21 c 0,48,49
 581 -20 581 -20 535 -20 c 2,50,-1
 196 -20 l 2,51,52
 158 -20 158 -20 158 8 c 0,53,54
 158 14 158 14 160 21 c 0,55,56
 169 59 169 59 223 76.5 c 128,-1,57
 277 94 277 94 289 146 c 2,58,-1
 545 1257 l 2,59,60
 547 1267 547 1267 548 1276 c 0,61,62
 548 1311 548 1311 510.5 1326 c 128,-1,63
 473 1341 473 1341 473 1371 c 0,64,65
 473 1377 473 1377 474 1383 c 0,66,67
 483 1424 483 1424 530 1424 c 2,68,-1
 869 1424 l 2,69,70
 906 1424 906 1424 906 1396 c 0,71,72
 906 1390 906 1390 904 1383 c 0,73,74
 895 1344 895 1344 841 1326 c 128,-1,75
 787 1308 787 1308 775 1257 c 2,0,-1
EndSplineSet
Validated: 1
EndChar

StartChar: I
Encoding: 73 73 34
Width: 690
Flags: W
LayerCount: 2
Fore
SplineSet
775 1257 m 2,0,-1
 519 147 l 2,1,2
 516 136 516 136 516 126 c 0,3,4
 516 90 516 90 553.5 76 c 128,-1,5
 591 62 591 62 591 33 c 0,6,7
 591 27 591 27 590 21 c 0,8,9
 581 -20 581 -20 534 -20 c 2,10,-1
 195 -20 l 2,11,12
 158 -20 158 -20 158 8 c 0,13,14
 158 14 158 14 160 21 c 0,15,16
 169 59 169 59 223 76.5 c 128,-1,17
 277 94 277 94 289 146 c 2,18,-1
 545 1257 l 2,19,20
 547 1268 547 1268 548 1277 c 0,21,22
 548 1313 548 1313 510.5 1327 c 128,-1,23
 473 1341 473 1341 473 1371 c 0,24,25
 473 1377 473 1377 474 1383 c 0,26,27
 483 1424 483 1424 530 1424 c 2,28,-1
 868 1424 l 2,29,30
 906 1424 906 1424 906 1396 c 0,31,32
 906 1390 906 1390 904 1383 c 0,33,34
 895 1344 895 1344 841 1326.5 c 128,-1,35
 787 1309 787 1309 775 1257 c 2,0,-1
EndSplineSet
Validated: 1
EndChar

StartChar: J
Encoding: 74 74 35
Width: 682
Flags: W
LayerCount: 2
Fore
SplineSet
522 180 m 2,0,1
 476 -19 476 -19 425.5 -118 c 128,-1,2
 375 -217 375 -217 290 -289 c 1,3,4
 173 -386 173 -386 11 -427 c 1,5,-1
 32 -339 l 1,6,7
 84 -311 84 -311 123.5 -276.5 c 128,-1,8
 163 -242 163 -242 194 -185 c 1,9,10
 214 -146 214 -146 231.5 -73 c 128,-1,11
 249 0 249 0 289 174 c 2,12,-1
 539 1258 l 2,13,14
 541 1268 541 1268 542 1277 c 0,15,16
 542 1312 542 1312 504.5 1327 c 128,-1,17
 467 1342 467 1342 467 1372 c 0,18,19
 467 1378 467 1378 469 1384 c 0,20,21
 478 1424 478 1424 524 1424 c 2,22,-1
 863 1424 l 2,23,24
 901 1424 901 1424 901 1396 c 0,25,26
 901 1390 901 1390 900 1384 c 0,27,28
 891 1345 891 1345 836.5 1327 c 128,-1,29
 782 1309 782 1309 770 1258 c 2,30,-1
 522 180 l 2,0,1
EndSplineSet
Validated: 1
EndChar

StartChar: K
Encoding: 75 75 36
Width: 1487
Flags: W
LayerCount: 2
Fore
SplineSet
1254 1254 m 2,0,1
 1349 1327 1349 1327 1408.5 1375 c 128,-1,2
 1468 1423 1468 1423 1505 1423 c 0,3,4
 1541 1423 1541 1423 1562 1411 c 2,5,-1
 1657 1359 l 1,6,7
 1678 1344 1678 1344 1678 1330 c 128,-1,8
 1678 1316 1678 1316 1667 1299 c 2,9,-1
 1568 1130 l 1,10,-1
 1481 1170 l 2,11,12
 1450 1184 1450 1184 1417 1184 c 0,13,14
 1383 1184 1383 1184 1344 1153 c 2,15,-1
 866 772 l 1,16,-1
 1448 91 l 1,17,18
 1462 73 1462 73 1487 60.5 c 128,-1,19
 1512 48 1512 48 1506 21 c 0,20,21
 1497 -20 1497 -20 1451 -20 c 2,22,-1
 1112 -20 l 2,23,24
 1074 -20 1074 -20 1074 8 c 0,25,26
 1074 14 1074 14 1076 21 c 0,27,28
 1079 35 1079 35 1105 55 c 0,29,30
 1111 59 1111 59 1112 64 c 2,31,-1
 1112 65 l 2,32,33
 1115 78 1115 78 1096 98 c 1,34,-1
 633 640 l 1,35,-1
 519 146 l 2,36,37
 517 135 517 135 516 126 c 0,38,39
 516 90 516 90 553.5 76 c 128,-1,40
 591 62 591 62 591 32 c 0,41,42
 591 26 591 26 590 20 c 0,43,44
 581 -20 581 -20 535 -20 c 2,45,-1
 196 -20 l 2,46,47
 158 -20 158 -20 158 8 c 0,48,49
 158 14 158 14 160 20 c 0,50,51
 169 59 169 59 223 76.5 c 128,-1,52
 277 94 277 94 289 146 c 2,53,-1
 545 1257 l 2,54,55
 547 1267 547 1267 548 1276 c 0,56,57
 548 1311 548 1311 510.5 1326 c 128,-1,58
 473 1341 473 1341 473 1371 c 0,59,60
 473 1377 473 1377 474 1383 c 0,61,62
 483 1424 483 1424 530 1424 c 2,63,-1
 869 1424 l 2,64,65
 906 1424 906 1424 906 1396 c 0,66,67
 906 1390 906 1390 904 1383 c 0,68,69
 895 1344 895 1344 841 1326 c 128,-1,70
 787 1308 787 1308 775 1257 c 2,71,-1
 670 800 l 1,72,-1
 1254 1254 l 2,0,1
EndSplineSet
Validated: 1
EndChar

StartChar: L
Encoding: 76 76 37
Width: 1251
Flags: W
LayerCount: 2
Fore
SplineSet
512 114 m 1,0,-1
 914 114 l 2,1,2
 994 114 994 114 1070 181 c 128,-1,3
 1146 248 1146 248 1188 288 c 0,4,5
 1221 319 1221 319 1245 319 c 0,6,7
 1283 319 1283 319 1283 291 c 0,8,9
 1283 285 1283 285 1281 278 c 0,10,11
 1278 263 1278 263 1272 253 c 2,12,-1
 1132 -20 l 1,13,-1
 196 -20 l 2,14,15
 158 -20 158 -20 158 8 c 0,16,17
 158 14 158 14 160 21 c 0,18,19
 169 59 169 59 223 76.5 c 128,-1,20
 277 94 277 94 289 146 c 2,21,-1
 545 1257 l 2,22,23
 547 1267 547 1267 548 1276 c 0,24,25
 548 1311 548 1311 510.5 1326 c 128,-1,26
 473 1341 473 1341 473 1371 c 0,27,28
 473 1377 473 1377 474 1383 c 0,29,30
 483 1424 483 1424 530 1424 c 2,31,-1
 869 1424 l 2,32,33
 906 1424 906 1424 906 1396 c 0,34,35
 906 1390 906 1390 904 1383 c 0,36,37
 895 1344 895 1344 841 1326 c 128,-1,38
 787 1308 787 1308 775 1257 c 2,39,-1
 512 114 l 1,0,-1
EndSplineSet
Validated: 1
EndChar

StartChar: M
Encoding: 77 77 38
Width: 1908
Flags: W
LayerCount: 2
Fore
SplineSet
2037 1257 m 2,0,-1
 1781 146 l 2,1,2
 1779 135 1779 135 1778 126 c 0,3,4
 1778 90 1778 90 1816 76 c 128,-1,5
 1854 62 1854 62 1854 33 c 0,6,7
 1854 27 1854 27 1853 21 c 0,8,9
 1844 -20 1844 -20 1797 -20 c 2,10,-1
 1458 -20 l 2,11,12
 1420 -20 1420 -20 1420 8 c 0,13,14
 1420 14 1420 14 1422 21 c 0,15,16
 1431 59 1431 59 1485 76.5 c 128,-1,17
 1539 94 1539 94 1551 146 c 2,18,-1
 1772 1106 l 1,19,-1
 970 -50 l 1,20,-1
 897 -50 l 1,21,-1
 625 1061 l 1,22,-1
 414 146 l 2,23,24
 412 135 412 135 411 126 c 0,25,26
 411 90 411 90 448.5 76 c 128,-1,27
 486 62 486 62 486 33 c 0,28,29
 486 27 486 27 485 21 c 0,30,31
 476 -20 476 -20 429 -20 c 2,32,-1
 175 -20 l 2,33,34
 137 -20 137 -20 137 8 c 0,35,36
 137 14 137 14 139 21 c 0,37,38
 148 59 148 59 202 76.5 c 128,-1,39
 256 94 256 94 268 146 c 2,40,-1
 524 1257 l 2,41,42
 526 1267 526 1267 527 1276 c 0,43,44
 527 1311 527 1311 489.5 1326 c 128,-1,45
 452 1341 452 1341 452 1371 c 0,46,47
 452 1377 452 1377 453 1383 c 0,48,49
 462 1424 462 1424 509 1424 c 2,50,-1
 792 1424 l 1,51,-1
 1071 338 l 1,52,-1
 1835 1424 l 1,53,-1
 2131 1424 l 2,54,55
 2169 1424 2169 1424 2169 1396 c 0,56,57
 2169 1390 2169 1390 2167 1383 c 0,58,59
 2158 1344 2158 1344 2103.5 1326 c 128,-1,60
 2049 1308 2049 1308 2037 1257 c 2,0,-1
EndSplineSet
Validated: 1
EndChar

StartChar: N
Encoding: 78 78 39
Width: 1644
Flags: W
LayerCount: 2
Fore
SplineSet
1432 271 m 1,0,-1
 1659 1257 l 2,1,2
 1661 1268 1661 1268 1662 1277 c 0,3,4
 1662 1312 1662 1312 1625 1326.5 c 128,-1,5
 1588 1341 1588 1341 1588 1371 c 0,6,7
 1588 1377 1588 1377 1589 1383 c 0,8,9
 1598 1424 1598 1424 1644 1424 c 2,10,-1
 1899 1424 l 2,11,12
 1937 1424 1937 1424 1937 1396 c 0,13,14
 1937 1390 1937 1390 1935 1383 c 0,15,16
 1926 1344 1926 1344 1872 1326 c 128,-1,17
 1818 1308 1818 1308 1806 1257 c 2,18,-1
 1499 -70 l 1,19,-1
 1293 -17 l 1,20,-1
 639 1121 l 1,21,-1
 414 146 l 2,22,23
 412 135 412 135 411 126 c 0,24,25
 411 90 411 90 448.5 76 c 128,-1,26
 486 62 486 62 486 33 c 0,27,28
 486 27 486 27 485 21 c 0,29,30
 476 -20 476 -20 429 -20 c 2,31,-1
 175 -20 l 2,32,33
 137 -20 137 -20 137 8 c 0,34,35
 137 14 137 14 139 21 c 0,36,37
 148 59 148 59 202 76.5 c 128,-1,38
 256 94 256 94 268 146 c 2,39,-1
 524 1257 l 2,40,41
 526 1267 526 1267 527 1276 c 0,42,43
 527 1311 527 1311 489.5 1326 c 128,-1,44
 452 1341 452 1341 452 1371 c 0,45,46
 452 1377 452 1377 453 1383 c 0,47,48
 462 1424 462 1424 509 1424 c 2,49,-1
 780 1424 l 1,50,-1
 1432 271 l 1,0,-1
EndSplineSet
Validated: 1
EndChar

StartChar: O
Encoding: 79 79 40
Width: 1610
Flags: W
LayerCount: 2
Fore
SplineSet
1142 1338 m 0,0,1
 850 1337 850 1337 690 1152 c 128,-1,2
 530 967 530 967 469 702 c 256,3,4
 447 608 447 608 447 525 c 0,5,6
 447 521 447 521 447 518 c 0,7,8
 447 369 447 369 532.5 218.5 c 128,-1,9
 618 68 618 68 848 66 c 1,10,-1
 853 66 l 2,11,12
 1078 66 1078 66 1270 260 c 1,13,14
 1463 457 1463 457 1519 696 c 2,15,-1
 1520 702 l 1,16,17
 1542 802 1542 802 1542 895 c 0,18,19
 1542 1027 1542 1027 1480.5 1182.5 c 128,-1,20
 1419 1338 1419 1338 1142 1338 c 0,0,1
1171 1466 m 1,21,-1
 1181 1466 l 2,22,23
 1515 1466 1515 1466 1698 1261 c 0,24,25
 1817 1127 1817 1127 1817 934 c 0,26,27
 1817 852 1817 852 1795 760 c 0,28,29
 1789 732 1789 732 1781 704 c 0,30,31
 1679 353 1679 353 1409 158 c 128,-1,32
 1139 -37 1139 -37 819 -55 c 0,33,34
 796 -56 796 -56 772 -56 c 0,35,36
 483 -56 483 -56 307 143 c 0,37,38
 180 286 180 286 180 489 c 0,39,40
 180 574 180 574 202 669 c 0,41,42
 206 687 206 687 212 706 c 0,43,44
 304 1053 304 1053 566 1257.5 c 128,-1,45
 828 1462 828 1462 1171 1466 c 1,21,-1
EndSplineSet
Validated: 1
EndChar

StartChar: P
Encoding: 80 80 41
Width: 1237
Flags: W
LayerCount: 2
Fore
SplineSet
498 146 m 2,0,1
 496 135 496 135 495 126 c 0,2,3
 495 90 495 90 532.5 76 c 128,-1,4
 570 62 570 62 570 33 c 0,5,6
 570 27 570 27 569 21 c 0,7,8
 560 -20 560 -20 514 -20 c 2,9,-1
 175 -20 l 2,10,11
 137 -20 137 -20 137 8 c 0,12,13
 137 14 137 14 139 21 c 0,14,15
 148 59 148 59 201 76.5 c 128,-1,16
 254 94 254 94 266 146 c 2,17,-1
 524 1257 l 2,18,19
 526 1267 526 1267 527 1276 c 0,20,21
 527 1311 527 1311 489.5 1326 c 128,-1,22
 452 1341 452 1341 452 1371 c 0,23,24
 452 1377 452 1377 453 1383 c 0,25,26
 462 1424 462 1424 509 1424 c 2,27,-1
 1099 1424 l 2,28,29
 1207 1424 1207 1424 1316.5 1385.5 c 128,-1,30
 1426 1347 1426 1347 1466 1234 c 1,31,32
 1481 1189 1481 1189 1481 1135 c 0,33,34
 1481 1083 1481 1083 1467 1022 c 1,35,36
 1438 904 1438 904 1350 809 c 0,37,38
 1273 727 1273 727 1157.5 687 c 128,-1,39
 1042 647 1042 647 955 647 c 2,40,-1
 613 647 l 1,41,-1
 498 146 l 2,0,1
764 1301 m 1,42,-1
 639 757 l 1,43,-1
 846 757 l 2,44,45
 911 757 911 757 980.5 775.5 c 128,-1,46
 1050 794 1050 794 1108 841 c 1,47,48
 1198 912 1198 912 1226 1032 c 0,49,50
 1234 1068 1234 1068 1234 1099 c 0,51,52
 1234 1170 1234 1170 1193 1223 c 1,53,54
 1130 1301 1130 1301 991 1301 c 2,55,-1
 764 1301 l 1,42,-1
EndSplineSet
Validated: 1
EndChar

StartChar: Q
Encoding: 81 81 42
Width: 1610
Flags: W
LayerCount: 2
Fore
SplineSet
1171 1466 m 1,0,-1
 1181 1466 l 2,1,2
 1515 1466 1515 1466 1698 1261 c 0,3,4
 1817 1127 1817 1127 1817 934 c 0,5,6
 1817 852 1817 852 1795 760 c 0,7,8
 1789 732 1789 732 1781 704 c 0,9,10
 1678 353 1678 353 1408 158 c 0,11,12
 1192 2 1192 2 946 -41 c 1,13,14
 994 -59 994 -59 1048 -86 c 0,15,16
 1203 -164 1203 -164 1291 -164 c 0,17,18
 1321 -164 1321 -164 1422 -137 c 1,19,-1
 1402 -225 l 1,20,21
 1284 -285 1284 -285 1219 -342 c 1,22,23
 1081 -323 1081 -323 902 -242 c 128,-1,24
 723 -161 723 -161 663 -161 c 0,25,26
 634 -161 634 -161 466 -257 c 1,27,-1
 492 -144 l 1,28,29
 594 -77 594 -77 647 -46 c 1,30,31
 443 -11 443 -11 307 143 c 0,32,33
 180 286 180 286 180 489 c 0,34,35
 180 574 180 574 202 669 c 0,36,37
 206 687 206 687 212 706 c 0,38,39
 304 1054 304 1054 566 1258 c 128,-1,40
 828 1462 828 1462 1171 1466 c 1,0,-1
1142 1338 m 0,41,42
 850 1337 850 1337 690 1152 c 128,-1,43
 530 967 530 967 469 702 c 0,44,45
 446 603 446 603 446 516 c 0,46,47
 446 368 446 368 512 252 c 0,48,49
 618 68 618 68 848 66 c 1,50,-1
 853 66 l 2,51,52
 1078 66 1078 66 1270 260 c 1,53,54
 1463 457 1463 457 1519 696 c 2,55,-1
 1520 702 l 1,56,57
 1542 802 1542 802 1542 895 c 0,58,59
 1542 1027 1542 1027 1497 1142 c 0,60,61
 1419 1338 1419 1338 1142 1338 c 0,41,42
EndSplineSet
Validated: 1
EndChar

StartChar: R
Encoding: 82 82 43
Width: 1368
Flags: W
LayerCount: 2
Fore
SplineSet
1327 84 m 1,0,1
 1342 68 1342 68 1379 65 c 1,2,3
 1421 60 1421 60 1421 33 c 0,4,5
 1421 29 1421 29 1420 24 c 2,6,-1
 1419 20 l 1,7,8
 1404 -20 1404 -20 1363 -20 c 2,9,-1
 1096 -20 l 2,10,11
 1073 -20 1073 -20 1029.5 63 c 128,-1,12
 986 146 986 146 933 254 c 128,-1,13
 880 362 880 362 824.5 475 c 128,-1,14
 769 588 769 588 734 647 c 1,15,-1
 613 647 l 1,16,-1
 498 146 l 2,17,18
 496 135 496 135 495 126 c 0,19,20
 495 90 495 90 532.5 76 c 128,-1,21
 570 62 570 62 570 33 c 0,22,23
 570 27 570 27 569 21 c 0,24,25
 560 -20 560 -20 514 -20 c 2,26,-1
 175 -20 l 2,27,28
 137 -20 137 -20 137 8 c 0,29,30
 137 14 137 14 139 21 c 0,31,32
 148 59 148 59 202 76.5 c 128,-1,33
 256 94 256 94 268 146 c 2,34,-1
 524 1257 l 2,35,36
 526 1267 526 1267 527 1276 c 0,37,38
 527 1311 527 1311 489.5 1326 c 128,-1,39
 452 1341 452 1341 452 1371 c 0,40,41
 452 1377 452 1377 453 1383 c 0,42,43
 462 1424 462 1424 509 1424 c 2,44,-1
 1099 1424 l 2,45,46
 1207 1424 1207 1424 1316.5 1385.5 c 128,-1,47
 1426 1347 1426 1347 1466 1234 c 1,48,49
 1481 1189 1481 1189 1481 1135 c 0,50,51
 1481 1083 1481 1083 1467 1022 c 1,52,53
 1438 904 1438 904 1350 809 c 0,54,55
 1278 733 1278 733 1174.5 693 c 128,-1,56
 1071 653 1071 653 1025 651 c 1,57,-1
 1327 84 l 1,0,1
764 1301 m 1,58,-1
 639 757 l 1,59,-1
 846 757 l 2,60,61
 911 757 911 757 980.5 775.5 c 128,-1,62
 1050 794 1050 794 1108 841 c 1,63,64
 1198 912 1198 912 1226 1032 c 0,65,66
 1234 1068 1234 1068 1234 1099 c 0,67,68
 1234 1170 1234 1170 1193 1223 c 1,69,70
 1130 1301 1130 1301 991 1301 c 2,71,-1
 764 1301 l 1,58,-1
EndSplineSet
Validated: 1
EndChar

StartChar: S
Encoding: 83 83 44
Width: 1075
Flags: W
LayerCount: 2
Fore
SplineSet
947 388 m 2,0,-1
 949 399 l 1,1,2
 954 425 954 425 954 448 c 0,3,4
 954 516 954 516 908 557 c 0,5,6
 880 582 880 582 808 603.5 c 128,-1,7
 736 625 736 625 627.5 637.5 c 128,-1,8
 519 650 519 650 430 697.5 c 128,-1,9
 341 745 341 745 320.5 811.5 c 128,-1,10
 300 878 300 878 300 928 c 0,11,12
 300 972 300 972 311 1018 c 0,13,14
 356 1213 356 1213 525 1341 c 128,-1,15
 694 1469 694 1469 909 1469 c 2,16,-1
 940 1469 l 1,17,18
 1169 1459 1169 1459 1316 1347 c 1,19,-1
 1240 1126 l 2,20,21
 1228 1090 1228 1090 1188 1090 c 2,22,-1
 1183 1090 l 1,23,24
 1153 1092 1153 1092 1144 1131 c 0,25,26
 1124 1217 1124 1217 1061 1276 c 128,-1,27
 998 1335 998 1335 913 1339 c 1,28,-1
 898 1339 l 2,29,30
 813 1339 813 1339 752.5 1313 c 128,-1,31
 692 1287 692 1287 661.5 1261 c 128,-1,32
 631 1235 631 1235 606 1200.5 c 128,-1,33
 581 1166 581 1166 565 1129.5 c 128,-1,34
 549 1093 549 1093 542 1062 c 0,35,36
 535 1030 535 1030 539 999 c 1,37,38
 544 938 544 938 577 909 c 128,-1,39
 610 880 610 880 640.5 871.5 c 128,-1,40
 671 863 671 863 705 857 c 128,-1,41
 739 851 739 851 785.5 843.5 c 128,-1,42
 832 836 832 836 894 826 c 128,-1,43
 956 816 956 816 1034.5 789.5 c 128,-1,44
 1113 763 1113 763 1147 712.5 c 128,-1,45
 1181 662 1181 662 1189.5 619.5 c 128,-1,46
 1198 577 1198 577 1198 550 c 0,47,48
 1198 508 1198 508 1187 459 c 0,49,50
 1136 237 1136 237 921 89 c 0,51,52
 809 12 809 12 698.5 -21 c 128,-1,53
 588 -54 588 -54 524 -56.5 c 128,-1,54
 460 -59 460 -59 438 -59 c 0,55,56
 295 -59 295 -59 162 -15 c 1,57,-1
 127 258 l 2,58,59
 127 260 127 260 126 263 c 0,60,61
 126 269 126 269 128 278 c 0,62,63
 131 289 131 289 147.5 308 c 128,-1,64
 164 327 164 327 196 327 c 1,65,66
 221 320 221 320 231 285 c 0,67,68
 261 152 261 152 334 112.5 c 128,-1,69
 407 73 407 73 523 73 c 0,70,71
 548 73 548 73 599.5 76.5 c 128,-1,72
 651 80 651 80 728 114.5 c 128,-1,73
 805 149 805 149 864.5 218 c 128,-1,74
 924 287 924 287 947 388 c 2,0,-1
EndSplineSet
Validated: 1
EndChar

StartChar: T
Encoding: 84 84 45
Width: 1255
Flags: W
LayerCount: 2
Fore
SplineSet
1530 1147 m 2,0,1
 1521 1106 1521 1106 1474 1106 c 0,2,3
 1451 1106 1451 1106 1426 1156 c 0,4,5
 1392 1224 1392 1224 1367.5 1257.5 c 128,-1,6
 1343 1291 1343 1291 1295 1291 c 2,7,-1
 1069 1291 l 1,8,-1
 805 146 l 2,9,10
 803 135 803 135 802 126 c 0,11,12
 802 90 802 90 839.5 75.5 c 128,-1,13
 877 61 877 61 877 32 c 0,14,15
 877 26 877 26 876 20 c 0,16,17
 867 -20 867 -20 821 -20 c 2,18,-1
 482 -20 l 2,19,20
 444 -20 444 -20 444 8 c 0,21,22
 444 14 444 14 446 20 c 0,23,24
 455 58 455 58 509 76 c 128,-1,25
 563 94 563 94 575 146 c 2,26,-1
 839 1291 l 1,27,-1
 609 1291 l 2,28,29
 561 1291 561 1291 520.5 1257.5 c 128,-1,30
 480 1224 480 1224 415 1156 c 0,31,32
 368 1106 368 1106 344 1106 c 0,33,34
 306 1106 306 1106 306 1134 c 0,35,36
 306 1140 306 1140 308 1147 c 2,37,-1
 351 1332 l 2,38,39
 366 1396 366 1396 396.5 1412.5 c 128,-1,40
 427 1429 427 1429 512 1429 c 2,41,-1
 1456 1429 l 2,42,43
 1548 1429 1548 1429 1563.5 1417 c 128,-1,44
 1579 1405 1579 1405 1579 1380 c 0,45,46
 1579 1361 1579 1361 1573 1332 c 2,47,-1
 1530 1147 l 2,0,1
EndSplineSet
Validated: 1
EndChar

StartChar: U
Encoding: 85 85 46
Width: 1554
Flags: W
LayerCount: 2
Fore
SplineSet
370 588 m 2,0,-1
 524 1258 l 2,1,2
 526 1268 526 1268 527 1277 c 0,3,4
 527 1312 527 1312 489.5 1326.5 c 128,-1,5
 452 1341 452 1341 452 1371 c 0,6,7
 452 1377 452 1377 453 1383 c 0,8,9
 462 1424 462 1424 509 1424 c 2,10,-1
 848 1424 l 2,11,12
 885 1424 885 1424 885 1396 c 0,13,14
 885 1390 885 1390 883 1383 c 0,15,16
 874 1344 874 1344 821.5 1327.5 c 128,-1,17
 769 1311 769 1311 757 1260 c 2,18,-1
 632 721 l 2,19,20
 597 569 597 569 585 485.5 c 128,-1,21
 573 402 573 402 573 359 c 0,22,23
 573 303 573 303 586 258 c 0,24,25
 607 183 607 183 676 144.5 c 128,-1,26
 745 106 745 106 888 106 c 0,27,28
 1135 106 1135 106 1267 301 c 1,29,30
 1366 443 1366 443 1430 721 c 2,31,-1
 1554 1257 l 2,32,33
 1556 1267 1556 1267 1557 1276 c 0,34,35
 1557 1311 1557 1311 1519.5 1326 c 128,-1,36
 1482 1341 1482 1341 1482 1371 c 0,37,38
 1482 1377 1482 1377 1483 1383 c 0,39,40
 1492 1424 1492 1424 1539 1424 c 2,41,-1
 1794 1424 l 2,42,43
 1831 1424 1831 1424 1831 1396 c 0,44,45
 1831 1390 1831 1390 1829 1383 c 0,46,47
 1820 1344 1820 1344 1766.5 1326 c 128,-1,48
 1713 1308 1713 1308 1701 1257 c 2,49,-1
 1547 588 l 1,50,51
 1511 437 1511 437 1455 311 c 128,-1,52
 1399 185 1399 185 1304 97 c 1,53,54
 1133 -59 1133 -59 850 -59 c 0,55,56
 675 -59 675 -59 557 -25.5 c 128,-1,57
 439 8 439 8 383 98 c 0,58,59
 333 176 333 176 333 312 c 0,60,61
 333 429 333 429 370 588 c 2,0,-1
EndSplineSet
Validated: 1
EndChar

StartChar: V
Encoding: 86 86 47
Width: 1479
Flags: W
LayerCount: 2
Fore
SplineSet
734 1269 m 1,0,-1
 899 237 l 1,1,-1
 1529 1114 l 2,2,3
 1545 1137 1545 1137 1549 1154 c 0,4,5
 1552 1167 1552 1167 1549 1177 c 0,6,7
 1537 1206 1537 1206 1508 1253 c 1,8,-1
 1464 1324 l 1,9,-1
 1627 1429 l 1,10,11
 1645 1442 1645 1442 1665 1442 c 256,12,13
 1685 1442 1685 1442 1702 1425 c 1,14,-1
 1765 1340 l 2,15,16
 1781 1318 1781 1318 1782 1289 c 0,17,18
 1782 1276 1782 1276 1778 1262 c 0,19,20
 1772 1238 1772 1238 1757 1210 c 0,21,22
 1716 1138 1716 1138 1646 1041 c 1,23,-1
 923 26 l 1,24,25
 911 7 911 7 896 -7 c 1,26,27
 876 -20 876 -20 858 -20 c 2,28,-1
 707 -20 l 2,29,30
 683 -20 683 -20 674 -3 c 0,31,32
 670 2 670 2 667.5 24 c 128,-1,33
 665 46 665 46 664 55 c 2,34,-1
 528 1105 l 1,35,36
 512 1210 512 1210 504 1251 c 0,37,38
 497 1284 497 1284 466 1310 c 1,39,40
 448 1323 448 1323 427.5 1332.5 c 128,-1,41
 407 1342 407 1342 394 1353 c 1,42,43
 380 1362 380 1362 379 1375 c 1,44,45
 377 1379 377 1379 377 1384 c 0,46,47
 377 1388 377 1388 378 1392 c 0,48,49
 380 1400 380 1400 388 1409 c 0,50,51
 401 1424 401 1424 425 1424 c 2,52,-1
 764 1424 l 2,53,54
 782 1424 782 1424 796 1412 c 1,55,56
 807 1400 807 1400 810 1389 c 1,57,58
 810 1382 810 1382 809 1378 c 0,59,60
 805 1361 805 1361 785 1345 c 0,61,62
 772 1336 772 1336 759 1327 c 128,-1,63
 746 1318 746 1318 739 1306 c 0,64,65
 736 1300 736 1300 733 1292 c 0,66,67
 731 1281 731 1281 734 1269 c 1,0,-1
EndSplineSet
Validated: 1
EndChar

StartChar: X
Encoding: 88 88 48
Width: 1366
Flags: W
LayerCount: 2
Fore
SplineSet
400 80 m 1,0,-1
 400 41 l 1,1,2
 396 22 396 22 375.5 1 c 128,-1,3
 355 -20 355 -20 327 -20 c 2,4,-1
 69 -20 l 2,5,6
 35 -20 35 -20 37 5 c 1,7,-1
 39 11 l 2,8,9
 45 39 45 39 96 59 c 1,10,-1
 152 80 l 1,11,12
 227 109 227 109 272 156 c 2,13,-1
 785 698 l 1,14,-1
 555 1249 l 1,15,16
 532 1301 532 1301 457 1332 c 1,17,18
 432 1340 432 1340 418 1350 c 0,19,20
 388 1370 388 1370 393 1394 c 2,21,-1
 394 1399 l 1,22,23
 404 1424 404 1424 435 1424 c 2,24,-1
 774 1424 l 2,25,26
 804 1424 804 1424 816.5 1404 c 128,-1,27
 829 1384 829 1384 826 1372 c 256,28,29
 823 1360 823 1360 811 1349 c 128,-1,30
 799 1338 799 1338 789.5 1329.5 c 128,-1,31
 780 1321 780 1321 777 1313 c 1,32,-1
 776 1308 l 2,33,34
 772 1290 772 1290 781 1272 c 1,35,-1
 949 873 l 1,36,-1
 1271 1214 l 2,37,38
 1363 1311 1363 1311 1429 1370.5 c 128,-1,39
 1495 1430 1495 1430 1550 1430 c 0,40,41
 1564 1430 1564 1430 1578 1426 c 2,42,-1
 1671 1394 l 1,43,44
 1696 1383 1696 1383 1696 1365 c 0,45,46
 1696 1362 1696 1362 1695 1359 c 0,47,48
 1692 1346 1692 1346 1687 1337 c 2,49,-1
 1596 1146 l 1,50,-1
 1509 1167 l 2,51,52
 1461 1178 1461 1178 1431 1180 c 1,53,-1
 1429 1180 l 2,54,55
 1412 1180 1412 1180 1379 1144 c 2,56,-1
 1003 742 l 1,57,-1
 1249 155 l 2,58,59
 1268 110 1268 110 1349 72 c 0,60,61
 1372 61 1372 61 1385 52 c 0,62,63
 1417 31 1417 31 1413 11 c 0,64,65
 1406 -20 1406 -20 1369 -20 c 2,66,-1
 1030 -20 l 2,67,68
 1014 -20 1014 -20 998 -11 c 0,69,70
 972 5 972 5 977 27 c 0,71,72
 981 44 981 44 1003 64.5 c 128,-1,73
 1025 85 1025 85 1027 92 c 1,74,-1
 1029 98 l 2,75,76
 1033 114 1033 114 1025 132 c 2,77,-1
 840 567 l 1,78,-1
 440 137 l 2,79,80
 405 101 405 101 400 80 c 1,0,-1
EndSplineSet
Validated: 1
EndChar

StartChar: Y
Encoding: 89 89 49
Width: 1366
Flags: W
LayerCount: 2
Fore
SplineSet
745 669 m 2,0,-1
 531 1249 l 1,1,2
 518 1279 518 1279 476 1309 c 1,3,4
 453 1322 453 1322 429.5 1332 c 128,-1,5
 406 1342 406 1342 390 1353 c 0,6,7
 377 1361 377 1361 371 1373 c 1,8,9
 368 1380 368 1380 368 1387 c 0,10,11
 368 1391 368 1391 369 1394 c 2,12,-1
 370 1399 l 1,13,14
 380 1424 380 1424 411 1424 c 2,15,-1
 750 1424 l 2,16,17
 769 1424 769 1424 782 1414 c 1,18,19
 794 1404 794 1404 800 1392 c 1,20,21
 804 1382 804 1382 802 1373 c 0,22,23
 799 1360 799 1360 785 1347 c 0,24,25
 776 1338 776 1338 766 1329.5 c 128,-1,26
 756 1321 756 1321 753 1313 c 1,27,-1
 752 1308 l 2,28,29
 748 1291 748 1291 757 1272 c 2,30,-1
 956 773 l 1,31,-1
 1277 1133 l 2,32,33
 1313 1174 1313 1174 1324 1203 c 0,34,35
 1326 1206 1326 1206 1326 1210 c 0,36,37
 1328 1219 1328 1219 1328 1230 c 0,38,39
 1328 1251 1328 1251 1321 1279 c 2,40,-1
 1298 1365 l 1,41,-1
 1477 1436 l 2,42,43
 1491 1441 1491 1441 1503 1441 c 0,44,45
 1531 1441 1531 1441 1542 1414 c 1,46,-1
 1580 1312 l 2,47,48
 1584 1300 1584 1300 1584 1289 c 0,49,50
 1584 1276 1584 1276 1582 1266 c 0,51,52
 1573 1225 1573 1225 1525 1185 c 0,53,54
 1460 1130 1460 1130 1381 1045 c 2,55,-1
 1026 657 l 2,56,57
 1004 633 1004 633 988.5 586.5 c 128,-1,58
 973 540 973 540 963 497 c 2,59,-1
 882 146 l 2,60,61
 880 135 880 135 879 126 c 0,62,63
 879 90 879 90 916.5 76 c 128,-1,64
 954 62 954 62 954 33 c 0,65,66
 954 27 954 27 953 21 c 0,67,68
 944 -20 944 -20 897 -20 c 2,69,-1
 558 -20 l 2,70,71
 520 -20 520 -20 520 8 c 0,72,73
 520 14 520 14 522 21 c 0,74,75
 531 59 531 59 585 76.5 c 128,-1,76
 639 94 639 94 651 146 c 2,77,-1
 749 573 l 2,78,79
 754 596 754 596 755 618 c 0,80,81
 754 645 754 645 745 669 c 2,0,-1
EndSplineSet
Validated: 1
EndChar

StartChar: Z
Encoding: 90 90 50
Width: 1366
Flags: W
LayerCount: 2
Fore
SplineSet
522 1106 m 0,0,1
 484 1106 484 1106 484 1134 c 0,2,3
 484 1140 484 1140 486 1147 c 2,4,-1
 529 1332 l 2,5,6
 544 1396 544 1396 574.5 1412.5 c 128,-1,7
 605 1429 605 1429 690 1429 c 2,8,-1
 1614 1429 l 2,9,10
 1710 1429 1710 1429 1724 1409 c 0,11,12
 1733 1395 1733 1395 1733 1381 c 0,13,14
 1733 1375 1733 1375 1732 1369 c 2,15,-1
 1732 1367 l 2,16,17
 1727 1346 1727 1346 1702 1321 c 2,18,-1
 466 118 l 1,19,-1
 1202 119 l 2,20,21
 1250 119 1250 119 1290.5 152 c 128,-1,22
 1331 185 1331 185 1387 244 c 128,-1,23
 1443 303 1443 303 1467 303 c 0,24,25
 1505 303 1505 303 1505 275 c 0,26,27
 1505 269 1505 269 1503 262 c 2,28,-1
 1461 77 l 2,29,30
 1445 9 1445 9 1417.5 -5.5 c 128,-1,31
 1390 -20 1390 -20 1300 -20 c 2,32,-1
 229 -20 l 2,33,34
 142 -20 142 -20 117 -13 c 1,35,36
 86 1 86 1 86 21 c 0,37,38
 86 24 86 24 86 28 c 0,39,40
 90 47 90 47 121 72 c 1,41,-1
 1350 1292 l 1,42,-1
 787 1291 l 2,43,44
 739 1291 739 1291 698.5 1257.5 c 128,-1,45
 658 1224 658 1224 602 1165 c 128,-1,46
 546 1106 546 1106 522 1106 c 0,0,1
EndSplineSet
Validated: 1
EndChar

StartChar: bracketleft
Encoding: 91 91 51
Width: 682
Flags: W
LayerCount: 2
Fore
SplineSet
428 -347 m 2,0,1
 461 -347 461 -347 461 -377 c 0,2,3
 461 -385 461 -385 459 -394 c 0,4,5
 448 -440 448 -440 411 -440 c 2,6,-1
 164 -440 l 2,7,8
 126 -440 126 -440 126 -412 c 0,9,10
 126 -406 126 -406 128 -400 c 2,11,-1
 552 1436 l 2,12,13
 564 1486 564 1486 609 1486 c 2,14,-1
 856 1486 l 2,15,16
 884 1486 884 1486 885 1458 c 0,17,18
 885 1449 885 1449 882 1438 c 0,19,20
 871 1389 871 1389 829 1389 c 2,21,-1
 709 1389 l 1,22,-1
 308 -347 l 1,23,-1
 428 -347 l 2,0,1
EndSplineSet
Validated: 1
EndChar

StartChar: asciicircum
Encoding: 94 94 52
Width: 1100
Flags: W
LayerCount: 2
Fore
SplineSet
855 1450 m 1,0,-1
 994 1450 l 1,1,-1
 1201 892 l 1,2,-1
 1092 892 l 1,3,-1
 884 1274 l 1,4,-1
 497 892 l 1,5,-1
 390 892 l 1,6,-1
 855 1450 l 1,0,-1
EndSplineSet
Validated: 1
EndChar

StartChar: underscore
Encoding: 95 95 53
Width: 1100
Flags: W
LayerCount: 2
Fore
SplineSet
-46 -198 m 1,0,-1
 1104 -198 l 1,1,-1
 1068 -356 l 1,2,-1
 -82 -356 l 1,3,-1
 -46 -198 l 1,0,-1
EndSplineSet
Validated: 1
EndChar

StartChar: a
Encoding: 97 97 54
Width: 1155
Flags: W
LayerCount: 2
Fore
SplineSet
484 -45 m 2,0,-1
 442 -45 l 1,1,2
 290 -37 290 -37 206 79 c 0,3,4
 145 165 145 165 145 290 c 0,5,6
 145 359 145 359 164 440 c 0,7,8
 176 493 176 493 202 562.5 c 128,-1,9
 228 632 228 632 285.5 699.5 c 128,-1,10
 343 767 343 767 396 800.5 c 128,-1,11
 449 834 449 834 483 848 c 1,12,13
 855 976 855 976 877 976 c 2,14,-1
 883 976 l 1,15,16
 950 973 950 973 998.5 956 c 128,-1,17
 1047 939 1047 939 1072 927.5 c 128,-1,18
 1097 916 1097 916 1112 916 c 0,19,20
 1126 916 1126 916 1154 945 c 0,21,22
 1171 962 1171 962 1187 962 c 256,23,24
 1203 962 1203 962 1222.5 954.5 c 128,-1,25
 1242 947 1242 947 1242 930 c 0,26,27
 1242 925 1242 925 1240 920 c 2,28,-1
 1062 146 l 2,29,30
 1060 135 1060 135 1059 126 c 0,31,32
 1059 90 1059 90 1096.5 76 c 128,-1,33
 1134 62 1134 62 1134 32 c 0,34,35
 1134 26 1134 26 1133 20 c 0,36,37
 1124 -20 1124 -20 1077 -20 c 2,38,-1
 834 -20 l 2,39,40
 792 -20 792 -20 800 13 c 2,41,-1
 810 56 l 1,42,-1
 550 -32 l 2,43,44
 510 -45 510 -45 484 -45 c 2,0,-1
788 854 m 2,45,46
 772 854 772 854 706.5 831 c 128,-1,47
 641 808 641 808 611 797.5 c 128,-1,48
 581 787 581 787 567 775 c 0,49,50
 495 713 495 713 458 633.5 c 128,-1,51
 421 554 421 554 416 532 c 2,52,-1
 408 500 l 2,53,54
 389 419 389 419 389 356 c 0,55,56
 389 353 389 353 389 350 c 0,57,58
 389 275 389 275 415 224 c 0,59,60
 480 95 480 95 615 95 c 0,61,62
 649 95 649 95 697.5 111 c 128,-1,63
 746 127 746 127 833 158 c 1,64,-1
 973 762 l 1,65,66
 948 792 948 792 892.5 822 c 128,-1,67
 837 852 837 852 791 854 c 1,68,-1
 788 854 l 2,45,46
EndSplineSet
Validated: 1
EndChar

StartChar: b
Encoding: 98 98 55
Width: 1139
Flags: W
LayerCount: 2
Fore
SplineSet
432 168 m 1,0,1
 456 137 456 137 511 107 c 128,-1,2
 566 77 566 77 613 76 c 1,3,-1
 619 76 l 2,4,5
 630 76 630 76 647 82 c 0,6,7
 688 96 688 96 726 108.5 c 128,-1,8
 764 121 764 121 803 135 c 0,9,10
 820 141 820 141 838 155 c 0,11,12
 909 216 909 216 950 305 c 0,13,14
 983 377 983 377 999 448 c 0,15,16
 1004 469 1004 469 1008 488 c 0,17,18
 1015 534 1015 534 1015 573 c 0,19,20
 1015 654 1015 654 986 711 c 0,21,22
 942 798 942 798 856 825 c 0,23,24
 821 835 821 835 786 835 c 0,25,26
 776 835 776 835 767 834 c 0,27,28
 748 832 748 832 719 823 c 0,29,30
 694 814 694 814 641 796 c 128,-1,31
 588 778 588 778 571 772 c 1,32,-1
 432 168 l 1,0,1
353 -7 m 0,33,34
 335 1 335 1 307 11 c 0,35,36
 299 14 299 14 291 14 c 0,37,38
 286 14 286 14 283 11 c 0,39,40
 259 -6 259 -6 250 -14 c 1,41,42
 234 -31 234 -31 212 -31 c 0,43,44
 201 -31 201 -31 193 -27 c 0,45,46
 164 -16 164 -16 164 4 c 0,47,48
 164 7 164 7 165 11 c 2,49,-1
 452 1257 l 2,50,51
 454 1267 454 1267 455 1276 c 0,52,53
 455 1311 455 1311 417.5 1326 c 128,-1,54
 380 1341 380 1341 380 1371 c 0,55,56
 380 1377 380 1377 381 1383 c 0,57,58
 390 1424 390 1424 436 1424 c 1,59,60
 499 1427 499 1427 565 1443.5 c 128,-1,61
 631 1460 631 1460 738 1493 c 1,62,-1
 595 874 l 1,63,-1
 855 963 l 2,64,65
 891 975 891 975 920 977 c 0,66,67
 931 977 931 977 941 976.5 c 128,-1,68
 951 976 951 976 963 976 c 0,69,70
 1115 968 1115 968 1198 852 c 1,71,72
 1260 761 1260 761 1260 641 c 0,73,74
 1260 608 1260 608 1255 572 c 0,75,76
 1249 530 1249 530 1240 489 c 0,77,78
 1228 436 1228 436 1209 386 c 0,79,80
 1175 297 1175 297 1100 210 c 0,81,82
 1057 160 1057 160 984 112 c 0,83,84
 954 93 954 93 919 81 c 0,85,86
 832 52 832 52 745 22 c 128,-1,87
 658 -8 658 -8 570 -37 c 0,88,89
 545 -45 545 -45 526 -45 c 2,90,-1
 521 -45 l 1,91,92
 455 -42 455 -42 365 -13 c 0,93,94
 356 -9 356 -9 353 -7 c 0,33,34
EndSplineSet
Validated: 1
EndChar

StartChar: c
Encoding: 99 99 56
Width: 925
Flags: W
LayerCount: 2
Fore
SplineSet
826 976 m 2,0,1
 998 976 998 976 1129 877 c 1,2,-1
 1070 697 l 1,3,4
 1058 666 1058 666 1026 666 c 2,5,-1
 1023 666 l 1,6,7
 994 668 994 668 988 700 c 0,8,9
 970 781 970 781 919.5 815.5 c 128,-1,10
 869 850 869 850 785 850 c 2,11,-1
 762 850 l 1,12,13
 662 845 662 845 602 797 c 1,14,15
 479 702 479 702 437 519 c 0,16,17
 431 491 431 491 426 459 c 0,18,19
 418 411 418 411 418 368 c 0,20,21
 418 284 418 284 449 224 c 1,22,23
 510 108 510 108 609 92 c 0,24,25
 626 90 626 90 644 90 c 0,26,27
 735 90 735 90 818.5 134.5 c 128,-1,28
 902 179 902 179 924 179 c 256,29,30
 946 179 946 179 967 175 c 1,31,32
 970 156 970 156 967 142 c 0,33,34
 964 127 964 127 941.5 99 c 128,-1,35
 919 71 919 71 893 51 c 1,36,37
 752 -45 752 -45 556 -45 c 256,38,39
 360 -45 360 -45 250 64 c 1,40,41
 164 154 164 154 164 300 c 0,42,43
 164 367 164 367 182 446 c 0,44,45
 195 502 195 502 217 565 c 1,46,47
 315 795 315 795 536 907 c 0,48,49
 661 970 661 970 804 976 c 1,50,-1
 826 976 l 2,0,1
EndSplineSet
Validated: 1
EndChar

StartChar: d
Encoding: 100 100 57
Width: 1231
Flags: W
LayerCount: 2
Fore
SplineSet
830 56 m 1,0,-1
 570 -32 l 2,1,2
 530 -45 530 -45 504 -45 c 2,3,-1
 462 -45 l 1,4,5
 310 -37 310 -37 228 77 c 0,6,7
 164 168 164 168 164 288 c 0,8,9
 164 322 164 322 169 358 c 0,10,11
 175 400 175 400 184 440 c 0,12,13
 196 493 196 493 214 543 c 0,14,15
 248 632 248 632 324 720 c 1,16,17
 362 767 362 767 441 818 c 1,18,19
 470 835 470 835 503 848 c 1,20,21
 591 878 591 878 678.5 908 c 128,-1,22
 766 938 766 938 853 968 c 0,23,24
 877 976 877 976 897 976 c 2,25,-1
 903 976 l 1,26,27
 970 973 970 973 1059 942 c 1,28,-1
 1061 942 l 1,29,30
 1061 943 1061 943 1038 956 c 1,31,-1
 1107 1257 l 2,32,33
 1109 1267 1109 1267 1110 1276 c 0,34,35
 1110 1311 1110 1311 1072.5 1326 c 128,-1,36
 1035 1341 1035 1341 1035 1371 c 0,37,38
 1035 1377 1035 1377 1036 1383 c 0,39,40
 1045 1424 1045 1424 1091 1424 c 1,41,42
 1154 1427 1154 1427 1220 1443.5 c 128,-1,43
 1286 1460 1286 1460 1393 1493 c 1,44,-1
 1082 146 l 2,45,46
 1080 135 1080 135 1079 126 c 0,47,48
 1079 90 1079 90 1116.5 76 c 128,-1,49
 1154 62 1154 62 1154 33 c 0,50,51
 1154 27 1154 27 1153 21 c 0,52,53
 1144 -20 1144 -20 1097 -20 c 2,54,-1
 854 -20 l 2,55,56
 812 -20 812 -20 820 13 c 2,57,-1
 830 56 l 1,0,-1
993 763 m 1,58,59
 964 795 964 795 910 823.5 c 128,-1,60
 856 852 856 852 811 854 c 1,61,-1
 808 854 l 2,62,63
 794 854 794 854 777 848 c 0,64,65
 738 835 738 835 699.5 821.5 c 128,-1,66
 661 808 661 808 622 795 c 1,67,68
 601 787 601 787 587 775 c 0,69,70
 515 713 515 713 474 624 c 1,71,72
 441 554 441 554 425 486 c 0,73,74
 420 465 420 465 417 442 c 0,75,76
 410 397 410 397 410 358 c 0,77,78
 410 276 410 276 440 217 c 1,79,80
 482 130 482 130 568 105 c 0,81,82
 600 95 600 95 635 95 c 0,83,84
 646 95 646 95 657 96 c 0,85,86
 675 98 675 98 705 107 c 0,87,88
 730 115 730 115 783 133.5 c 128,-1,89
 836 152 836 152 853 158 c 1,90,-1
 993 763 l 1,58,59
EndSplineSet
Validated: 1
EndChar

StartChar: e
Encoding: 101 101 58
Width: 1004
Flags: W
LayerCount: 2
Fore
SplineSet
788 980 m 2,0,1
 997 980 997 980 1065.5 880.5 c 128,-1,2
 1134 781 1134 781 1134 673 c 0,3,4
 1134 616 1134 616 1119 551 c 1,5,6
 1109 510 1109 510 1100 484 c 128,-1,7
 1091 458 1091 458 1029 458 c 2,8,-1
 417 458 l 1,9,10
 407 409 407 409 406 365 c 0,11,12
 406 285 406 285 448.5 202.5 c 128,-1,13
 491 120 491 120 596 98 c 0,14,15
 626 91 626 91 659 91 c 0,16,17
 747 91 747 91 836.5 134 c 128,-1,18
 926 177 926 177 947 177 c 256,19,20
 968 177 968 177 976.5 168.5 c 128,-1,21
 985 160 985 160 981 145 c 0,22,23
 977 129 977 129 957 102 c 128,-1,24
 937 75 937 75 926.5 66 c 128,-1,25
 916 57 916 57 908 50 c 0,26,27
 768 -51 768 -51 569 -51 c 1,28,29
 293 -49 293 -49 197 125 c 0,30,31
 149 211 149 211 149 317 c 0,32,33
 149 376 149 376 164 441 c 0,34,35
 176 495 176 495 199 553 c 0,36,37
 272 744 272 744 425 861 c 128,-1,38
 578 978 578 978 784 980 c 1,39,-1
 788 980 l 2,0,1
920 571 m 1,40,41
 930 614 930 614 930 657 c 0,42,43
 930 710 930 710 908 781 c 128,-1,44
 886 852 886 852 761 852 c 2,45,-1
 750 852 l 1,46,47
 624 848 624 848 546.5 757.5 c 128,-1,48
 469 667 469 667 444 571 c 1,49,-1
 920 571 l 1,40,41
EndSplineSet
Validated: 1
EndChar

StartChar: f
Encoding: 102 102 59
Width: 683
Flags: W
LayerCount: 2
Fore
SplineSet
675 1027 m 2,0,-1
 662 969 l 1,1,-1
 877 973 l 2,2,3
 917 973 917 973 910 943 c 0,4,5
 903 912 903 912 893 890 c 0,6,7
 864 826 864 826 809 826 c 2,8,-1
 629 827 l 1,9,-1
 472 146 l 2,10,11
 470 135 470 135 469 126 c 0,12,13
 469 90 469 90 506.5 76 c 128,-1,14
 544 62 544 62 544 32 c 0,15,16
 544 26 544 26 543 20 c 0,17,18
 534 -20 534 -20 487 -20 c 2,19,-1
 148 -20 l 2,20,21
 110 -20 110 -20 110 8 c 0,22,23
 110 14 110 14 112 20 c 0,24,25
 121 59 121 59 175 76.5 c 128,-1,26
 229 94 229 94 241 146 c 2,27,-1
 397 824 l 1,28,-1
 303 820 l 1,29,30
 265 820 265 820 266 850 c 0,31,32
 266 855 266 855 267 860 c 1,33,-1
 267 862 l 2,34,35
 273 889 273 889 309 904 c 0,36,37
 330 913 330 913 374 934 c 128,-1,38
 418 955 418 955 432 960 c 0,39,40
 437 962 437 962 437 963 c 0,41,42
 437 965 437 965 430 965 c 1,43,-1
 444 1027 l 2,44,45
 474 1156 474 1156 510 1224.5 c 128,-1,46
 546 1293 546 1293 576 1322.5 c 128,-1,47
 606 1352 606 1352 641 1363 c 2,48,-1
 921 1459 l 1,49,-1
 965 1465 l 1,50,51
 998 1465 998 1465 1022.5 1445.5 c 128,-1,52
 1047 1426 1047 1426 1051 1412.5 c 128,-1,53
 1055 1399 1055 1399 1055 1390 c 0,54,55
 1055 1383 1055 1383 1054 1376 c 256,56,57
 1050 1360 1050 1360 1040 1325 c 128,-1,58
 1030 1290 1030 1290 997 1281 c 1,59,-1
 990 1281 l 2,60,61
 970 1281 970 1281 940.5 1304 c 128,-1,62
 911 1327 911 1327 881 1327 c 256,63,64
 851 1327 851 1327 827 1318 c 0,65,66
 749 1288 749 1288 719 1197 c 0,67,68
 706 1160 706 1160 696 1116.5 c 128,-1,69
 686 1073 686 1073 675 1027 c 2,0,-1
EndSplineSet
Validated: 1
EndChar

StartChar: g
Encoding: 103 103 60
Width: 1103
Flags: W
LayerCount: 2
Fore
SplineSet
848 219 m 1,0,-1
 973 762 l 1,1,2
 948 792 948 792 892.5 822 c 128,-1,3
 837 852 837 852 791 854 c 1,4,-1
 788 854 l 2,5,6
 774 854 774 854 757 848 c 0,7,8
 718 835 718 835 679.5 821.5 c 128,-1,9
 641 808 641 808 602 795 c 1,10,11
 581 787 581 787 567 775 c 0,12,13
 495 713 495 713 454 624 c 1,14,15
 421 554 421 554 405 486 c 0,16,17
 400 465 400 465 397 442 c 0,18,19
 390 397 390 397 390 358 c 0,20,21
 390 276 390 276 420 217 c 1,22,23
 462 130 462 130 548 105 c 0,24,25
 580 95 580 95 615 95 c 0,26,27
 626 95 626 95 637 96 c 0,28,29
 655 98 655 98 685 107 c 0,30,31
 710 115 710 115 762.5 133 c 128,-1,32
 815 151 815 151 832 157 c 1,33,-1
 847 219 l 1,34,-1
 848 219 l 1,0,-1
809 56 m 1,35,-1
 550 -32 l 2,36,37
 510 -45 510 -45 484 -45 c 2,38,-1
 442 -45 l 1,39,40
 290 -37 290 -37 208 77 c 0,41,42
 144 168 144 168 144 288 c 0,43,44
 144 322 144 322 149 358 c 0,45,46
 155 400 155 400 164 440 c 0,47,48
 176 493 176 493 194 543 c 0,49,50
 228 632 228 632 304 720 c 1,51,52
 342 767 342 767 421 818 c 1,53,54
 450 835 450 835 483 848 c 1,55,56
 571 878 571 878 658.5 908 c 128,-1,57
 746 938 746 938 833 968 c 0,58,59
 857 976 857 976 877 976 c 2,60,-1
 883 976 l 1,61,62
 950 973 950 973 1039 942 c 0,63,64
 1048 939 1048 939 1050 937 c 1,65,66
 1068 929 1068 929 1097 919 c 0,67,68
 1104 916 1104 916 1111 916 c 0,69,70
 1117 916 1117 916 1122 919 c 0,71,72
 1145 935 1145 935 1154 945 c 0,73,74
 1171 962 1171 962 1193 962 c 0,75,76
 1204 962 1204 962 1212 958 c 0,77,78
 1241 947 1241 947 1241 927 c 0,79,80
 1241 924 1241 924 1240 920 c 2,81,-1
 986 -180 l 2,82,83
 946 -353 946 -353 883.5 -398.5 c 128,-1,84
 821 -444 821 -444 722 -477 c 1,85,-1
 423 -580 l 2,86,87
 383 -593 383 -593 357 -593 c 0,88,89
 330 -593 330 -593 314 -592 c 0,90,91
 163 -587 163 -587 80 -468 c 0,92,93
 37 -406 37 -406 22 -305 c 1,94,95
 139 -263 139 -263 265 -220 c 1,96,97
 274 -291 274 -291 294 -330 c 0,98,99
 337 -416 337 -416 422 -442 c 0,100,101
 454 -451 454 -451 487 -451 c 0,102,103
 500 -451 500 -451 511 -450 c 0,104,105
 530 -448 530 -448 558 -440 c 1,106,107
 570 -435 570 -435 591.5 -428 c 128,-1,108
 613 -421 613 -421 635 -413 c 1,109,110
 676 -395 676 -395 706.5 -327 c 128,-1,111
 737 -259 737 -259 742 -237 c 2,112,-1
 809 56 l 1,35,-1
EndSplineSet
Validated: 1
EndChar

StartChar: h
Encoding: 104 104 61
Width: 1207
Flags: W
LayerCount: 2
Fore
SplineSet
446 146 m 2,0,1
 444 135 444 135 443 126 c 0,2,3
 443 90 443 90 480.5 76 c 128,-1,4
 518 62 518 62 518 32 c 0,5,6
 518 26 518 26 517 20 c 0,7,8
 508 -20 508 -20 462 -20 c 2,9,-1
 123 -20 l 2,10,11
 85 -20 85 -20 85 8 c 0,12,13
 85 14 85 14 87 20 c 0,14,15
 96 59 96 59 150 76.5 c 128,-1,16
 204 94 204 94 216 146 c 2,17,-1
 472 1257 l 2,18,19
 474 1267 474 1267 475 1276 c 0,20,21
 475 1311 475 1311 437.5 1326 c 128,-1,22
 400 1341 400 1341 400 1371 c 0,23,24
 400 1377 400 1377 401 1383 c 0,25,26
 410 1424 410 1424 456 1424 c 1,27,28
 519 1427 519 1427 585 1443.5 c 128,-1,29
 651 1460 651 1460 757 1493 c 1,30,-1
 616 885 l 1,31,32
 638 892 638 892 683.5 908 c 128,-1,33
 729 924 729 924 801.5 947.5 c 128,-1,34
 874 971 874 971 933.5 976.5 c 128,-1,35
 993 982 993 982 1007 982 c 0,36,37
 1101 982 1101 982 1169 919 c 0,38,39
 1232 860 1232 860 1232 725 c 0,40,41
 1232 633 1232 633 1203 506 c 2,42,-1
 1120 146 l 2,43,44
 1118 135 1118 135 1117 126 c 0,45,46
 1117 90 1117 90 1154.5 76 c 128,-1,47
 1192 62 1192 62 1192 32 c 0,48,49
 1192 26 1192 26 1191 20 c 0,50,51
 1182 -20 1182 -20 1136 -20 c 2,52,-1
 893 -20 l 2,53,54
 851 -20 851 -20 859 13 c 2,55,-1
 973 506 l 2,56,57
 994 596 994 596 994 663 c 0,58,59
 994 753 994 753 956 801 c 0,60,61
 917 851 917 851 844 851 c 0,62,63
 801 851 801 851 761.5 838.5 c 128,-1,64
 722 826 722 826 685.5 813.5 c 128,-1,65
 649 801 649 801 622 791 c 1,66,67
 597 783 597 783 592 781 c 1,68,-1
 446 146 l 2,0,1
EndSplineSet
Validated: 1
EndChar

StartChar: k
Encoding: 107 107 62
Width: 1163
Flags: W
LayerCount: 2
Fore
SplineSet
532 434 m 1,0,-1
 466 146 l 2,1,2
 464 135 464 135 463 126 c 0,3,4
 463 90 463 90 500.5 76 c 128,-1,5
 538 62 538 62 538 33 c 0,6,7
 538 27 538 27 537 21 c 0,8,9
 528 -20 528 -20 482 -20 c 2,10,-1
 143 -20 l 2,11,12
 105 -20 105 -20 105 8 c 0,13,14
 105 14 105 14 107 21 c 0,15,16
 116 59 116 59 170 76.5 c 128,-1,17
 224 94 224 94 236 146 c 2,18,-1
 492 1257 l 2,19,20
 494 1267 494 1267 495 1276 c 0,21,22
 495 1311 495 1311 457.5 1326 c 128,-1,23
 420 1341 420 1341 420 1371 c 0,24,25
 420 1377 420 1377 421 1383 c 0,26,27
 430 1424 430 1424 476 1424 c 1,28,29
 539 1427 539 1427 605 1443.5 c 128,-1,30
 671 1460 671 1460 777 1493 c 1,31,-1
 570 599 l 1,32,-1
 939 848 l 2,33,34
 1014 899 1014 899 1068 929 c 1,35,36
 1107 949 1107 949 1139 949 c 0,37,38
 1164 949 1164 949 1185 936 c 1,39,-1
 1249 890 l 1,40,41
 1264 878 1264 878 1264 863 c 0,42,43
 1264 860 1264 860 1264 856 c 0,44,45
 1262 847 1262 847 1255 839 c 1,46,-1
 1168 711 l 1,47,-1
 1101 750 l 2,48,49
 1080 762 1080 762 1059 762 c 0,50,51
 1035 762 1035 762 1008 745 c 0,52,53
 838 637 838 637 727 563 c 1,54,-1
 985 238 l 2,55,56
 1066 136 1066 136 1091 123 c 0,57,58
 1107 115 1107 115 1125 115 c 0,59,60
 1132 115 1132 115 1140 116 c 1,61,62
 1151 119 1151 119 1161 119 c 0,63,64
 1198 119 1198 119 1206 90 c 1,65,66
 1207 80 1207 80 1205 74 c 0,67,68
 1200 52 1200 52 1175 42 c 2,69,-1
 1104 12 l 1,70,71
 1040 -14 1040 -14 989 -14 c 0,72,73
 954 -14 954 -14 926 -1 c 0,74,75
 862 27 862 27 818 83 c 2,76,-1
 537 435 l 1,77,78
 542 439 542 439 543 440 c 1,79,80
 541 440 541 440 532 434 c 1,0,-1
EndSplineSet
Validated: 1
EndChar

StartChar: l
Encoding: 108 108 63
Width: 597
Flags: W
LayerCount: 2
Fore
SplineSet
466 146 m 2,0,1
 464 135 464 135 463 126 c 0,2,3
 463 90 463 90 500.5 76 c 128,-1,4
 538 62 538 62 538 33 c 0,5,6
 538 27 538 27 537 21 c 0,7,8
 528 -20 528 -20 482 -20 c 2,9,-1
 143 -20 l 2,10,11
 105 -20 105 -20 105 8 c 0,12,13
 105 14 105 14 107 21 c 0,14,15
 116 59 116 59 170 76.5 c 128,-1,16
 224 94 224 94 236 146 c 2,17,-1
 492 1257 l 2,18,19
 494 1267 494 1267 495 1276 c 0,20,21
 495 1311 495 1311 457.5 1326 c 128,-1,22
 420 1341 420 1341 420 1371 c 0,23,24
 420 1377 420 1377 421 1383 c 0,25,26
 430 1424 430 1424 476 1424 c 1,27,28
 539 1427 539 1427 605 1443.5 c 128,-1,29
 671 1460 671 1460 777 1493 c 1,30,-1
 466 146 l 2,0,1
EndSplineSet
Validated: 1
EndChar

StartChar: m
Encoding: 109 109 64
Width: 1797
Flags: W
LayerCount: 2
Fore
SplineSet
1003 982 m 0,0,1
 1097 982 1097 982 1165 919 c 0,2,3
 1189 896 1189 896 1193 889 c 1,4,5
 1220 898 1220 898 1260 911.5 c 128,-1,6
 1300 925 1300 925 1369.5 948 c 128,-1,7
 1439 971 1439 971 1498.5 976.5 c 128,-1,8
 1558 982 1558 982 1572 982 c 0,9,10
 1665 982 1665 982 1733 920 c 1,11,12
 1797 860 1797 860 1797 725 c 0,13,14
 1797 633 1797 633 1768 506 c 2,15,-1
 1685 146 l 2,16,17
 1683 135 1683 135 1682 126 c 0,18,19
 1682 90 1682 90 1719.5 76 c 128,-1,20
 1757 62 1757 62 1757 32 c 0,21,22
 1757 26 1757 26 1756 20 c 0,23,24
 1747 -20 1747 -20 1700 -20 c 2,25,-1
 1457 -20 l 2,26,27
 1416 -20 1416 -20 1424 13 c 2,28,-1
 1538 506 l 2,29,30
 1559 596 1559 596 1559 663 c 0,31,32
 1559 753 1559 753 1521 801 c 0,33,34
 1482 851 1482 851 1409 851 c 0,35,36
 1366 851 1366 851 1327.5 839 c 128,-1,37
 1289 827 1289 827 1258 816.5 c 128,-1,38
 1227 806 1227 806 1225 805 c 1,39,40
 1232 777 1232 777 1232 737 c 0,41,42
 1232 650 1232 650 1199 506 c 2,43,-1
 1116 146 l 2,44,45
 1114 135 1114 135 1113 126 c 0,46,47
 1113 90 1113 90 1150.5 76 c 128,-1,48
 1188 62 1188 62 1188 32 c 0,49,50
 1188 26 1188 26 1187 20 c 0,51,52
 1178 -20 1178 -20 1132 -20 c 2,53,-1
 793 -20 l 2,54,55
 755 -20 755 -20 755 8 c 0,56,57
 755 14 755 14 757 20 c 0,58,59
 766 59 766 59 820 76.5 c 128,-1,60
 874 94 874 94 886 146 c 2,61,-1
 969 506 l 2,62,63
 990 596 990 596 990 663 c 0,64,65
 990 753 990 753 952 801 c 0,66,67
 913 851 913 851 840 851 c 0,68,69
 797 851 797 851 750.5 836.5 c 128,-1,70
 704 822 704 822 667.5 809 c 128,-1,71
 631 796 631 796 611 789 c 1,72,-1
 463 146 l 2,73,74
 461 135 461 135 460 126 c 0,75,76
 460 90 460 90 497.5 76 c 128,-1,77
 535 62 535 62 535 32 c 0,78,79
 535 26 535 26 534 20 c 0,80,81
 525 -20 525 -20 479 -20 c 2,82,-1
 140 -20 l 2,83,84
 102 -20 102 -20 102 8 c 0,85,86
 102 14 102 14 104 20 c 0,87,88
 113 59 113 59 167 76.5 c 128,-1,89
 221 94 221 94 233 146 c 2,90,-1
 380 786 l 2,91,92
 382 796 382 796 383 805 c 0,93,94
 383 840 383 840 345.5 854.5 c 128,-1,95
 308 869 308 869 308 899 c 0,96,97
 308 905 308 905 309 911 c 0,98,99
 318 952 318 952 364 952 c 1,100,101
 427 955 427 955 493 972 c 128,-1,102
 559 989 559 989 665 1022 c 1,103,-1
 635 893 l 1,104,105
 648 897 648 897 689 911 c 128,-1,106
 730 925 730 925 800 948 c 128,-1,107
 870 971 870 971 929.5 976.5 c 128,-1,108
 989 982 989 982 1003 982 c 0,0,1
EndSplineSet
Validated: 1
EndChar

StartChar: n
Encoding: 110 110 65
Width: 1191
Flags: W
LayerCount: 2
Fore
SplineSet
1007 982 m 0,0,1
 1101 982 1101 982 1169 919 c 0,2,3
 1232 860 1232 860 1232 725 c 0,4,5
 1232 633 1232 633 1203 506 c 2,6,-1
 1120 146 l 2,7,8
 1118 135 1118 135 1117 126 c 0,9,10
 1117 90 1117 90 1154.5 76 c 128,-1,11
 1192 62 1192 62 1192 32 c 0,12,13
 1192 26 1192 26 1191 20 c 0,14,15
 1182 -20 1182 -20 1136 -20 c 2,16,-1
 893 -20 l 2,17,18
 851 -20 851 -20 859 13 c 2,19,-1
 973 506 l 2,20,21
 994 596 994 596 994 663 c 0,22,23
 994 753 994 753 956 801 c 0,24,25
 917 851 917 851 844 851 c 0,26,27
 801 851 801 851 761.5 838.5 c 128,-1,28
 722 826 722 826 685.5 813.5 c 128,-1,29
 649 801 649 801 622 791 c 1,30,31
 597 783 597 783 592 781 c 1,32,-1
 446 146 l 2,33,34
 444 135 444 135 443 126 c 0,35,36
 443 90 443 90 480.5 76 c 128,-1,37
 518 62 518 62 518 32 c 0,38,39
 518 26 518 26 517 20 c 0,40,41
 508 -20 508 -20 462 -20 c 2,42,-1
 123 -20 l 2,43,44
 85 -20 85 -20 85 8 c 0,45,46
 85 14 85 14 87 20 c 0,47,48
 96 59 96 59 150 76.5 c 128,-1,49
 204 94 204 94 216 146 c 2,50,-1
 363 786 l 2,51,52
 365 796 365 796 366 805 c 0,53,54
 366 840 366 840 328.5 854.5 c 128,-1,55
 291 869 291 869 291 899 c 0,56,57
 291 905 291 905 292 911 c 0,58,59
 301 952 301 952 347 952 c 1,60,61
 410 955 410 955 476 972 c 128,-1,62
 542 989 542 989 648 1022 c 1,63,-1
 616 885 l 1,64,65
 638 892 638 892 683.5 908 c 128,-1,66
 729 924 729 924 801.5 947.5 c 128,-1,67
 874 971 874 971 933.5 976.5 c 128,-1,68
 993 982 993 982 1007 982 c 0,0,1
EndSplineSet
Validated: 1
EndChar

StartChar: o
Encoding: 111 111 66
Width: 1107
Flags: W
LayerCount: 2
Fore
SplineSet
1201 459 m 2,0,1
 1153 252 1153 252 970.5 106.5 c 128,-1,2
 788 -39 788 -39 568 -45 c 1,3,-1
 552 -45 l 2,4,5
 348 -45 348 -45 251.5 83 c 128,-1,6
 155 211 155 211 155 345 c 0,7,8
 155 401 155 401 169 462 c 2,9,-1
 169 465 l 1,10,11
 222 691 222 691 428 846 c 0,12,13
 456 867 456 867 499.5 881 c 128,-1,14
 543 895 543 895 607 916.5 c 128,-1,15
 671 938 671 938 729 957 c 128,-1,16
 787 976 787 976 824 976 c 2,17,-1
 828 976 l 1,18,19
 1033 968 1033 968 1124 841 c 128,-1,20
 1215 714 1215 714 1215 581 c 0,21,22
 1215 526 1215 526 1202 465 c 1,23,-1
 1201 459 l 2,0,1
770 869 m 2,24,25
 667 869 667 869 560.5 760 c 128,-1,26
 454 651 454 651 415 481 c 256,27,28
 399 410 399 410 399 347 c 0,29,30
 399 260 399 260 442 164 c 128,-1,31
 485 68 485 68 595 63 c 1,32,-1
 608 63 l 2,33,34
 710 63 710 63 815.5 171.5 c 128,-1,35
 921 280 921 280 960 450 c 256,36,37
 976 521 976 521 976 583 c 0,38,39
 976 670 976 670 932.5 766.5 c 128,-1,40
 889 863 889 863 781 869 c 1,41,-1
 770 869 l 2,24,25
EndSplineSet
Validated: 1
EndChar

StartChar: p
Encoding: 112 112 67
Width: 1197
Flags: W
LayerCount: 2
Fore
SplineSet
1292 572 m 0,0,1
 1287 531 1287 531 1276 484 c 0,2,3
 1265 436 1265 436 1238.5 366.5 c 128,-1,4
 1212 297 1212 297 1154 229.5 c 128,-1,5
 1096 162 1096 162 1043.5 128 c 128,-1,6
 991 94 991 94 958 82 c 0,7,8
 767 16 767 16 675.5 -14.5 c 128,-1,9
 584 -45 584 -45 563 -45 c 2,10,-1
 558 -45 l 1,11,12
 496 -42 496 -42 437 -23 c 1,13,-1
 340 -440 l 2,14,15
 338 -450 338 -450 338 -459 c 0,16,17
 338 -494 338 -494 375.5 -509 c 128,-1,18
 413 -524 413 -524 413 -554 c 0,19,20
 413 -560 413 -560 411 -566 c 0,21,22
 402 -606 402 -606 357 -606 c 2,23,-1
 18 -606 l 2,24,25
 -20 -606 -20 -606 -20 -578 c 0,26,27
 -20 -572 -20 -572 -19 -566 c 0,28,29
 -10 -527 -10 -527 44.5 -509 c 128,-1,30
 99 -491 99 -491 110 -440 c 2,31,-1
 393 786 l 2,32,33
 395 796 395 796 396 805 c 0,34,35
 396 840 396 840 358.5 854.5 c 128,-1,36
 321 869 321 869 321 899 c 0,37,38
 321 905 321 905 322 911 c 0,39,40
 331 952 331 952 377 952 c 1,41,42
 440 955 440 955 506 972 c 128,-1,43
 572 989 572 989 678 1022 c 1,44,-1
 645 879 l 1,45,-1
 892 963 l 2,46,47
 927 975 927 975 947.5 976 c 128,-1,48
 968 977 968 977 969 977 c 2,49,-1
 978 977 l 1,50,51
 988 976 988 976 999 976 c 0,52,53
 1150 969 1150 969 1235 852 c 1,54,55
 1297 761 1297 761 1297 641 c 0,56,57
 1297 607 1297 607 1292 572 c 0,0,1
656 76 m 2,58,59
 667 76 667 76 695 85.5 c 128,-1,60
 723 95 723 95 761.5 108 c 128,-1,61
 800 121 800 121 829 131 c 128,-1,62
 858 141 858 141 875 155 c 0,63,64
 945 216 945 216 982.5 295.5 c 128,-1,65
 1020 375 1020 375 1030 421 c 0,66,67
 1040 466 1040 466 1044 488 c 0,68,69
 1050 527 1050 527 1050 562 c 0,70,71
 1050 567 1050 567 1050 572 c 0,72,73
 1050 654 1050 654 1013.5 726.5 c 128,-1,74
 977 799 977 799 892 825 c 0,75,76
 858 835 858 835 837 835 c 0,77,78
 814 835 814 835 799 833.5 c 128,-1,79
 784 832 784 832 758.5 823.5 c 128,-1,80
 733 815 733 815 687 799.5 c 128,-1,81
 641 784 641 784 621 777 c 1,82,-1
 478 158 l 1,83,84
 505 130 505 130 556 103.5 c 128,-1,85
 607 77 607 77 650 76 c 1,86,-1
 656 76 l 2,58,59
EndSplineSet
Validated: 1
EndChar

StartChar: q
Encoding: 113 113 68
Width: 1173
Flags: W
LayerCount: 2
Fore
SplineSet
504 -45 m 2,0,-1
 461 -45 l 1,1,2
 308 -37 308 -37 236 65 c 128,-1,3
 164 167 164 167 164 287 c 0,4,5
 164 321 164 321 169 358 c 0,6,7
 175 401 175 401 185 448 c 0,8,9
 196 494 196 494 221.5 562.5 c 128,-1,10
 247 631 247 631 306 700 c 128,-1,11
 365 769 365 769 417 802.5 c 128,-1,12
 469 836 469 836 530 857 c 128,-1,13
 591 878 591 878 678 908 c 128,-1,14
 765 938 765 938 821 957 c 128,-1,15
 877 976 877 976 898 976 c 2,16,-1
 903 976 l 1,17,18
 971 973 971 973 1016.5 957 c 128,-1,19
 1062 941 1062 941 1063 940.5 c 128,-1,20
 1064 940 1064 940 1085 940 c 1,21,-1
 1083 930 l 1,22,23
 1090 927 1090 927 1107 921.5 c 128,-1,24
 1124 916 1124 916 1129 916 c 0,25,26
 1133 916 1133 916 1147 925.5 c 128,-1,27
 1161 935 1161 935 1174 948.5 c 128,-1,28
 1187 962 1187 962 1203 962 c 256,29,30
 1219 962 1219 962 1238.5 954.5 c 128,-1,31
 1258 947 1258 947 1258 930 c 0,32,33
 1258 925 1258 925 1256 920 c 2,34,-1
 942 -440 l 2,35,36
 940 -450 940 -450 940 -459 c 0,37,38
 940 -494 940 -494 977.5 -509 c 128,-1,39
 1015 -524 1015 -524 1015 -554 c 0,40,41
 1015 -560 1015 -560 1013 -566 c 0,42,43
 1004 -606 1004 -606 958 -606 c 2,44,-1
 619 -606 l 2,45,46
 581 -606 581 -606 581 -578 c 0,47,48
 581 -572 581 -572 582 -566 c 0,49,50
 591 -527 591 -527 645.5 -509 c 128,-1,51
 700 -491 700 -491 711 -440 c 2,52,-1
 826 55 l 1,53,-1
 569 -32 l 2,54,55
 531 -45 531 -45 504 -45 c 2,0,-1
807 854 m 2,56,57
 792 854 792 854 765 844.5 c 128,-1,58
 738 835 738 835 699 821.5 c 128,-1,59
 660 808 660 808 631 798 c 128,-1,60
 602 788 602 788 586 775 c 0,61,62
 514 713 514 713 477 633.5 c 128,-1,63
 440 554 440 554 430 510 c 0,64,65
 420 465 420 465 416 442 c 0,66,67
 409 396 409 396 409 356 c 0,68,69
 409 275 409 275 444.5 203 c 128,-1,70
 480 131 480 131 567 105 c 0,71,72
 600 95 600 95 623 95 c 256,73,74
 646 95 646 95 661 96.5 c 128,-1,75
 676 98 676 98 702 106.5 c 128,-1,76
 728 115 728 115 779.5 132.5 c 128,-1,77
 831 150 831 150 849 157 c 1,78,-1
 989 764 l 1,79,80
 963 793 963 793 909 822.5 c 128,-1,81
 855 852 855 852 810 854 c 1,82,-1
 807 854 l 2,56,57
EndSplineSet
Validated: 1
EndChar

StartChar: r
Encoding: 114 114 69
Width: 831
Flags: W
LayerCount: 2
Fore
SplineSet
590 595 m 1,0,-1
 487 146 l 2,1,2
 484 135 484 135 484 126 c 0,3,4
 484 91 484 91 521 76.5 c 128,-1,5
 558 62 558 62 558 33 c 0,6,7
 558 27 558 27 557 21 c 0,8,9
 548 -20 548 -20 502 -20 c 2,10,-1
 163 -20 l 2,11,12
 125 -20 125 -20 125 8 c 0,13,14
 125 14 125 14 127 21 c 0,15,16
 136 59 136 59 190 76.5 c 128,-1,17
 244 94 244 94 256 146 c 2,18,-1
 403 786 l 2,19,20
 405 796 405 796 406 805 c 0,21,22
 406 840 406 840 368.5 854.5 c 128,-1,23
 331 869 331 869 331 899 c 0,24,25
 331 905 331 905 332 911 c 0,26,27
 341 952 341 952 387 952 c 1,28,29
 450 955 450 955 516 972 c 128,-1,30
 582 989 582 989 689 1022 c 1,31,-1
 659 892 l 1,32,-1
 772 931 l 2,33,34
 856 960 856 960 903 975 c 1,35,36
 922 980 922 980 944 980 c 0,37,38
 986 980 986 980 1058 953 c 1,39,-1
 967 669 l 1,40,-1
 878 669 l 1,41,42
 873 815 873 815 782 815 c 0,43,44
 772 815 772 815 763 814 c 0,45,46
 700 807 700 807 657 745.5 c 128,-1,47
 614 684 614 684 590 595 c 1,0,-1
EndSplineSet
Validated: 1
EndChar

StartChar: s
Encoding: 115 115 70
Width: 884
Flags: W
LayerCount: 2
Fore
SplineSet
908 659 m 2,0,-1
 904 659 l 1,1,2
 875 661 875 661 869 696 c 1,3,4
 851 767 851 767 798 813 c 128,-1,5
 745 859 745 859 676 862 c 1,6,-1
 672 862 l 2,7,8
 618 862 618 862 558.5 834.5 c 128,-1,9
 499 807 499 807 474 750 c 0,10,11
 464 729 464 729 461 713 c 0,12,13
 459 703 459 703 458 694 c 0,14,15
 458 656 458 656 503 631 c 128,-1,16
 548 606 548 606 653.5 581 c 128,-1,17
 759 556 759 556 849 509.5 c 128,-1,18
 939 463 939 463 939 352 c 0,19,20
 939 320 939 320 932 283 c 1,21,-1
 930 273 l 2,22,23
 912 194 912 194 829.5 111.5 c 128,-1,24
 747 29 747 29 638.5 -5.5 c 128,-1,25
 530 -40 530 -40 435 -43 c 1,26,-1
 407 -43 l 2,27,28
 280 -43 280 -43 161 -6 c 1,29,-1
 128 227 l 1,30,-1
 137 251 l 1,31,32
 148 284 148 284 188 284 c 2,33,-1
 193 284 l 1,34,35
 218 279 218 279 226 247 c 1,36,37
 247 153 247 153 299 115.5 c 128,-1,38
 351 78 351 78 444 75 c 1,39,-1
 455 75 l 2,40,41
 521 75 521 75 607.5 106 c 128,-1,42
 694 137 694 137 715 218 c 1,43,-1
 717 224 l 2,44,45
 721 242 721 242 721 258 c 0,46,47
 721 323 721 323 640.5 347.5 c 128,-1,48
 560 372 560 372 474.5 397.5 c 128,-1,49
 389 423 389 423 321 477.5 c 128,-1,50
 253 532 253 532 253 611 c 0,51,52
 253 639 253 639 260 672 c 2,53,-1
 261 677 l 1,54,55
 300 842 300 842 439 910.5 c 128,-1,56
 578 979 578 979 717 979 c 0,57,58
 731 979 731 979 743 978 c 0,59,60
 895 970 895 970 1023 878 c 1,61,-1
 957 692 l 2,62,63
 945 659 945 659 908 659 c 2,0,-1
EndSplineSet
Validated: 1
EndChar

StartChar: t
Encoding: 116 116 71
Width: 682
Flags: W
LayerCount: 2
Fore
SplineSet
303 820 m 1,0,1
 265 820 265 820 266 850 c 0,2,3
 266 855 266 855 267 860 c 1,4,-1
 267 862 l 2,5,6
 273 889 273 889 309 904 c 0,7,8
 330 913 330 913 374 934 c 128,-1,9
 418 955 418 955 432 960 c 0,10,11
 437 962 437 962 437 963 c 0,12,13
 437 965 437 965 430 965 c 1,14,-1
 465 1116 l 2,15,16
 478 1173 478 1173 508.5 1196.5 c 128,-1,17
 539 1220 539 1220 600 1246.5 c 128,-1,18
 661 1273 661 1273 684 1273 c 0,19,20
 723 1273 723 1273 723 1242 c 0,21,22
 723 1235 723 1235 721 1227 c 2,23,-1
 662 969 l 1,24,-1
 877 973 l 2,25,26
 911 973 911 973 911 951 c 0,27,28
 911 947 911 947 910 943 c 0,29,30
 903 912 903 912 893 890 c 0,31,32
 864 826 864 826 809 826 c 2,33,-1
 629 827 l 1,34,-1
 489 220 l 2,35,36
 484 197 484 197 483 177 c 0,37,38
 483 127 483 127 523.5 92.5 c 128,-1,39
 564 58 564 58 622 50 c 1,40,-1
 606 -19 l 1,41,42
 428 -19 428 -19 339 7 c 128,-1,43
 250 33 250 33 250 138 c 0,44,45
 250 185 250 185 265 250 c 2,46,-1
 397 824 l 1,47,-1
 303 820 l 1,0,1
EndSplineSet
Validated: 1
EndChar

StartChar: u
Encoding: 117 117 72
Width: 1239
Flags: W
LayerCount: 2
Fore
SplineSet
1124 146 m 2,0,1
 1122 135 1122 135 1121 126 c 0,2,3
 1121 90 1121 90 1158.5 76 c 128,-1,4
 1196 62 1196 62 1196 33 c 0,5,6
 1196 27 1196 27 1195 21 c 0,7,8
 1186 -20 1186 -20 1139 -20 c 2,9,-1
 896 -20 l 2,10,11
 854 -20 854 -20 862 13 c 2,12,-1
 870 46 l 1,13,14
 849 39 849 39 802 22.5 c 128,-1,15
 755 6 755 6 714 -7 c 0,16,17
 612 -39 612 -39 509 -49 c 0,18,19
 493 -50 493 -50 478 -50 c 0,20,21
 385 -50 385 -50 318 11 c 1,22,23
 254 70 254 70 254 206 c 0,24,25
 254 298 254 298 283 425 c 2,26,-1
 366 786 l 2,27,28
 368 796 368 796 369 805 c 0,29,30
 369 840 369 840 331.5 854.5 c 128,-1,31
 294 869 294 869 294 899 c 0,32,33
 294 905 294 905 295 911 c 0,34,35
 304 952 304 952 350 952 c 1,36,37
 413 955 413 955 479 972 c 128,-1,38
 545 989 545 989 652 1022 c 1,39,-1
 514 425 l 2,40,41
 493 334 493 334 493 267 c 0,42,43
 493 177 493 177 531 130 c 0,44,45
 570 80 570 80 642 80 c 0,46,47
 685 80 685 80 744 98 c 0,48,49
 764 104 764 104 801 117 c 128,-1,50
 838 130 838 130 863 139 c 0,51,52
 869 141 869 141 881 145 c 2,53,-1
 893 149 l 1,54,-1
 1040 786 l 2,55,56
 1042 796 1042 796 1043 805 c 0,57,58
 1043 840 1043 840 1005.5 854.5 c 128,-1,59
 968 869 968 869 968 899 c 0,60,61
 968 905 968 905 969 911 c 0,62,63
 978 952 978 952 1024 952 c 1,64,65
 1087 955 1087 955 1153 972 c 128,-1,66
 1219 989 1219 989 1326 1022 c 1,67,-1
 1124 146 l 2,0,1
EndSplineSet
Validated: 1
EndChar

StartChar: v
Encoding: 118 118 73
Width: 1098
Flags: W
LayerCount: 2
Fore
SplineSet
591 811 m 2,0,-1
 695 229 l 1,1,-1
 1015 723 l 2,2,3
 1027 741 1027 741 1031 758 c 0,4,5
 1038 787 1038 787 1020 815 c 2,6,-1
 988 868 l 1,7,-1
 1111 949 l 1,8,9
 1126 962 1126 962 1143 962 c 0,10,11
 1162 962 1162 962 1174 946 c 2,12,-1
 1217 889 l 2,13,14
 1228 873 1228 873 1229 853 c 0,15,16
 1229 844 1229 844 1226 833 c 0,17,18
 1222 816 1222 816 1210 794 c 0,19,20
 1183 746 1183 746 1136 681 c 1,21,-1
 671 -5 l 2,22,23
 662 -17 662 -17 653 -26 c 1,24,25
 637 -39 637 -39 619 -39 c 2,26,-1
 535 -39 l 2,27,28
 513 -39 513 -39 506 -24 c 1,29,30
 502 -19 502 -19 500.5 -4.5 c 128,-1,31
 499 10 499 10 498 15 c 2,32,-1
 351 794 l 2,33,34
 344 826 344 826 322 844 c 0,35,36
 307 856 307 856 287.5 865.5 c 128,-1,37
 268 875 268 875 257 884 c 0,38,39
 248 891 248 891 242 907 c 1,40,41
 242 915 242 915 243 920 c 256,42,43
 244 925 244 925 248 933 c 1,44,45
 263 951 263 951 288 951 c 2,46,-1
 616 951 l 2,47,48
 631 951 631 951 645 941 c 1,49,50
 656 930 656 930 659 919 c 1,51,52
 659 912 659 912 659 908 c 0,53,54
 655 892 655 892 635 877 c 0,55,56
 599 850 599 850 596 844 c 256,57,58
 593 838 593 838 591 830 c 0,59,60
 588 821 588 821 591 811 c 2,0,-1
EndSplineSet
Validated: 1
EndChar

StartChar: w
Encoding: 119 119 74
Width: 1647
Flags: W
LayerCount: 2
Fore
SplineSet
1626 723 m 2,0,1
 1638 741 1638 741 1643 764 c 256,2,3
 1648 787 1648 787 1631 815 c 2,4,-1
 1599 867 l 1,5,-1
 1720 949 l 1,6,7
 1735 961 1735 961 1754 961 c 0,8,9
 1772 961 1772 961 1785 947 c 1,10,-1
 1828 889 l 2,11,12
 1840 872 1840 872 1841 854 c 0,13,14
 1841 848 1841 848 1839 841 c 256,15,16
 1833 816 1833 816 1813.5 781 c 128,-1,17
 1794 746 1794 746 1747 681 c 1,18,-1
 1282 -5 l 2,19,20
 1273 -18 1273 -18 1261 -28.5 c 128,-1,21
 1249 -39 1249 -39 1230 -39 c 2,22,-1
 1146 -39 l 2,23,24
 1125 -39 1125 -39 1119.5 -28.5 c 128,-1,25
 1114 -18 1114 -18 1112 -4.5 c 128,-1,26
 1110 9 1110 9 1108 14 c 2,27,-1
 1016 504 l 1,28,-1
 671 -5 l 2,29,30
 662 -18 662 -18 650 -28.5 c 128,-1,31
 638 -39 638 -39 619 -39 c 2,32,-1
 535 -39 l 2,33,34
 514 -39 514 -39 508.5 -28.5 c 128,-1,35
 503 -18 503 -18 501 -4 c 128,-1,36
 499 10 499 10 498 15 c 2,37,-1
 351 794 l 2,38,39
 344 826 344 826 325 841 c 128,-1,40
 306 856 306 856 287.5 865 c 128,-1,41
 269 874 269 874 258 883 c 128,-1,42
 247 892 247 892 245 901 c 128,-1,43
 243 910 243 910 243 915 c 0,44,45
 243 922 243 922 248 933 c 1,46,47
 263 951 263 951 288 951 c 2,48,-1
 616 951 l 2,49,50
 631 951 631 951 645 941 c 1,51,52
 656 929 656 929 658 921 c 128,-1,53
 660 913 660 913 657 903 c 0,54,55
 654 892 654 892 626.5 871 c 128,-1,56
 599 850 599 850 595.5 844 c 128,-1,57
 592 838 592 838 591 830 c 0,58,59
 589 821 589 821 591 811 c 2,60,-1
 695 229 l 1,61,-1
 985 676 l 1,62,-1
 962 794 l 2,63,64
 955 826 955 826 936 841 c 128,-1,65
 917 856 917 856 898.5 865 c 128,-1,66
 880 874 880 874 867 884.5 c 128,-1,67
 854 895 854 895 853.5 905 c 128,-1,68
 853 915 853 915 854 920 c 256,69,70
 855 925 855 925 859 933 c 1,71,72
 874 951 874 951 899 951 c 2,73,-1
 1227 951 l 2,74,75
 1242 951 1242 951 1256 941 c 1,76,77
 1267 929 1267 929 1269 921 c 128,-1,78
 1271 913 1271 913 1268 903 c 0,79,80
 1265 892 1265 892 1237.5 871 c 128,-1,81
 1210 850 1210 850 1206.5 844 c 128,-1,82
 1203 838 1203 838 1202 830 c 0,83,84
 1200 821 1200 821 1202 811 c 2,85,-1
 1306 229 l 1,86,-1
 1626 723 l 2,0,1
EndSplineSet
Validated: 1
EndChar

StartChar: x
Encoding: 120 120 75
Width: 1098
Flags: W
LayerCount: 2
Fore
SplineSet
192 108 m 2,0,-1
 548 448 l 1,1,-1
 377 823 l 2,2,3
 368 842 368 842 341 858 c 0,4,5
 324 868 324 868 307.5 875 c 128,-1,6
 291 882 291 882 279 890 c 0,7,8
 250 909 250 909 254 924 c 0,9,10
 260 949 260 949 300 949 c 2,11,-1
 622 949 l 2,12,13
 651 949 651 949 664 925 c 0,14,15
 668 916 668 916 665 906 c 0,16,17
 661 890 661 890 639 879 c 0,18,19
 633 876 633 876 631 868 c 0,20,21
 629 858 629 858 635 846 c 2,22,-1
 736 626 l 1,23,-1
 924 807 l 2,24,25
 1042 919 1042 919 1074 942 c 1,26,27
 1093 957 1093 957 1121 957 c 0,28,29
 1152 957 1152 957 1192 934 c 2,30,-1
 1248 900 l 1,31,32
 1262 890 1262 890 1262 876 c 0,33,34
 1262 872 1262 872 1261 869 c 0,35,36
 1259 860 1259 860 1251 851 c 2,37,-1
 1160 724 l 1,38,39
 1106 757 1106 757 1078 772 c 0,40,41
 1076 773 1076 773 1075 773 c 0,42,43
 1065 773 1065 773 1038 747 c 2,44,-1
 789 509 l 1,45,-1
 973 106 l 2,46,47
 983 83 983 83 1014 69 c 0,48,49
 1027 62 1027 62 1041 55 c 128,-1,50
 1055 48 1055 48 1070 40 c 1,51,52
 1099 20 1099 20 1096 5 c 0,53,54
 1090 -20 1090 -20 1050 -20 c 2,55,-1
 728 -20 l 2,56,57
 699 -20 699 -20 687 4 c 1,58,59
 683 14 683 14 685 22 c 0,60,61
 688 37 688 37 711 50 c 0,62,63
 717 53 717 53 719 61 c 1,64,-1
 719 62 l 2,65,66
 721 71 721 71 715 84 c 2,67,-1
 602 331 l 1,68,-1
 345 87 l 1,69,70
 325 66 325 66 323 55 c 2,71,-1
 322 52 l 2,72,73
 320 44 320 44 322 39 c 1,74,75
 323 31 323 31 322 26 c 0,76,77
 319 14 319 14 309 4 c 1,78,79
 287 -20 287 -20 262 -20 c 2,80,-1
 54 -20 l 2,81,82
 24 -20 24 -20 24 -2 c 0,83,84
 24 1 24 1 25 5 c 0,85,86
 27 15 27 15 38 25 c 0,87,88
 61 47 61 47 106.5 58 c 128,-1,89
 152 69 152 69 192 108 c 2,0,-1
EndSplineSet
Validated: 1
EndChar

StartChar: y
Encoding: 121 121 76
Width: 1036
Flags: W
LayerCount: 2
Fore
SplineSet
274 871.5 m 128,-1,1
 246 884 246 884 243.5 899.5 c 128,-1,2
 241 915 241 915 245 933 c 256,3,4
 249 951 249 951 288 951 c 2,5,-1
 616 951 l 2,6,7
 652 951 652 951 656.5 931.5 c 128,-1,8
 661 912 661 912 659 905 c 0,9,10
 654 882 654 882 630 871 c 128,-1,11
 606 860 606 860 599 848.5 c 128,-1,12
 592 837 592 837 590 829 c 256,13,14
 588 821 588 821 591 811 c 2,15,-1
 695 229 l 1,16,-1
 1015 723 l 2,17,18
 1027 741 1027 741 1032 764 c 256,19,20
 1037 787 1037 787 1020 815 c 2,21,-1
 988 868 l 1,22,-1
 1111 949 l 1,23,24
 1126 962 1126 962 1144 962 c 256,25,26
 1162 962 1162 962 1174 946 c 2,27,-1
 1217 889 l 2,28,29
 1229 872 1229 872 1230 854 c 0,30,31
 1230 848 1230 848 1228 841 c 256,32,33
 1222 816 1222 816 1202.5 781 c 128,-1,34
 1183 746 1183 746 1136 681 c 1,35,-1
 388 -421 l 1,36,37
 342 -487 342 -487 303 -536.5 c 128,-1,38
 264 -586 264 -586 210 -586 c 1,39,-1
 125 -583 l 1,40,41
 92 -577 92 -577 92 -553 c 0,42,43
 92 -549 92 -549 93 -544 c 1,44,-1
 117 -411 l 1,45,-1
 194 -409 l 2,46,47
 245 -407 245 -407 277 -363 c 2,48,-1
 508 -39 l 1,49,50
 512 -39 512 -39 512 -37 c 0,51,52
 513 -34 513 -34 509 -29 c 0,53,54
 502 -19 502 -19 500.5 -4.5 c 128,-1,55
 499 10 499 10 498 15 c 2,56,-1
 351 794 l 2,57,58
 344 826 344 826 323 842.5 c 128,-1,0
 302 859 302 859 274 871.5 c 128,-1,1
EndSplineSet
Validated: 1
EndChar

StartChar: z
Encoding: 122 122 77
Width: 1019
Flags: W
LayerCount: 2
Fore
SplineSet
1179 869 m 2,0,-1
 387 99 l 1,1,-1
 775 99 l 1,2,3
 815 101 815 101 852 129.5 c 128,-1,4
 889 158 889 158 945 217 c 1,5,6
 988 261 988 261 1009 261 c 0,7,8
 1052 261 1052 261 1043 223 c 2,9,-1
 1007 65 l 2,10,11
 993 6 993 6 968.5 -7 c 128,-1,12
 944 -20 944 -20 865 -20 c 2,13,-1
 180 -21 l 1,14,15
 103 -20 103 -20 77 -11 c 1,16,17
 55 -5 55 -5 55 12 c 0,18,19
 55 17 55 17 56 21 c 0,20,21
 60 38 60 38 85 62 c 2,22,-1
 873 841 l 1,23,-1
 566 841 l 2,24,25
 526 841 526 841 492 812.5 c 128,-1,26
 458 784 458 784 404 726 c 1,27,28
 361 683 361 683 340 683 c 0,29,30
 296 683 296 683 304 720 c 2,31,-1
 341 879 l 2,32,33
 353 933 353 933 381 949 c 128,-1,34
 409 965 409 965 484 965 c 2,35,-1
 1106 965 l 2,36,37
 1209 965 1209 965 1209 922 c 0,38,39
 1209 918 1209 918 1208 913 c 0,40,41
 1204 893 1204 893 1179 869 c 2,0,-1
EndSplineSet
Validated: 1
EndChar

StartChar: braceleft
Encoding: 123 123 78
Width: 1024
Flags: W
LayerCount: 2
Fore
SplineSet
318 593 m 0,0,1
 288 595 288 595 281 614 c 1,2,3
 277 621 277 621 277 630 c 0,4,5
 277 636 277 636 278 643 c 0,6,7
 279 648 279 648 282 655 c 0,8,9
 295 687 295 687 340 693 c 1,10,11
 485 705 485 705 546 758 c 0,12,13
 582 790 582 790 605.5 847.5 c 128,-1,14
 629 905 629 905 642 961 c 2,15,-1
 691 1173 l 2,16,17
 708 1246 708 1246 741.5 1326 c 128,-1,18
 775 1406 775 1406 838 1456 c 0,19,20
 937 1536 937 1536 1154 1536 c 0,21,22
 1187 1536 1187 1536 1198 1517 c 1,23,24
 1205 1502 1205 1502 1205 1490 c 0,25,26
 1205 1486 1205 1486 1204 1482 c 0,27,28
 1196 1446 1196 1446 1141 1446 c 0,29,30
 1021 1444 1021 1444 970 1399 c 1,31,32
 937 1371 937 1371 915.5 1313.5 c 128,-1,33
 894 1256 894 1256 882 1204 c 2,34,-1
 849 1061 l 2,35,36
 831 983 831 983 799 892 c 128,-1,37
 767 801 767 801 716 746 c 0,38,39
 632 656 632 656 561 642 c 1,40,41
 625 628 625 628 668 539 c 1,42,43
 686 499 686 499 686 441 c 0,44,45
 686 418 686 418 680 360 c 128,-1,46
 674 302 674 302 655 223 c 2,47,-1
 622 80 l 2,48,49
 605 5 605 5 605 -45 c 0,50,51
 605 -92 605 -92 621 -114 c 0,52,53
 652 -158 652 -158 770 -160 c 0,54,55
 804 -160 804 -160 809 -190 c 0,56,57
 810 -199 810 -199 808 -207 c 0,58,59
 805 -220 805 -220 792 -234 c 1,60,61
 773 -251 773 -251 741 -251 c 0,62,63
 527 -251 527 -251 463 -171 c 0,64,65
 426 -125 426 -125 425 -53 c 0,66,67
 425 -47 425 -47 427 -4.5 c 128,-1,68
 429 38 429 38 446 112 c 2,69,-1
 495 323 l 2,70,71
 508 379 508 379 509.5 412 c 128,-1,72
 511 445 511 445 511 452 c 0,73,74
 511 501 511 501 492 529 c 1,75,76
 469 560 469 560 419 574.5 c 128,-1,77
 369 589 369 589 318 593 c 0,0,1
EndSplineSet
Validated: 1
EndChar

StartChar: bar
Encoding: 124 124 79
Width: 1024
Flags: W
LayerCount: 2
Fore
SplineSet
799 1510 m 1,0,-1
 990 1510 l 1,1,-1
 584 -247 l 1,2,-1
 393 -247 l 1,3,-1
 799 1510 l 1,0,-1
EndSplineSet
Validated: 1
EndChar

StartChar: asciitilde
Encoding: 126 126 80
Width: 1024
Flags: W
LayerCount: 2
Fore
SplineSet
1178 722 m 0,0,1
 1088 605 1088 605 1018 552 c 0,2,3
 936 490 936 490 860 490 c 0,4,5
 739 490 739 490 617 578 c 0,6,7
 559 620 559 620 500 620 c 0,8,9
 456 620 456 620 410 595 c 0,10,11
 396 587 396 587 378 577 c 128,-1,12
 360 567 360 567 338 551 c 0,13,14
 298 520 298 520 264 482 c 0,15,16
 245 461 245 461 220 461 c 0,17,18
 204 461 204 461 191 471 c 1,19,20
 174 481 174 481 174 497 c 0,21,22
 174 501 174 501 175 506 c 0,23,24
 178 520 178 520 193 538 c 0,25,26
 257 610 257 610 327.5 691.5 c 128,-1,27
 398 773 398 773 515 773 c 0,28,29
 650 773 650 773 765 681 c 0,30,31
 817 639 817 639 877 639 c 0,32,33
 928 639 928 639 986 670 c 1,34,35
 1043 699 1043 699 1097 769 c 0,36,37
 1117 793 1117 793 1146 793 c 0,38,39
 1154 793 1154 793 1159 791 c 1,40,41
 1190 786 1190 786 1190 759 c 0,42,43
 1190 751 1190 751 1189 745 c 0,44,45
 1187 735 1187 735 1178 722 c 0,0,1
EndSplineSet
Validated: 1
EndChar

StartChar: cent
Encoding: 162 162 81
Width: 925
Flags: W
LayerCount: 2
Fore
SplineSet
790 1135 m 1,0,-1
 924 1135 l 1,1,-1
 887 973 l 1,2,3
 1023 958 1023 958 1129 877 c 1,4,-1
 1070 697 l 1,5,6
 1058 666 1058 666 1026 666 c 2,7,-1
 1023 666 l 1,8,9
 994 668 994 668 988 700 c 0,10,11
 970 782 970 782 919 816 c 0,12,13
 892 834 892 834 856 842 c 1,14,-1
 683 92 l 1,15,16
 753 100 753 100 819 134 c 0,17,18
 903 178 903 178 924 179 c 0,19,20
 946 179 946 179 967 175 c 1,21,22
 970 156 970 156 967 142 c 0,23,24
 964 127 964 127 941 99 c 0,25,26
 919 71 919 71 893 51 c 1,27,28
 789 -20 789 -20 653 -39 c 1,29,-1
 608 -232 l 1,30,-1
 474 -232 l 1,31,-1
 518 -44 l 1,32,33
 349 -34 349 -34 250 64 c 1,34,35
 164 154 164 154 164 300 c 0,36,37
 164 367 164 367 182 446 c 0,38,39
 195 502 195 502 217 565 c 1,40,41
 315 795 315 795 536 907 c 0,42,43
 638 958 638 958 752 972 c 1,44,-1
 790 1135 l 1,0,-1
723 846 m 1,45,46
 649 835 649 835 602 797 c 1,47,48
 479 702 479 702 437 519 c 0,49,50
 431 491 431 491 426 459 c 0,51,52
 418 411 418 411 418 368 c 0,53,54
 418 284 418 284 449 224 c 1,55,56
 492 143 492 143 553 110 c 1,57,-1
 723 846 l 1,45,46
EndSplineSet
Validated: 1
EndChar

StartChar: sterling
Encoding: 163 163 82
Width: 1024
Flags: W
LayerCount: 2
Fore
SplineSet
147 108 m 0,0,1
 143 92 143 92 143 81 c 0,2,3
 143 49 143 49 171 49 c 0,4,5
 210 49 210 49 238 87.5 c 128,-1,6
 266 126 266 126 285 159 c 1,7,8
 268 181 268 181 241 181 c 0,9,10
 164 181 164 181 147 108 c 0,0,1
275 804 m 2,11,-1
 424 804 l 1,12,13
 431 861 431 861 446 928 c 0,14,15
 459 986 459 986 477 1035 c 0,16,17
 518 1157 518 1157 584 1245 c 0,18,19
 747 1463 747 1463 1001 1463 c 0,20,21
 1078 1463 1078 1463 1141.5 1424.5 c 128,-1,22
 1205 1386 1205 1386 1225 1315 c 0,23,24
 1230 1295 1230 1295 1230 1273 c 0,25,26
 1230 1256 1230 1256 1227 1238 c 1,27,-1
 1225 1230 l 2,28,29
 1215 1188 1215 1188 1176 1156 c 0,30,31
 1135 1123 1135 1123 1095 1123 c 0,32,33
 1060 1123 1060 1123 1033 1151 c 1,34,35
 1009 1172 1009 1172 1009 1210 c 0,36,37
 1009 1216 1009 1216 1011.5 1243.5 c 128,-1,38
 1014 1271 1014 1271 1017 1300 c 0,39,40
 1017 1303 1017 1303 1017 1306 c 0,41,42
 1017 1355 1017 1355 963 1363 c 0,43,44
 947 1365 947 1365 933 1365 c 0,45,46
 889 1365 889 1365 853 1340 c 0,47,48
 786 1292 786 1292 755 1223.5 c 128,-1,49
 724 1155 724 1155 706 1079 c 0,50,51
 689 1005 689 1005 678.5 931.5 c 128,-1,52
 668 858 668 858 660 804 c 1,53,-1
 898 804 l 2,54,55
 938 804 938 804 930 769 c 2,56,-1
 913 699 l 2,57,58
 905 664 905 664 865 664 c 2,59,-1
 636 664 l 1,60,61
 634 650 634 650 626 615 c 256,62,63
 618 580 618 580 608 544 c 0,64,65
 583 461 583 461 546.5 386.5 c 128,-1,66
 510 312 510 312 482 249 c 1,67,68
 515 236 515 236 564 218 c 128,-1,69
 613 200 613 200 665 186 c 0,70,71
 720 172 720 172 768 172 c 0,72,73
 806 172 806 172 841 181 c 0,74,75
 912 199 912 199 966 260 c 0,76,77
 981 276 981 276 991.5 305 c 128,-1,78
 1002 334 1002 334 1052 334 c 0,79,80
 1089 334 1089 334 1089 305 c 0,81,82
 1089 299 1089 299 1087 291 c 0,83,84
 1079 255 1079 255 1060 224 c 128,-1,85
 1041 193 1041 193 1023 164 c 0,86,87
 961 64 961 64 859 2 c 1,88,89
 768 -51 768 -51 680 -51 c 0,90,91
 668 -51 668 -51 656 -50 c 0,92,93
 560 -42 560 -42 490 14 c 0,94,95
 474 27 474 27 427 62 c 2,96,-1
 382 95 l 1,97,98
 325 31 325 31 241 -25 c 1,99,100
 198 -52 198 -52 153 -52 c 0,101,102
 128 -52 128 -52 105 -43 c 0,103,104
 40 -20 40 -20 28 39 c 0,105,106
 26 49 26 49 26 59 c 0,107,108
 26 74 26 74 30 90 c 0,109,110
 36 116 36 116 53 147 c 1,111,112
 86 211 86 211 131 242 c 0,113,114
 197 286 197 286 248 286 c 2,115,-1
 255 286 l 1,116,117
 297 283 297 283 329 281 c 1,118,119
 340 310 340 310 350 357 c 2,120,-1
 357 387 l 1,121,122
 368 448 368 448 381 510 c 1,123,124
 394 584 394 584 404 664 c 1,125,-1
 242 664 l 2,126,127
 202 664 202 664 210 699 c 2,128,-1
 227 769 l 2,129,130
 235 804 235 804 275 804 c 2,11,-1
EndSplineSet
Validated: 1
EndChar

StartChar: currency
Encoding: 164 164 83
Width: 1024
Flags: W
LayerCount: 2
Fore
SplineSet
702 712 m 0,0,1
 607 712 607 712 523 643 c 128,-1,2
 439 574 439 574 416 475 c 256,3,4
 409 445 409 445 409 418 c 0,5,6
 409 355 409 355 453.5 297 c 128,-1,7
 498 239 498 239 593 239 c 0,8,9
 686 239 686 239 771 307.5 c 128,-1,10
 856 376 856 376 879 475 c 256,11,12
 886 505 886 505 886 532 c 0,13,14
 886 595 886 595 840.5 653.5 c 128,-1,15
 795 712 795 712 702 712 c 0,0,1
732 842 m 256,16,17
 858 842 858 842 925 780 c 1,18,-1
 1084 909 l 2,19,20
 1099 921 1099 921 1116 921 c 0,21,22
 1135 921 1135 921 1142 908 c 1,23,-1
 1178 862 l 1,24,25
 1183 854 1183 854 1183 846 c 0,26,27
 1183 843 1183 843 1182 840 c 0,28,29
 1179 828 1179 828 1164 816 c 2,30,-1
 1001 684 l 1,31,32
 1030 631 1030 631 1030 563 c 0,33,34
 1030 522 1030 522 1019 476 c 0,35,36
 990 352 990 352 905 268 c 1,37,-1
 1009 135 l 1,38,39
 1016 123 1016 123 1014 112 c 256,40,41
 1011 101 1011 101 1000 90 c 1,42,-1
 941 44 l 1,43,44
 926 31 926 31 909 31 c 0,45,46
 891 31 891 31 882 45 c 1,47,-1
 785 172 l 1,48,49
 691 111 691 111 564 111 c 256,50,51
 437 111 437 111 371 172 c 1,52,-1
 213 43 l 2,53,54
 198 31 198 31 181 31 c 256,55,56
 164 31 164 31 156 42 c 2,57,-1
 120 88 l 2,58,59
 113 97 113 97 113 106 c 0,60,61
 113 109 113 109 114 112 c 256,62,63
 117 124 117 124 133 137 c 2,64,-1
 295 269 l 1,65,66
 267 321 267 321 267 388 c 0,67,68
 267 429 267 429 278 476 c 0,69,70
 306 597 306 597 391 683 c 1,71,-1
 289 817 l 1,72,73
 279 827 279 827 282 840 c 0,74,75
 285 852 285 852 299 864 c 2,76,-1
 356 910 l 2,77,78
 370 921 370 921 387 921 c 256,79,80
 404 921 404 921 413 909 c 2,81,-1
 511 780 l 1,82,83
 606 842 606 842 732 842 c 256,16,17
EndSplineSet
Validated: 1
EndChar

StartChar: yen
Encoding: 165 165 84
Width: 1366
Flags: W
LayerCount: 2
Fore
SplineSet
1309 520 m 1,0,-1
 1282 401 l 1,1,-1
 941 401 l 1,2,-1
 882 146 l 2,3,4
 880 135 880 135 879 126 c 0,5,6
 879 90 879 90 916 76 c 0,7,8
 955 61 955 61 954 32 c 0,9,10
 954 27 954 27 953 21 c 0,11,12
 944 -20 944 -20 897 -20 c 2,13,-1
 558 -20 l 2,14,15
 520 -20 520 -20 520 8 c 0,16,17
 520 14 520 14 522 21 c 0,18,19
 531 58 531 58 585 76 c 128,-1,20
 639 94 639 94 651 146 c 2,21,-1
 710 401 l 1,22,-1
 408 401 l 1,23,-1
 435 520 l 1,24,-1
 737 520 l 1,25,-1
 749 573 l 2,26,27
 755 599 755 599 755 622 c 1,28,-1
 459 622 l 1,29,-1
 486 741 l 1,30,-1
 719 741 l 1,31,-1
 531 1249 l 1,32,33
 518 1279 518 1279 476 1309 c 1,34,35
 453 1322 453 1322 430 1332 c 0,36,37
 406 1342 406 1342 390 1353 c 0,38,39
 377 1361 377 1361 371 1373 c 1,40,41
 368 1380 368 1380 368 1387 c 0,42,43
 368 1391 368 1391 369 1394 c 2,44,-1
 370 1399 l 1,45,46
 380 1424 380 1424 411 1424 c 2,47,-1
 750 1424 l 2,48,49
 769 1424 769 1424 782 1414 c 1,50,51
 794 1404 794 1404 800 1392 c 1,52,53
 804 1382 804 1382 802 1373 c 0,54,55
 799 1360 799 1360 785 1347 c 0,56,57
 776 1338 776 1338 766 1330 c 128,-1,58
 756 1322 756 1322 753 1313 c 1,59,-1
 752 1308 l 2,60,61
 748 1291 748 1291 757 1272 c 2,62,-1
 956 773 l 1,63,-1
 1277 1133 l 2,64,65
 1313 1174 1313 1174 1324 1203 c 0,66,67
 1326 1206 1326 1206 1326 1210 c 0,68,69
 1328 1219 1328 1219 1328 1230 c 0,70,71
 1328 1251 1328 1251 1321 1279 c 2,72,-1
 1298 1365 l 1,73,-1
 1477 1436 l 2,74,75
 1491 1441 1491 1441 1503 1441 c 0,76,77
 1531 1441 1531 1441 1542 1414 c 1,78,-1
 1580 1312 l 2,79,80
 1584 1300 1584 1300 1584 1289 c 0,81,82
 1584 1276 1584 1276 1582 1266 c 0,83,84
 1573 1225 1573 1225 1525 1185 c 0,85,86
 1460 1130 1460 1130 1381 1045 c 2,87,-1
 1103 741 l 1,88,-1
 1360 741 l 1,89,-1
 1333 622 l 1,90,-1
 1003 622 l 1,91,92
 995 606 995 606 988 586 c 0,93,94
 976 552 976 552 968 520 c 1,95,-1
 1309 520 l 1,0,-1
EndSplineSet
Validated: 1
EndChar

StartChar: brokenbar
Encoding: 166 166 85
Width: 1024
Flags: W
LayerCount: 2
Fore
SplineSet
689 1510 m 1,0,-1
 871 1510 l 1,1,-1
 705 793 l 1,2,-1
 523 793 l 1,3,-1
 689 1510 l 1,0,-1
284 -243 m 1,4,-1
 449 473 l 1,5,-1
 631 473 l 1,6,-1
 466 -243 l 1,7,-1
 284 -243 l 1,4,-1
EndSplineSet
Validated: 1
EndChar

StartChar: section
Encoding: 167 167 86
Width: 1024
Flags: W
LayerCount: 2
Fore
SplineSet
442 -345 m 0,0,1
 512 -340 512 -340 583 -308.5 c 128,-1,2
 654 -277 654 -277 707 -215 c 0,3,4
 762 -150 762 -150 784 -58 c 2,5,-1
 786 -47 l 1,6,7
 791 -24 791 -24 791 -3 c 0,8,9
 791 59 791 59 748 96 c 0,10,11
 722 120 722 120 680 133 c 0,12,13
 590 159 590 159 490 170.5 c 128,-1,14
 390 182 390 182 304 229 c 1,15,16
 225 271 225 271 206 332.5 c 128,-1,17
 187 394 187 394 187 440 c 0,18,19
 187 481 187 481 197 524 c 0,20,21
 237 699 237 699 366 800 c 1,22,23
 307 856 307 856 306 953 c 0,24,25
 306 997 306 997 319 1051 c 0,26,27
 361 1231 361 1231 513 1348 c 1,28,29
 674 1470 674 1470 872 1470 c 0,30,31
 887 1470 887 1470 902 1469 c 0,32,33
 1113 1460 1113 1460 1251 1356 c 1,34,-1
 1180 1151 l 2,35,36
 1168 1115 1168 1115 1131 1115 c 0,37,38
 1123 1115 1123 1115 1120 1116 c 0,39,40
 1094 1118 1094 1118 1088 1156 c 1,41,42
 1070 1234 1070 1234 1011.5 1288 c 128,-1,43
 953 1342 953 1342 876 1346 c 1,44,-1
 862 1346 l 2,45,46
 784 1346 784 1346 716 1318 c 0,47,48
 675 1300 675 1300 644 1274 c 0,49,50
 616 1251 616 1251 593 1215 c 1,51,52
 570 1183 570 1183 555 1149 c 1,53,54
 543 1121 543 1121 537 1094 c 0,55,56
 529 1061 529 1061 532 1034 c 0,57,58
 536 978 536 978 572 948 c 1,59,60
 595 926 595 926 632 915 c 0,61,62
 654 909 654 909 685 904 c 128,-1,63
 716 899 716 899 751 893 c 0,64,65
 801 884 801 884 858.5 874.5 c 128,-1,66
 916 865 916 865 970 849 c 1,67,68
 1063 815 1063 815 1099 763 c 0,69,70
 1125 725 1125 725 1138 674 c 1,71,72
 1142 649 1142 649 1142 622 c 0,73,74
 1142 580 1142 580 1131 534 c 0,75,76
 1092 365 1092 365 965 254 c 1,77,78
 967 253 967 253 978 237 c 0,79,80
 1005 196 1005 196 1016 147 c 1,81,82
 1020 122 1020 122 1020 95 c 0,83,84
 1020 53 1020 53 1010 7 c 0,85,86
 963 -196 963 -196 763 -335 c 1,87,88
 661 -404 661 -404 545 -440 c 0,89,90
 460 -467 460 -467 358 -473 c 0,91,92
 338 -474 338 -474 318 -474 c 0,93,94
 183 -474 183 -474 57 -432 c 1,95,-1
 26 -178 l 2,96,97
 26 -175 26 -175 25 -172 c 0,98,99
 25 -168 25 -168 26 -163 c 0,100,101
 30 -147 30 -147 43 -135 c 1,102,103
 60 -113 60 -113 86 -113 c 2,104,-1
 90 -113 l 1,105,106
 115 -116 115 -116 126 -152 c 1,107,108
 155 -273 155 -273 229 -313 c 1,109,110
 289 -347 289 -347 395 -347 c 0,111,112
 418 -347 418 -347 442 -345 c 0,0,1
905 468 m 2,113,-1
 908 479 l 1,114,115
 912 499 912 499 912 517 c 0,116,117
 912 521 912 521 912 524 c 0,118,119
 912 586 912 586 871 623 c 1,120,121
 841 647 841 647 801 660 c 1,122,123
 725 681 725 681 641 692 c 128,-1,124
 557 703 557 703 497 725 c 1,125,126
 489 718 489 718 471 689 c 1,127,128
 448 658 448 658 434 622 c 1,129,130
 422 594 422 594 415 567 c 0,131,132
 409 543 409 543 409 522 c 0,133,134
 409 514 409 514 410 507 c 0,135,136
 415 450 415 450 450 422 c 1,137,138
 472 399 472 399 511 389 c 0,139,140
 544 380 544 380 629 366 c 0,141,142
 679 357 679 357 736.5 347.5 c 128,-1,143
 794 338 794 338 848 322 c 1,144,145
 884 375 884 375 905 468 c 2,113,-1
EndSplineSet
Validated: 1
EndChar

StartChar: copyright
Encoding: 169 169 87
Width: 1532
Flags: W
LayerCount: 2
Fore
SplineSet
1132 1472 m 256,0,1
 1453 1472 1453 1472 1601 1280.5 c 128,-1,2
 1749 1089 1749 1089 1749 886 c 0,3,4
 1749 801 1749 801 1727 708 c 0,5,6
 1654 392 1654 392 1377 168 c 128,-1,7
 1100 -56 1100 -56 779 -56 c 256,8,9
 458 -56 458 -56 310 135 c 128,-1,10
 162 326 162 326 162 529 c 0,11,12
 162 614 162 614 183 708 c 0,13,14
 256 1023 256 1023 533.5 1247.5 c 128,-1,15
 811 1472 811 1472 1132 1472 c 256,0,1
1104 1352 m 256,16,17
 840 1352 840 1352 608 1164 c 128,-1,18
 376 976 376 976 314 708 c 0,19,20
 296 631 296 631 296 561 c 0,21,22
 296 557 296 557 296 554 c 0,23,24
 296 383 296 383 419.5 223.5 c 128,-1,25
 543 64 543 64 807 64 c 256,26,27
 1071 64 1071 64 1303 251.5 c 128,-1,28
 1535 439 1535 439 1597 708 c 0,29,30
 1615 788 1615 788 1616 861 c 0,31,32
 1616 1032 1616 1032 1492 1192 c 128,-1,33
 1368 1352 1368 1352 1104 1352 c 256,16,17
1115 1155 m 2,34,35
 1263 1155 1263 1155 1375 1069 c 1,36,-1
 1324 915 l 1,37,38
 1314 888 1314 888 1286 888 c 2,39,-1
 1283 888 l 1,40,41
 1258 890 1258 890 1253 917 c 0,42,43
 1237 987 1237 987 1194 1016.5 c 128,-1,44
 1151 1046 1151 1046 1078 1046 c 2,45,-1
 1059 1046 l 1,46,47
 973 1042 973 1042 921 1001 c 1,48,49
 815 919 815 919 780 762 c 0,50,51
 774 738 774 738 770 710 c 0,52,53
 763 668 763 668 763 632 c 0,54,55
 763 560 763 560 789 508 c 1,56,57
 842 408 842 408 928 394 c 0,58,59
 943 392 943 392 958 393 c 0,60,61
 1036 393 1036 393 1107.5 431 c 128,-1,62
 1179 469 1179 469 1198 469 c 256,63,64
 1217 469 1217 469 1236 466 c 1,65,66
 1238 450 1238 450 1235 437 c 128,-1,67
 1232 424 1232 424 1213 400 c 128,-1,68
 1194 376 1194 376 1172 359 c 1,69,70
 1051 276 1051 276 882 276 c 256,71,72
 713 276 713 276 618 370 c 1,73,74
 545 447 545 447 545 570 c 0,75,76
 545 631 545 631 560 699 c 0,77,78
 571 747 571 747 591 801 c 1,79,80
 676 999 676 999 865 1095 c 0,81,82
 972 1149 972 1149 1096 1155 c 1,83,-1
 1115 1155 l 2,34,35
EndSplineSet
Validated: 1
EndChar

StartChar: logicalnot
Encoding: 172 172 88
Width: 1100
Flags: W
LayerCount: 2
Fore
SplineSet
1158 321 m 1,0,-1
 991 321 l 1,1,-1
 1091 755 l 1,2,-1
 240 755 l 1,3,-1
 275 907 l 1,4,-1
 1293 907 l 1,5,-1
 1158 321 l 1,0,-1
EndSplineSet
Validated: 1
EndChar

StartChar: uni00AD
Encoding: 173 173 89
Width: 680
Flags: W
LayerCount: 2
Fore
SplineSet
276 389 m 2,0,1
 220 389 220 389 220 424 c 0,2,3
 220 430 220 430 222 437 c 2,4,-1
 241 520 l 2,5,6
 252 569 252 569 318 569 c 2,7,-1
 674 569 l 2,8,9
 730 569 730 569 731 533 c 0,10,11
 731 527 731 527 729 520 c 2,12,-1
 710 437 l 2,13,14
 699 389 699 389 634 389 c 2,15,-1
 276 389 l 2,0,1
EndSplineSet
Validated: 1
EndChar

StartChar: macron
Encoding: 175 175 90
Width: 1000
Flags: W
LayerCount: 2
Fore
SplineSet
541 1367 m 2,0,-1
 1141 1367 l 2,1,2
 1170 1367 1170 1367 1170 1346 c 0,3,4
 1170 1342 1170 1342 1169 1337 c 2,5,-1
 1149 1251 l 2,6,7
 1142 1220 1142 1220 1107 1220 c 2,8,-1
 507 1220 l 2,9,10
 478 1220 478 1220 478 1241 c 0,11,12
 478 1245 478 1245 479 1251 c 2,13,-1
 499 1337 l 2,14,15
 506 1367 506 1367 541 1367 c 2,0,-1
EndSplineSet
Validated: 1
EndChar

StartChar: degree
Encoding: 176 176 91
Width: 819
Flags: W
LayerCount: 2
Fore
SplineSet
756 1407 m 0,0,1
 896 1407 896 1407 959.5 1324.5 c 128,-1,2
 1023 1242 1023 1242 1023 1154 c 0,3,4
 1023 1118 1023 1118 1014 1078 c 256,5,6
 983 943 983 943 863.5 846 c 128,-1,7
 744 749 744 749 604 749 c 0,8,9
 463 749 463 749 400 831.5 c 128,-1,10
 337 914 337 914 337 1001 c 0,11,12
 337 1038 337 1038 346 1078 c 256,13,14
 377 1213 377 1213 496 1310 c 128,-1,15
 615 1407 615 1407 756 1407 c 0,0,1
728 1285 m 0,16,17
 646 1285 646 1285 572.5 1224.5 c 128,-1,18
 499 1164 499 1164 479 1078 c 0,19,20
 473 1051 473 1051 473 1027 c 0,21,22
 473 972 473 972 511.5 922 c 128,-1,23
 550 872 550 872 632 872 c 0,24,25
 713 872 713 872 787 931.5 c 128,-1,26
 861 991 861 991 881 1078 c 0,27,28
 887 1104 887 1104 887 1128 c 0,29,30
 887 1183 887 1183 848 1234 c 128,-1,31
 809 1285 809 1285 728 1285 c 0,16,17
EndSplineSet
Validated: 1
EndChar

StartChar: uni00B5
Encoding: 181 181 92
Width: 1325
Flags: W
LayerCount: 2
Fore
SplineSet
1064 752 m 2,0,1
 1066 762 1066 762 1066 771 c 0,2,3
 1066 806 1066 806 1027.5 820.5 c 128,-1,4
 989 835 989 835 989 865 c 0,5,6
 989 871 989 871 990 877 c 0,7,8
 999 918 999 918 1045 918 c 1,9,10
 1097 920 1097 920 1158 934 c 1,11,12
 1229 949 1229 949 1348 989 c 1,13,-1
 1153 142 l 2,14,15
 1151 132 1151 132 1150 123 c 0,16,17
 1150 88 1150 88 1189.5 75 c 128,-1,18
 1229 62 1229 62 1229 33 c 0,19,20
 1229 27 1229 27 1228 21 c 0,21,22
 1219 -20 1219 -20 1172 -20 c 2,23,-1
 884 -20 l 1,24,-1
 902 55 l 1,25,-1
 715 -12 l 2,26,27
 643 -37 643 -37 579 -37 c 0,28,29
 561 -37 561 -37 545 -35 c 0,30,31
 466 -26 466 -26 413 8 c 0,32,33
 350 47 350 47 338 47 c 1,34,-1
 335 43 l 1,35,-1
 335 23 l 1,36,-1
 254 -531 l 1,37,-1
 254 -534 l 2,38,39
 245 -573 245 -573 200 -573 c 2,40,-1
 108 -573 l 2,41,42
 71 -573 71 -573 71 -545 c 0,43,44
 71 -539 71 -539 72 -532 c 2,45,-1
 381 804 l 1,46,47
 369 819 369 819 339 833 c 128,-1,48
 309 847 309 847 315 877 c 0,49,50
 324 918 324 918 370 918 c 1,51,52
 426 921 426 921 484 935 c 1,53,54
 521 942 521 942 555.5 953 c 128,-1,55
 590 964 590 964 666 988 c 1,56,-1
 536 424 l 2,57,58
 519 352 519 352 519 294 c 0,59,60
 519 214 519 214 551 160 c 1,61,62
 593 87 593 87 678 87 c 0,63,64
 724 87 724 87 784 107 c 2,65,-1
 926 156 l 1,66,-1
 1064 752 l 2,0,1
EndSplineSet
Validated: 1
EndChar

StartChar: paragraph
Encoding: 182 182 93
Width: 1266
Flags: W
LayerCount: 2
Fore
SplineSet
1031 1317 m 1,0,-1
 678 -214 l 1,1,-1
 888 -214 l 1,2,-1
 1241 1317 l 1,3,-1
 1031 1317 l 1,0,-1
706 767 m 1,4,5
 687 761 687 761 634 761 c 0,6,7
 498 761 498 761 438 844 c 128,-1,8
 378 927 378 927 378 1013 c 0,9,10
 378 1051 378 1051 387 1093 c 0,11,12
 418 1228 418 1228 534.5 1325.5 c 128,-1,13
 651 1423 651 1423 786 1424 c 1,14,-1
 1535 1424 l 2,15,16
 1577 1424 1577 1424 1577 1393 c 0,17,18
 1577 1387 1577 1387 1575 1379 c 0,19,20
 1565 1335 1565 1335 1499 1313 c 128,-1,21
 1433 1291 1433 1291 1418 1226 c 2,22,-1
 1107 -122 l 2,23,24
 1104 -136 1104 -136 1104 -148 c 0,25,26
 1104 -192 1104 -192 1149.5 -210 c 128,-1,27
 1195 -228 1195 -228 1195 -262 c 0,28,29
 1195 -268 1195 -268 1194 -275 c 0,30,31
 1184 -320 1184 -320 1132 -320 c 2,32,-1
 384 -320 l 2,33,34
 342 -320 342 -320 342 -289 c 0,35,36
 342 -283 342 -283 344 -275 c 0,37,38
 354 -231 354 -231 420 -209 c 128,-1,39
 486 -187 486 -187 501 -122 c 2,40,-1
 706 767 l 1,4,5
EndSplineSet
Validated: 1
EndChar

StartChar: periodcentered
Encoding: 183 183 94
Width: 512
Flags: W
LayerCount: 2
Fore
SplineSet
390 476 m 256,0,1
 327 476 327 476 299.5 512 c 128,-1,2
 272 548 272 548 272 585 c 0,3,4
 272 601 272 601 276 618 c 0,5,6
 289 675 289 675 340.5 717.5 c 128,-1,7
 392 760 392 760 455 760 c 256,8,9
 518 760 518 760 545.5 723.5 c 128,-1,10
 573 687 573 687 573 650 c 0,11,12
 573 635 573 635 570 618 c 0,13,14
 557 560 557 560 505 518 c 128,-1,15
 453 476 453 476 390 476 c 256,0,1
EndSplineSet
Validated: 1
EndChar

StartChar: AE
Encoding: 198 198 95
Width: 1933
Flags: W
LayerCount: 2
Fore
SplineSet
1165 114 m 1,0,-1
 1568 114 l 2,1,2
 1647 114 1647 114 1723 181 c 128,-1,3
 1799 248 1799 248 1841 288 c 0,4,5
 1874 319 1874 319 1898 319 c 0,6,7
 1936 319 1936 319 1936 291 c 0,8,9
 1936 285 1936 285 1934 278 c 0,10,11
 1931 263 1931 263 1925 253 c 2,12,-1
 1785 -20 l 1,13,-1
 846 -20 l 2,14,15
 811 -20 811 -20 811 8 c 0,16,17
 811 14 811 14 813 21 c 0,18,19
 822 59 822 59 876 76.5 c 128,-1,20
 930 94 930 94 942 146 c 2,21,-1
 1016 469 l 1,22,-1
 552 469 l 1,23,24
 494 395 494 395 426 309.5 c 128,-1,25
 358 224 358 224 290 139 c 0,26,27
 279 125 279 125 268 106 c 0,28,29
 263 97 263 97 261 88 c 0,30,31
 260 84 260 84 261 81 c 0,32,33
 259 70 259 70 262 62 c 128,-1,34
 265 54 265 54 265.5 46 c 128,-1,35
 266 38 266 38 265 33 c 0,36,37
 264 29 264 29 257 17 c 1,38,39
 229 -20 229 -20 198 -20 c 2,40,-1
 -59 -20 l 2,41,42
 -87 -20 -87 -20 -93 2 c 1,43,-1
 -90 11 l 2,44,45
 -88 19 -88 19 -81 30 c 1,46,47
 -64 46 -64 46 -25 64 c 0,48,49
 -6 72 -6 72 13 80 c 128,-1,50
 32 88 32 88 53 99 c 0,51,52
 93 122 93 122 121 154 c 2,53,-1
 1079 1323 l 1,54,55
 1068 1326 1068 1326 1030.5 1338.5 c 128,-1,56
 993 1351 993 1351 1000 1383 c 0,57,58
 1009 1424 1009 1424 1056 1424 c 2,59,-1
 2136 1424 l 1,60,-1
 2072 1147 l 2,61,62
 2063 1106 2063 1106 2016 1106 c 0,63,64
 1991 1106 1991 1106 1969 1156 c 1,65,66
 1936 1224 1936 1224 1911.5 1257.5 c 128,-1,67
 1887 1291 1887 1291 1840 1291 c 2,68,-1
 1437 1291 l 1,69,-1
 1321 788 l 1,70,-1
 1525 788 l 2,71,72
 1571 788 1571 788 1603 839.5 c 128,-1,73
 1635 891 1635 891 1679 891 c 0,74,75
 1716 891 1716 891 1716 863 c 0,76,77
 1716 857 1716 857 1714 850 c 2,78,-1
 1656 596 l 2,79,80
 1647 555 1647 555 1601 555 c 0,81,82
 1558 555 1558 555 1547 606 c 128,-1,83
 1536 657 1536 657 1489 657 c 2,84,-1
 1291 657 l 1,85,-1
 1165 114 l 1,0,-1
1047 590 m 1,86,-1
 1210 1305 l 1,87,88
 1111 1165 1111 1165 929 939.5 c 128,-1,89
 747 714 747 714 648 590 c 1,90,-1
 1047 590 l 1,86,-1
EndSplineSet
Validated: 1
EndChar

StartChar: Eth
Encoding: 208 208 96
Width: 1585
Flags: W
LayerCount: 2
Fore
SplineSet
568 1427 m 2,0,-1
 883 1433 l 1,1,2
 897 1433 897 1433 911 1433 c 0,3,4
 1052 1433 1052 1433 1207 1424 c 0,5,6
 1377 1414 1377 1414 1510 1350 c 128,-1,7
 1643 1286 1643 1286 1707 1154 c 1,8,9
 1747 1071 1747 1071 1747 951 c 0,10,11
 1747 852 1747 852 1720 727 c 1,12,13
 1681 558 1681 558 1576 409 c 0,14,15
 1472 260 1472 260 1313 155 c 0,16,17
 1041 -23 1041 -23 708 -27 c 1,18,-1
 628 -27 l 2,19,20
 570 -27 570 -27 519 -26 c 1,21,-1
 402 -26 l 2,22,23
 318 -26 318 -26 276 -23 c 1,24,-1
 253 -23 l 2,25,26
 214 -23 214 -23 148 -29 c 1,27,28
 109 -29 109 -29 109 -1 c 0,29,30
 109 4 109 4 111 11 c 0,31,32
 120 51 120 51 174 69 c 128,-1,33
 228 87 228 87 240 139 c 2,34,-1
 362 665 l 1,35,-1
 225 665 l 2,36,37
 187 665 187 665 186 692 c 0,38,39
 186 697 186 697 188 704 c 2,40,-1
 197 743 l 2,41,42
 206 783 206 783 227 783 c 2,43,-1
 389 783 l 1,44,-1
 499 1262 l 2,45,46
 501 1272 501 1272 502 1281 c 0,47,48
 502 1316 502 1316 465 1330 c 0,49,50
 427 1345 427 1345 427 1375 c 0,51,52
 427 1381 427 1381 428 1387 c 0,53,54
 437 1428 437 1428 484 1428 c 1,55,56
 525 1427 525 1427 568 1427 c 2,0,-1
476 116 m 1,57,58
 575 96 575 96 686 96 c 0,59,60
 728 96 728 96 770 99 c 0,61,62
 1112 128 1112 128 1307 387 c 0,63,64
 1411 524 1411 524 1460 736 c 2,65,-1
 1468 769 l 1,66,67
 1483 849 1483 849 1483 916 c 0,68,69
 1483 920 1483 920 1483 924 c 0,70,71
 1483 1108 1483 1108 1376 1201 c 1,72,73
 1252 1314 1252 1314 1005 1314 c 2,74,-1
 979 1314 l 2,75,76
 858 1314 858 1314 748 1297 c 1,77,-1
 630 783 l 1,78,-1
 922 783 l 2,79,80
 959 783 959 783 959 755 c 0,81,82
 959 749 959 749 958 743 c 2,83,-1
 949 704 l 2,84,85
 940 665 940 665 895 665 c 2,86,-1
 603 665 l 1,87,-1
 476 116 l 1,57,58
EndSplineSet
Validated: 1
EndChar

StartChar: Oslash
Encoding: 216 216 97
Width: 1610
Flags: W
LayerCount: 2
Fore
SplineSet
1171 1466 m 1,0,-1
 1181 1466 l 2,1,2
 1503 1466 1503 1466 1685 1275 c 1,3,-1
 1901 1443 l 2,4,5
 1918 1455 1918 1455 1934 1455 c 0,6,7
 1952 1455 1952 1455 1964 1442 c 1,8,-1
 1990 1404 l 1,9,10
 1998 1396 1998 1396 1998 1385 c 0,11,12
 1998 1382 1998 1382 1997 1378 c 0,13,14
 1994 1365 1994 1365 1978 1352 c 2,15,-1
 1756 1180 l 1,16,17
 1816 1072 1816 1072 1817 934 c 0,18,19
 1817 852 1817 852 1795 760 c 0,20,21
 1789 732 1789 732 1781 704 c 0,22,23
 1678 353 1678 353 1408 158 c 0,24,25
 1139 -37 1139 -37 819 -55 c 0,26,27
 796 -56 796 -56 772 -56 c 0,28,29
 522 -56 522 -56 356 93 c 1,30,-1
 185 -40 l 2,31,32
 169 -53 169 -53 150 -53 c 0,33,34
 132 -53 132 -53 120 -38 c 2,35,-1
 94 -2 l 2,36,37
 88 6 88 6 87 15 c 0,38,39
 87 19 87 19 88 23 c 0,40,41
 91 37 91 37 106 49 c 2,42,-1
 277 181 l 1,43,44
 181 312 181 312 181 489 c 0,45,46
 181 574 181 574 202 669 c 0,47,48
 206 687 206 687 212 706 c 0,49,50
 304 1054 304 1054 566 1258 c 128,-1,51
 828 1462 828 1462 1171 1466 c 1,0,-1
1142 1338 m 0,52,53
 850 1337 850 1337 690 1152 c 128,-1,54
 530 967 530 967 469 702 c 0,55,56
 447 605 447 605 447 518 c 0,57,58
 447 420 447 420 476 336 c 1,59,-1
 1500 1132 l 1,60,61
 1498 1137 1498 1137 1497 1142 c 0,62,63
 1419 1338 1419 1338 1142 1338 c 0,52,53
528 227 m 1,64,65
 633 68 633 68 848 66 c 1,66,-1
 853 66 l 2,67,68
 1078 66 1078 66 1270 260 c 1,69,70
 1463 457 1463 457 1519 696 c 2,71,-1
 1520 702 l 1,72,73
 1542 802 1542 802 1542 894 c 0,74,75
 1542 952 1542 952 1533 1007 c 1,76,-1
 528 227 l 1,64,65
EndSplineSet
Validated: 1
EndChar

StartChar: Thorn
Encoding: 222 222 98
Width: 1151
Flags: W
LayerCount: 2
Fore
SplineSet
691 1257 m 2,0,-1
 657 1108 l 1,1,-1
 942 1108 l 2,2,3
 1050 1108 1050 1108 1159.5 1069.5 c 128,-1,4
 1269 1031 1269 1031 1309 918 c 1,5,6
 1324 873 1324 873 1324 819 c 0,7,8
 1324 767 1324 767 1310 706 c 1,9,10
 1281 588 1281 588 1193 493 c 0,11,12
 1116 411 1116 411 1000.5 371 c 128,-1,13
 885 331 885 331 798 331 c 2,14,-1
 477 331 l 1,15,-1
 435 146 l 2,16,17
 433 135 433 135 432 126 c 0,18,19
 432 90 432 90 469.5 76 c 128,-1,20
 507 62 507 62 507 33 c 0,21,22
 507 27 507 27 506 21 c 0,23,24
 497 -20 497 -20 450 -20 c 2,25,-1
 111 -20 l 2,26,27
 74 -20 74 -20 74 8 c 0,28,29
 74 14 74 14 76 21 c 0,30,31
 85 59 85 59 139 76.5 c 128,-1,32
 193 94 193 94 205 146 c 2,33,-1
 461 1257 l 2,34,35
 463 1267 463 1267 464 1276 c 0,36,37
 464 1311 464 1311 426.5 1326 c 128,-1,38
 389 1341 389 1341 389 1371 c 0,39,40
 389 1377 389 1377 390 1383 c 0,41,42
 399 1424 399 1424 446 1424 c 2,43,-1
 784 1424 l 2,44,45
 822 1424 822 1424 822 1396 c 0,46,47
 822 1390 822 1390 820 1383 c 0,48,49
 811 1344 811 1344 757 1326 c 128,-1,50
 703 1308 703 1308 691 1257 c 2,0,-1
503 441 m 1,51,-1
 689 441 l 2,52,53
 754 441 754 441 823.5 459.5 c 128,-1,54
 893 478 893 478 951 525 c 1,55,56
 1041 596 1041 596 1069 716 c 1,57,58
 1076 751 1076 751 1077 782 c 0,59,60
 1077 855 1077 855 1036 907 c 1,61,62
 973 985 973 985 834 985 c 2,63,-1
 628 985 l 1,64,-1
 503 441 l 1,51,-1
EndSplineSet
Validated: 1
EndChar

StartChar: germandbls
Encoding: 223 223 99
Width: 1269
Flags: W
LayerCount: 2
Fore
SplineSet
539 52 m 1,0,-1
 516 225 l 1,1,-1
 523 248 l 2,2,3
 533 282 533 282 574 282 c 2,4,-1
 579 282 l 1,5,6
 603 277 603 277 612 245 c 0,7,8
 634 151 634 151 686 113.5 c 128,-1,9
 738 76 738 76 830 73 c 1,10,-1
 842 73 l 2,11,12
 908 73 908 73 995 104 c 0,13,14
 1080 135 1080 135 1102 216 c 1,15,-1
 1103 222 l 2,16,17
 1108 242 1108 242 1108 259 c 0,18,19
 1108 321 1108 321 1045 340 c 0,20,21
 946 370 946 370 872 393 c 1,22,23
 775 421 775 421 699 483 c 0,24,25
 640 530 640 530 640 610 c 0,26,27
 640 639 640 639 647 672 c 2,28,-1
 648 675 l 2,29,30
 673 782 673 782 754.5 835.5 c 128,-1,31
 836 889 836 889 912 947 c 0,32,33
 985 1002 985 1002 1018 1095 c 0,34,35
 1024 1114 1024 1114 1029 1133 c 0,36,37
 1035 1160 1035 1160 1035 1185 c 0,38,39
 1035 1221 1035 1221 1021 1251 c 0,40,41
 994 1307 994 1307 909 1316 c 0,42,43
 898 1317 898 1317 887 1317 c 0,44,45
 819 1317 819 1317 771 1268 c 0,46,47
 730 1226 730 1226 710.5 1160 c 128,-1,48
 691 1094 691 1094 675 1027 c 2,49,-1
 472 146 l 2,50,51
 470 135 470 135 469 126 c 0,52,53
 469 90 469 90 506 77 c 0,54,55
 530 67 530 67 539 52 c 1,0,-1
543 22 m 1,56,-1
 543 21 l 2,57,58
 534 -20 534 -20 487 -20 c 2,59,-1
 148 -20 l 2,60,61
 110 -20 110 -20 110 8 c 0,62,63
 110 14 110 14 112 21 c 0,64,65
 121 59 121 59 175 76.5 c 128,-1,66
 229 94 229 94 241 146 c 2,67,-1
 444 1027 l 2,68,69
 465 1119 465 1119 509 1207.5 c 128,-1,70
 553 1296 553 1296 627 1362 c 1,71,72
 764 1486 764 1486 923 1486 c 0,73,74
 958 1486 958 1486 994 1480 c 0,75,76
 1173 1447 1173 1447 1222 1272 c 0,77,78
 1232 1234 1232 1234 1232 1198 c 0,79,80
 1232 1169 1232 1169 1225 1140 c 0,81,82
 1202 1040 1202 1040 1097 950 c 0,83,84
 1027 890 1027 890 956.5 847.5 c 128,-1,85
 886 805 886 805 861 748 c 0,86,87
 851 727 851 727 847 711 c 0,88,89
 844 699 844 699 844 688 c 0,90,91
 844 654 844 654 874 638 c 0,92,93
 934 604 934 604 1021 583 c 0,94,95
 1146 554 1146 554 1235.5 507.5 c 128,-1,96
 1325 461 1325 461 1325 350 c 0,97,98
 1325 318 1325 318 1319 281 c 1,99,-1
 1316 269 l 2,100,101
 1298 190 1298 190 1219 113 c 1,102,103
 1133 27 1133 27 998 -16 c 0,104,105
 915 -42 915 -42 822 -45 c 1,106,-1
 794 -45 l 2,107,108
 668 -45 668 -45 547 -8 c 1,109,-1
 543 22 l 1,56,-1
EndSplineSet
Validated: 1
EndChar

StartChar: ae
Encoding: 230 230 100
Width: 1762
Flags: W
LayerCount: 2
Fore
SplineSet
1525 980 m 2,0,1
 1734 980 1734 980 1802.5 880.5 c 128,-1,2
 1871 781 1871 781 1871 673 c 0,3,4
 1871 616 1871 616 1856 551 c 0,5,6
 1847 510 1847 510 1837 484 c 128,-1,7
 1827 458 1827 458 1767 458 c 2,8,-1
 1154 458 l 1,9,10
 1144 410 1144 410 1144 367 c 0,11,12
 1144 286 1144 286 1186.5 203 c 128,-1,13
 1229 120 1229 120 1333 98 c 0,14,15
 1363 91 1363 91 1396 91 c 0,16,17
 1485 91 1485 91 1575 134 c 128,-1,18
 1665 177 1665 177 1687 177 c 0,19,20
 1708 177 1708 177 1715 168 c 128,-1,21
 1722 159 1722 159 1718 144 c 256,22,23
 1715 129 1715 129 1691 98 c 128,-1,24
 1667 67 1667 67 1644 50 c 0,25,26
 1505 -51 1505 -51 1307 -51 c 1,27,28
 1047 -49 1047 -49 952 98 c 1,29,-1
 550 -32 l 2,30,31
 510 -45 510 -45 484 -45 c 2,32,-1
 442 -45 l 1,33,34
 290 -37 290 -37 208 77 c 0,35,36
 144 168 144 168 144 288 c 0,37,38
 144 322 144 322 149 358 c 0,39,40
 155 400 155 400 165 447 c 0,41,42
 176 493 176 493 202 562.5 c 128,-1,43
 228 632 228 632 285.5 699.5 c 128,-1,44
 343 767 343 767 396 800.5 c 128,-1,45
 449 834 449 834 483 848 c 1,46,47
 571 878 571 878 658.5 908 c 128,-1,48
 746 938 746 938 801.5 957 c 128,-1,49
 857 976 857 976 877 976 c 2,50,-1
 883 976 l 1,51,52
 950 973 950 973 1039 942 c 1,53,54
 1141 901 1141 901 1184 877 c 1,55,56
 1321 978 1321 978 1521 980 c 1,57,-1
 1525 980 l 2,0,1
788 854 m 2,58,59
 773 854 773 854 745.5 844.5 c 128,-1,60
 718 835 718 835 679.5 821.5 c 128,-1,61
 641 808 641 808 611 797.5 c 128,-1,62
 581 787 581 787 567 775 c 0,63,64
 495 713 495 713 458 633.5 c 128,-1,65
 421 554 421 554 411 510 c 0,66,67
 401 465 401 465 397 442 c 0,68,69
 390 396 390 396 390 356 c 0,70,71
 390 274 390 274 426 202 c 128,-1,72
 462 130 462 130 548 105 c 0,73,74
 580 95 580 95 603 95 c 256,75,76
 626 95 626 95 641.5 96.5 c 128,-1,77
 657 98 657 98 683.5 106.5 c 128,-1,78
 710 115 710 115 763 133.5 c 128,-1,79
 816 152 816 152 833 158 c 1,80,-1
 973 762 l 1,81,82
 948 792 948 792 892.5 822 c 128,-1,83
 837 852 837 852 791 854 c 1,84,-1
 788 854 l 2,58,59
1658 571 m 1,85,86
 1668 614 1668 614 1668 656 c 0,87,88
 1668 709 1668 709 1645.5 780.5 c 128,-1,89
 1623 852 1623 852 1498 852 c 2,90,-1
 1487 852 l 1,91,92
 1361 848 1361 848 1283.5 757.5 c 128,-1,93
 1206 667 1206 667 1181 571 c 1,94,-1
 1658 571 l 1,85,86
EndSplineSet
Validated: 1
EndChar

StartChar: eth
Encoding: 240 240 101
Width: 1105
Flags: W
LayerCount: 2
Fore
SplineSet
788 873 m 1,0,-1
 777 873 l 2,1,2
 674 873 674 873 573 768 c 0,3,4
 461 651 461 651 421 478 c 2,5,-1
 420 474 l 2,6,7
 404 406 404 406 404 345 c 0,8,9
 404 341 404 341 404 338 c 0,10,11
 404 249 404 249 436 176 c 0,12,13
 489 55 489 55 599 50 c 1,14,-1
 611 50 l 2,15,16
 713 50 713 50 813 155 c 0,17,18
 925 271 925 271 966 446 c 0,19,20
 983 519 983 519 983 584 c 0,21,22
 983 672 983 672 940.5 770 c 128,-1,23
 898 868 898 868 788 873 c 1,0,-1
560 1051 m 1,24,25
 548 1080 548 1080 541.5 1095 c 128,-1,26
 535 1110 535 1110 523 1143 c 1,27,28
 696 1205 696 1205 819 1268 c 1,29,30
 764 1331 764 1331 656 1397 c 1,31,32
 629 1415 629 1415 633 1435 c 0,33,34
 635 1443 635 1443 642 1450 c 0,35,36
 652 1462 652 1462 669 1484 c 0,37,38
 693 1514 693 1514 726 1514 c 0,39,40
 741 1514 741 1514 757 1506 c 1,41,42
 889 1415 889 1415 961 1344 c 1,43,44
 1087 1416 1087 1416 1241 1530 c 1,45,46
 1264 1498 1264 1498 1272.5 1485 c 128,-1,47
 1281 1472 1281 1472 1299 1448 c 1,48,49
 1154 1333 1154 1333 1036 1265 c 1,50,51
 1159 1123 1159 1123 1198.5 975.5 c 128,-1,52
 1238 828 1238 828 1238 718 c 0,53,54
 1238 598 1238 598 1207 461 c 1,55,-1
 1206 455 l 2,56,57
 1157 244 1157 244 977 98 c 1,58,59
 792 -54 792 -54 571 -60 c 1,60,-1
 558 -60 l 2,61,62
 351 -60 351 -60 238 93 c 0,63,64
 159 201 159 201 159 336 c 0,65,66
 159 394 159 394 174 458 c 2,67,-1
 174 461 l 1,68,69
 228 692 228 692 436 850 c 0,70,71
 464 871 464 871 507.5 885 c 128,-1,72
 551 899 551 899 631 928 c 1,73,74
 679 944 679 944 736 963 c 0,75,76
 796 983 796 983 832 983 c 2,77,-1
 836 983 l 1,78,79
 957 978 957 978 987 958 c 1,80,81
 979 984 979 984 949 1059 c 128,-1,82
 919 1134 919 1134 885 1182 c 1,83,84
 755 1116 755 1116 560 1051 c 1,24,25
EndSplineSet
Validated: 1
EndChar

StartChar: oslash
Encoding: 248 248 102
Width: 1107
Flags: W
LayerCount: 2
Fore
SplineSet
770 869 m 2,0,1
 667 869 667 869 560 760 c 0,2,3
 454 651 454 651 415 481 c 0,4,5
 399 410 399 410 399 348 c 0,6,7
 399 325 399 325 401 303 c 1,8,-1
 946 739 l 1,9,10
 945 740 945 740 944 742 c 0,11,12
 889 864 889 864 781 869 c 1,13,-1
 770 869 l 2,0,1
1201 459 m 2,14,15
 1153 252 1153 252 970 106 c 128,-1,16
 787 -40 787 -40 568 -45 c 1,17,-1
 552 -45 l 2,18,19
 380 -45 380 -45 271 62 c 1,20,-1
 131 -50 l 2,21,22
 117 -62 117 -62 102 -62 c 0,23,24
 86 -62 86 -62 78 -52 c 2,25,-1
 49 -14 l 2,26,27
 42 -6 42 -6 42 3 c 0,28,29
 42 6 42 6 43 8 c 0,30,31
 46 23 46 23 61 32 c 1,32,-1
 206 148 l 1,33,34
 155 235 155 235 155 341 c 0,35,36
 155 401 155 401 169 462 c 1,37,-1
 169 465 l 1,38,39
 222 691 222 691 428 846 c 0,40,41
 456 867 456 867 499 881 c 0,42,43
 542 894 542 894 606 916 c 128,-1,44
 670 938 670 938 729 957 c 0,45,46
 787 976 787 976 824 976 c 2,47,-1
 828 976 l 1,48,49
 999 969 999 969 1102 864 c 1,50,-1
 1248 981 l 2,51,52
 1261 992 1261 992 1279 992 c 0,53,54
 1296 992 1296 992 1304 981 c 2,55,-1
 1332 942 l 2,56,57
 1338 934 1338 934 1338 927 c 0,58,59
 1338 925 1338 925 1338 922 c 0,60,61
 1336 912 1336 912 1322 902 c 2,62,-1
 1166 777 l 1,63,64
 1215 688 1215 688 1216 581 c 0,65,66
 1216 525 1216 525 1202 465 c 1,67,-1
 1201 459 l 2,14,15
431 189 m 1,68,69
 485 68 485 68 595 63 c 1,70,-1
 608 63 l 2,71,72
 711 64 711 64 816 172 c 128,-1,73
 921 280 921 280 960 450 c 0,74,75
 976 520 976 520 976 582 c 0,76,77
 976 604 976 604 974 624 c 1,78,-1
 431 189 l 1,68,69
EndSplineSet
Validated: 1
EndChar

StartChar: thorn
Encoding: 254 254 103
Width: 1180
Flags: W
LayerCount: 2
Fore
SplineSet
1297 572 m 0,0,1
 1292 531 1292 531 1281 484 c 0,2,3
 1270 436 1270 436 1243.5 366.5 c 128,-1,4
 1217 297 1217 297 1158 228.5 c 128,-1,5
 1099 160 1099 160 1047 127.5 c 128,-1,6
 995 95 995 95 963 82 c 1,7,8
 874 52 874 52 786.5 22 c 128,-1,9
 699 -8 699 -8 644 -26.5 c 128,-1,10
 589 -45 589 -45 568 -45 c 2,11,-1
 562 -45 l 1,12,13
 495 -42 495 -42 440 -14 c 1,14,-1
 315 -556 l 1,15,16
 225 -523 225 -523 166 -506 c 128,-1,17
 107 -489 107 -489 46 -486 c 1,18,19
 8 -486 8 -486 7 -458 c 0,20,21
 7 -452 7 -452 9 -446 c 0,22,23
 18 -407 18 -407 72.5 -389 c 128,-1,24
 127 -371 127 -371 139 -320 c 2,25,-1
 503 1257 l 2,26,27
 505 1267 505 1267 506 1276 c 0,28,29
 506 1311 506 1311 468 1326 c 128,-1,30
 430 1341 430 1341 430 1371 c 0,31,32
 430 1377 430 1377 431 1383 c 0,33,34
 440 1424 440 1424 487 1424 c 1,35,36
 550 1427 550 1427 616 1443.5 c 128,-1,37
 682 1460 682 1460 788 1493 c 1,38,-1
 645 876 l 1,39,-1
 896 963 l 1,40,41
 934 975 934 975 952 976 c 0,42,43
 964 977 964 977 974 977 c 2,44,-1
 982 977 l 1,45,46
 993 976 993 976 1004 976 c 0,47,48
 1156 968 1156 968 1229 863 c 128,-1,49
 1302 758 1302 758 1302 638 c 0,50,51
 1301 606 1301 606 1297 572 c 0,0,1
660 76 m 2,52,53
 671 76 671 76 699 85.5 c 128,-1,54
 727 95 727 95 766 108 c 128,-1,55
 805 121 805 121 834.5 131.5 c 128,-1,56
 864 142 864 142 879 155 c 0,57,58
 950 216 950 216 987 296.5 c 128,-1,59
 1024 377 1024 377 1035 423 c 256,60,61
 1046 469 1046 469 1049 488 c 0,62,63
 1055 526 1055 526 1055 562 c 0,64,65
 1055 567 1055 567 1055 572 c 0,66,67
 1055 654 1055 654 1026 713 c 0,68,69
 965 835 965 835 833 835 c 0,70,71
 822 835 822 835 804.5 833.5 c 128,-1,72
 787 832 787 832 761.5 823 c 128,-1,73
 736 814 736 814 687.5 795 c 128,-1,74
 639 776 639 776 621 770 c 1,75,-1
 480 162 l 1,76,77
 505 132 505 132 557 104.5 c 128,-1,78
 609 77 609 77 654 76 c 1,79,-1
 660 76 l 2,52,53
EndSplineSet
Validated: 1
EndChar

StartChar: kgreenlandic
Encoding: 312 312 107
Width: 1150
Flags: W
LayerCount: 2
Fore
SplineSet
684 1042 m 1,0,-1
 582 603 l 1,1,-1
 944 848 l 2,2,3
 1026 903 1026 903 1073 929 c 0,4,5
 1111 949 1111 949 1144 949 c 0,6,7
 1169 949 1169 949 1190 936 c 1,8,-1
 1256 889 l 1,9,10
 1270 877 1270 877 1270 862 c 0,11,12
 1270 858 1270 858 1269 855 c 0,13,14
 1268 850 1268 850 1262 840 c 2,15,-1
 1173 710 l 1,16,-1
 1106 750 l 2,17,18
 1088 762 1088 762 1065 762 c 0,19,20
 1041 762 1041 762 1014 745 c 0,21,22
 855 646 855 646 732 564 c 1,23,-1
 991 238 l 2,24,25
 1072 135 1072 135 1097 123 c 0,26,27
 1112 115 1112 115 1131 115 c 0,28,29
 1136 115 1136 115 1148 117 c 0,30,31
 1157 118 1157 118 1166 118 c 0,32,33
 1206 118 1206 118 1212 90 c 0,34,35
 1213 82 1213 82 1211 75 c 0,36,37
 1206 53 1206 53 1180 43 c 1,38,-1
 1110 12 l 1,39,40
 1045 -14 1045 -14 995 -14 c 0,41,42
 959 -14 959 -14 931 -1 c 0,43,44
 869 26 869 26 824 83 c 2,45,-1
 544 439 l 1,46,-1
 477 146 l 2,47,48
 475 135 475 135 474 126 c 0,49,50
 474 90 474 90 511.5 76 c 128,-1,51
 549 62 549 62 549 33 c 0,52,53
 549 27 549 27 548 21 c 0,54,55
 539 -20 539 -20 493 -20 c 2,56,-1
 154 -20 l 2,57,58
 116 -20 116 -20 116 8 c 0,59,60
 116 14 116 14 118 21 c 0,61,62
 127 59 127 59 197 82 c 0,63,64
 235 94 235 94 247 146 c 2,65,-1
 397 799 l 2,66,67
 400 810 400 810 400 819 c 0,68,69
 400 855 400 855 363 872 c 128,-1,70
 326 889 326 889 326 918 c 0,71,72
 326 924 326 924 328 930 c 0,73,74
 337 971 337 971 382 971 c 1,75,76
 445 974 445 974 511.5 990.5 c 128,-1,77
 578 1007 578 1007 684 1042 c 1,0,-1
EndSplineSet
Validated: 1
EndChar

StartChar: lcaron
Encoding: 318 318 108
Width: 665
Flags: W
LayerCount: 2
Fore
SplineSet
447 712 m 1,0,-1
 469 804 l 1,1,2
 436 768 436 768 430 746 c 0,3,4
 427 731 427 731 438 723 c 0,5,6
 443 718 443 718 447 712 c 1,0,-1
407 538 m 1,7,8
 373 508 373 508 310 506 c 1,9,-1
 304 506 l 2,10,11
 212 506 212 506 212 569 c 0,12,13
 212 580 212 580 215 594 c 2,14,-1
 229 659 l 1,15,-1
 230 664 l 2,16,17
 234 681 234 681 246 703 c 1,18,19
 258 727 258 727 268 743 c 0,20,21
 290 782 290 782 337 826 c 128,-1,22
 384 870 384 870 502 947 c 1,23,-1
 573 1257 l 2,24,25
 575 1267 575 1267 576 1276 c 0,26,27
 576 1311 576 1311 538.5 1326 c 128,-1,28
 501 1341 501 1341 501 1371 c 0,29,30
 501 1377 501 1377 502 1383 c 0,31,32
 511 1424 511 1424 557 1424 c 1,33,34
 620 1427 620 1427 686 1443.5 c 128,-1,35
 752 1460 752 1460 858 1493 c 1,36,-1
 770 1115 l 1,37,38
 932 1214 932 1214 992 1265 c 128,-1,39
 1052 1316 1052 1316 1059 1335 c 1,40,-1
 1077 1335 l 2,41,42
 971 1335 971 1335 971 1408 c 0,43,44
 971 1424 971 1424 974 1439 c 2,45,-1
 991 1521 l 1,46,-1
 992 1524 l 2,47,48
 1016 1628 1016 1628 1149 1630 c 1,49,-1
 1156 1630 l 2,50,51
 1264 1630 1264 1630 1265 1552 c 0,52,53
 1265 1540 1265 1540 1262 1526 c 1,54,-1
 1244 1444 l 2,55,56
 1239 1421 1239 1421 1223 1391 c 128,-1,57
 1207 1361 1207 1361 1197 1341 c 0,58,59
 1163 1279 1163 1279 1082 1204.5 c 128,-1,60
 1001 1130 1001 1130 870.5 1053 c 128,-1,61
 740 976 740 976 738 976 c 1,62,-1
 547 146 l 2,63,64
 545 135 545 135 544 126 c 0,65,66
 544 90 544 90 581.5 76 c 128,-1,67
 619 62 619 62 619 33 c 0,68,69
 619 27 619 27 618 21 c 0,70,71
 609 -20 609 -20 563 -20 c 2,72,-1
 224 -20 l 2,73,74
 186 -20 186 -20 186 8 c 0,75,76
 186 14 186 14 188 21 c 0,77,78
 197 59 197 59 251 76.5 c 128,-1,79
 305 94 305 94 317 146 c 2,80,-1
 407 538 l 1,7,8
EndSplineSet
Validated: 1
EndChar

StartChar: Lslash
Encoding: 321 321 109
Width: 1251
Flags: W
LayerCount: 2
Fore
SplineSet
512 114 m 1,0,-1
 914 114 l 2,1,2
 994 114 994 114 1070 181 c 0,3,4
 1145 248 1145 248 1188 288 c 0,5,6
 1221 319 1221 319 1245 319 c 0,7,8
 1283 319 1283 319 1283 291 c 0,9,10
 1283 285 1283 285 1281 278 c 0,11,12
 1278 263 1278 263 1272 253 c 2,13,-1
 1132 -20 l 1,14,-1
 196 -20 l 2,15,16
 158 -20 158 -20 158 8 c 0,17,18
 158 14 158 14 160 21 c 0,19,20
 169 58 169 58 223 76 c 128,-1,21
 277 94 277 94 289 146 c 2,22,-1
 442 810 l 1,23,-1
 254 763 l 2,24,25
 245 761 245 761 238 761 c 0,26,27
 206 761 206 761 205 791 c 2,28,-1
 202 829 l 2,29,30
 202 835 202 835 204 840 c 0,31,32
 210 866 210 866 245 876 c 1,33,-1
 470 933 l 1,34,-1
 545 1257 l 2,35,36
 547 1267 547 1267 548 1276 c 0,37,38
 548 1311 548 1311 511 1326 c 0,39,40
 473 1341 473 1341 473 1371 c 0,41,42
 473 1377 473 1377 474 1383 c 0,43,44
 483 1424 483 1424 530 1424 c 2,45,-1
 869 1424 l 2,46,47
 906 1424 906 1424 906 1396 c 0,48,49
 906 1390 906 1390 904 1383 c 0,50,51
 895 1344 895 1344 841 1326 c 128,-1,52
 787 1308 787 1308 775 1257 c 0,53,54
 745 1126 745 1126 715 995 c 1,55,-1
 937 1051 l 1,56,-1
 946 1051 l 2,57,58
 980 1051 980 1051 983 1022 c 1,59,-1
 985 983 l 2,60,61
 985 977 985 977 983 972 c 0,62,63
 977 944 977 944 941 936 c 1,64,-1
 686 872 l 1,65,-1
 512 114 l 1,0,-1
EndSplineSet
Validated: 1
EndChar

StartChar: lslash
Encoding: 322 322 110
Width: 752
Flags: W
LayerCount: 2
Fore
SplineSet
466 146 m 2,0,1
 464 135 464 135 463 126 c 0,2,3
 463 90 463 90 500 76 c 0,4,5
 539 61 539 61 538 32 c 0,6,7
 538 27 538 27 537 21 c 0,8,9
 528 -20 528 -20 482 -20 c 2,10,-1
 143 -20 l 2,11,12
 105 -20 105 -20 105 8 c 0,13,14
 105 14 105 14 107 21 c 0,15,16
 116 58 116 58 170 76 c 128,-1,17
 224 94 224 94 236 146 c 2,18,-1
 386 796 l 1,19,-1
 254 763 l 2,20,21
 245 761 245 761 238 761 c 0,22,23
 206 761 206 761 205 791 c 2,24,-1
 202 829 l 2,25,26
 202 835 202 835 204 840 c 0,27,28
 210 866 210 866 245 876 c 1,29,-1
 414 919 l 1,30,-1
 492 1257 l 2,31,32
 494 1267 494 1267 495 1276 c 0,33,34
 495 1311 495 1311 458 1326 c 0,35,36
 420 1341 420 1341 420 1371 c 0,37,38
 420 1377 420 1377 421 1383 c 0,39,40
 430 1424 430 1424 476 1424 c 1,41,42
 540 1428 540 1428 605 1444 c 0,43,44
 671 1460 671 1460 777 1493 c 1,45,-1
 658 981 l 1,46,-1
 937 1051 l 1,47,-1
 946 1051 l 2,48,49
 980 1051 980 1051 983 1022 c 1,50,-1
 985 983 l 2,51,52
 985 977 985 977 983 972 c 0,53,54
 977 944 977 944 941 936 c 1,55,-1
 630 858 l 1,56,-1
 466 146 l 2,0,1
EndSplineSet
Validated: 1
EndChar

StartChar: Eng
Encoding: 330 330 111
Width: 1578
Flags: W
LayerCount: 2
Fore
SplineSet
1385 355 m 1,0,-1
 1593 1258 l 2,1,2
 1595 1268 1595 1268 1596 1277 c 0,3,4
 1596 1312 1596 1312 1558.5 1327 c 128,-1,5
 1521 1342 1521 1342 1521 1372 c 0,6,7
 1521 1378 1521 1378 1523 1384 c 0,8,9
 1532 1424 1532 1424 1577 1424 c 2,10,-1
 1856 1424 l 2,11,12
 1894 1424 1894 1424 1894 1396 c 0,13,14
 1894 1390 1894 1390 1893 1384 c 0,15,16
 1884 1345 1884 1345 1829.5 1327 c 128,-1,17
 1775 1309 1775 1309 1763 1258 c 2,18,-1
 1515 180 l 2,19,20
 1472 -5 1472 -5 1428 -111 c 128,-1,21
 1384 -217 1384 -217 1305 -288 c 1,22,23
 1228 -365 1228 -365 1063 -434 c 1,24,-1
 1085 -339 l 1,25,26
 1137 -311 1137 -311 1176.5 -276.5 c 128,-1,27
 1216 -242 1216 -242 1248 -184 c 0,28,29
 1270 -143 1270 -143 1299 -19 c 1,30,-1
 1294 -17 l 1,31,-1
 639 1121 l 1,32,-1
 414 146 l 2,33,34
 412 135 412 135 411 126 c 0,35,36
 411 90 411 90 448.5 76 c 128,-1,37
 486 62 486 62 486 33 c 0,38,39
 486 27 486 27 485 21 c 0,40,41
 476 -20 476 -20 429 -20 c 2,42,-1
 175 -20 l 2,43,44
 137 -20 137 -20 137 8 c 0,45,46
 137 14 137 14 139 21 c 0,47,48
 148 59 148 59 202 76.5 c 128,-1,49
 256 94 256 94 268 146 c 2,50,-1
 524 1257 l 2,51,52
 526 1267 526 1267 527 1276 c 0,53,54
 527 1311 527 1311 489.5 1326 c 128,-1,55
 452 1341 452 1341 452 1371 c 0,56,57
 452 1377 452 1377 453 1383 c 0,58,59
 462 1424 462 1424 509 1424 c 2,60,-1
 780 1424 l 1,61,-1
 1385 355 l 1,0,-1
EndSplineSet
Validated: 1
EndChar

StartChar: eng
Encoding: 331 331 112
Width: 1195
Flags: W
LayerCount: 2
Fore
SplineSet
1089 12 m 2,0,1
 1043 -187 1043 -187 993 -286 c 128,-1,2
 943 -385 943 -385 858 -457 c 1,3,4
 739 -556 739 -556 579 -594 c 1,5,-1
 599 -507 l 1,6,7
 711 -448 711 -448 763 -353 c 1,8,9
 783 -314 783 -314 800 -241 c 128,-1,10
 817 -168 817 -168 857 6 c 2,11,-1
 973 506 l 2,12,13
 994 596 994 596 994 663 c 0,14,15
 994 753 994 753 956 801 c 0,16,17
 917 851 917 851 844 851 c 0,18,19
 801 851 801 851 746 834 c 0,20,21
 722 826 722 826 685.5 813.5 c 128,-1,22
 649 801 649 801 622 791 c 1,23,24
 597 783 597 783 592 781 c 1,25,-1
 446 146 l 2,26,27
 444 135 444 135 443 126 c 0,28,29
 443 90 443 90 480.5 76 c 128,-1,30
 518 62 518 62 518 33 c 0,31,32
 518 27 518 27 517 21 c 0,33,34
 508 -20 508 -20 462 -20 c 2,35,-1
 123 -20 l 2,36,37
 85 -20 85 -20 85 8 c 0,38,39
 85 14 85 14 87 21 c 0,40,41
 96 59 96 59 150 76.5 c 128,-1,42
 204 94 204 94 216 146 c 2,43,-1
 363 786 l 2,44,45
 365 796 365 796 366 805 c 0,46,47
 366 840 366 840 328.5 854.5 c 128,-1,48
 291 869 291 869 291 899 c 0,49,50
 291 905 291 905 292 911 c 0,51,52
 301 952 301 952 347 952 c 1,53,54
 410 955 410 955 476 972 c 128,-1,55
 542 989 542 989 648 1022 c 1,56,-1
 616 885 l 1,57,58
 638 892 638 892 683.5 908 c 128,-1,59
 729 924 729 924 770 937 c 0,60,61
 874 971 874 971 978 981 c 0,62,63
 992 982 992 982 1007 982 c 0,64,65
 1101 982 1101 982 1169 919 c 0,66,67
 1232 860 1232 860 1232 725 c 0,68,69
 1232 633 1232 633 1203 506 c 2,70,-1
 1089 12 l 2,0,1
EndSplineSet
Validated: 1
EndChar

StartChar: OE
Encoding: 338 338 113
Width: 2044
Flags: W
LayerCount: 2
Fore
SplineSet
1388 114 m 1,0,-1
 1791 114 l 2,1,2
 1870 114 1870 114 1946.5 181 c 128,-1,3
 2023 248 2023 248 2065 288 c 0,4,5
 2098 319 2098 319 2122 319 c 0,6,7
 2160 319 2160 319 2160 291 c 0,8,9
 2160 285 2160 285 2158 278 c 0,10,11
 2155 263 2155 263 2149 253 c 2,12,-1
 2009 -20 l 1,13,-1
 1067 -20 l 1,14,15
 955 -49 955 -49 840 -55 c 0,16,17
 817 -56 817 -56 793 -56 c 0,18,19
 504 -56 504 -56 328 143 c 0,20,21
 201 286 201 286 201 489 c 0,22,23
 201 574 201 574 223 669 c 0,24,25
 227 687 227 687 233 706 c 0,26,27
 325 1053 325 1053 587.5 1257.5 c 128,-1,28
 850 1462 850 1462 1193 1466 c 1,29,-1
 1201 1466 l 2,30,31
 1374 1466 1374 1466 1484 1424 c 1,32,-1
 2360 1424 l 1,33,-1
 2296 1147 l 2,34,35
 2287 1106 2287 1106 2240 1106 c 0,36,37
 2215 1106 2215 1106 2193 1156 c 1,38,39
 2160 1224 2160 1224 2135 1257.5 c 128,-1,40
 2110 1291 2110 1291 2063 1291 c 2,41,-1
 1660 1291 l 1,42,-1
 1544 788 l 1,43,-1
 1749 788 l 2,44,45
 1795 788 1795 788 1826.5 839.5 c 128,-1,46
 1858 891 1858 891 1902 891 c 0,47,48
 1940 891 1940 891 1940 863 c 0,49,50
 1940 857 1940 857 1938 850 c 2,51,-1
 1880 596 l 2,52,53
 1871 555 1871 555 1824 555 c 0,54,55
 1781 555 1781 555 1770 606 c 128,-1,56
 1759 657 1759 657 1712 657 c 2,57,-1
 1514 657 l 1,58,-1
 1388 114 l 1,0,-1
1423 1261 m 1,59,60
 1329 1338 1329 1338 1163 1338 c 0,61,62
 871 1337 871 1337 711 1152 c 128,-1,63
 551 967 551 967 490 702 c 256,64,65
 468 608 468 608 468 525 c 0,66,67
 468 521 468 521 468 518 c 0,68,69
 468 369 468 369 553.5 218.5 c 128,-1,70
 639 68 639 68 869 66 c 1,71,-1
 875 66 l 2,72,73
 1027 66 1027 66 1168 161 c 1,74,-1
 1423 1261 l 1,59,60
EndSplineSet
Validated: 1
EndChar

StartChar: Tbar
Encoding: 358 358 114
Width: 1255
Flags: W
LayerCount: 2
Fore
SplineSet
1530 1147 m 2,0,1
 1521 1106 1521 1106 1474 1106 c 0,2,3
 1451 1106 1451 1106 1426 1156 c 0,4,5
 1392 1224 1392 1224 1367 1258 c 0,6,7
 1344 1291 1344 1291 1298 1291 c 0,8,9
 1297 1291 1297 1291 1295 1291 c 2,10,-1
 1069 1291 l 1,11,-1
 993 961 l 1,12,-1
 1402 961 l 2,13,14
 1451 961 1451 961 1451 931 c 0,15,16
 1451 926 1451 926 1450 921 c 2,17,-1
 1441 882 l 2,18,19
 1432 843 1432 843 1375 843 c 2,20,-1
 966 843 l 1,21,-1
 805 146 l 2,22,23
 803 135 803 135 802 126 c 0,24,25
 802 90 802 90 839 76 c 0,26,27
 877 61 877 61 877 32 c 0,28,29
 877 26 877 26 876 20 c 0,30,31
 867 -20 867 -20 821 -20 c 2,32,-1
 482 -20 l 2,33,34
 444 -20 444 -20 444 8 c 0,35,36
 444 14 444 14 446 20 c 0,37,38
 455 58 455 58 509 76 c 128,-1,39
 563 94 563 94 575 146 c 2,40,-1
 736 843 l 1,41,-1
 323 843 l 2,42,43
 273 843 273 843 272 872 c 0,44,45
 272 877 272 877 274 882 c 2,46,-1
 283 921 l 2,47,48
 292 961 292 961 350 961 c 2,49,-1
 763 961 l 1,50,-1
 839 1291 l 1,51,-1
 609 1291 l 2,52,53
 608 1291 608 1291 606 1291 c 0,54,55
 560 1291 560 1291 520 1258 c 0,56,57
 479 1224 479 1224 415 1156 c 0,58,59
 368 1106 368 1106 344 1106 c 0,60,61
 306 1106 306 1106 306 1134 c 0,62,63
 306 1140 306 1140 308 1147 c 2,64,-1
 351 1332 l 2,65,66
 366 1396 366 1396 396 1412 c 0,67,68
 427 1428 427 1428 512 1429 c 2,69,-1
 1456 1429 l 2,70,71
 1461 1429 1461 1429 1467 1429 c 0,72,73
 1550 1429 1550 1429 1568 1414 c 0,74,75
 1579 1405 1579 1405 1580 1381 c 0,76,77
 1580 1362 1580 1362 1573 1332 c 2,78,-1
 1530 1147 l 2,0,1
EndSplineSet
Validated: 1
EndChar

StartChar: tbar
Encoding: 359 359 115
Width: 663
Flags: W
LayerCount: 2
Fore
SplineSet
303 820 m 1,0,1
 265 820 265 820 266 850 c 0,2,3
 266 855 266 855 267 860 c 1,4,-1
 267 862 l 2,5,6
 273 889 273 889 309 904 c 0,7,8
 329 913 329 913 374 934 c 128,-1,9
 419 955 419 955 432 960 c 0,10,11
 437 962 437 962 437 963 c 0,12,13
 437 965 437 965 430 965 c 1,14,-1
 465 1116 l 2,15,16
 478 1172 478 1172 508 1196 c 0,17,18
 539 1220 539 1220 600 1246 c 128,-1,19
 661 1272 661 1272 684 1273 c 0,20,21
 723 1273 723 1273 723 1242 c 0,22,23
 723 1235 723 1235 721 1227 c 2,24,-1
 662 969 l 1,25,-1
 877 973 l 2,26,27
 911 973 911 973 911 951 c 0,28,29
 911 947 911 947 910 943 c 0,30,31
 903 912 903 912 893 890 c 0,32,33
 864 826 864 826 809 826 c 2,34,-1
 629 827 l 1,35,-1
 582 624 l 1,36,-1
 764 624 l 2,37,38
 805 624 805 624 796 585 c 2,39,-1
 787 547 l 2,40,41
 778 508 778 508 737 508 c 0,42,43
 646 508 646 508 555 508 c 1,44,-1
 489 220 l 2,45,46
 484 196 484 196 483 176 c 0,47,48
 483 126 483 126 517 98 c 0,49,50
 564 58 564 58 622 50 c 1,51,-1
 606 -19 l 1,52,53
 428 -19 428 -19 323 12 c 0,54,55
 251 33 251 33 250 139 c 0,56,57
 250 186 250 186 265 250 c 2,58,-1
 325 509 l 1,59,60
 278 509 278 509 231 509 c 0,61,62
 197 509 197 509 197 535 c 0,63,64
 197 541 197 541 198 547 c 2,65,-1
 207 585 l 2,66,67
 216 624 216 624 256 624 c 2,68,-1
 351 624 l 1,69,-1
 397 824 l 1,70,-1
 303 820 l 1,0,1
EndSplineSet
Validated: 1
EndChar

StartChar: longs
Encoding: 383 383 116
Width: 625
Flags: W
LayerCount: 2
Fore
SplineSet
397 824 m 1,0,1
 385 824 385 824 308 820 c 1,2,-1
 302 820 l 2,3,4
 265 820 265 820 266 849 c 0,5,6
 266 854 266 854 267 860 c 1,7,-1
 267 862 l 2,8,9
 273 889 273 889 309 904 c 0,10,11
 330 913 330 913 400 947 c 0,12,13
 418 955 418 955 436 962 c 0,14,15
 439 963 439 963 440 964 c 256,16,17
 440 965 440 965 430 965 c 1,18,-1
 444 1027 l 2,19,20
 474 1156 474 1156 517 1238 c 0,21,22
 546 1293 546 1293 584 1330 c 0,23,24
 606 1352 606 1352 641 1363 c 2,25,-1
 918 1458 l 2,26,27
 932 1463 932 1463 962 1465 c 1,28,-1
 967 1465 l 2,29,30
 997 1465 997 1465 1020 1448 c 1,31,32
 1046 1426 1046 1426 1053 1408 c 1,33,34
 1055 1401 1055 1401 1055 1392 c 0,35,36
 1055 1381 1055 1381 1052 1368 c 0,37,38
 1050 1359 1050 1359 1047 1350 c 0,39,40
 1030 1290 1030 1290 997 1281 c 1,41,-1
 990 1281 l 2,42,43
 970 1281 970 1281 946 1301 c 1,44,45
 911 1327 911 1327 873 1327 c 0,46,47
 851 1327 851 1327 827 1318 c 0,48,49
 749 1288 749 1288 719 1197 c 0,50,51
 706 1160 706 1160 696 1116.5 c 128,-1,52
 686 1073 686 1073 675 1027 c 2,53,-1
 472 146 l 2,54,55
 470 135 470 135 469 126 c 0,56,57
 469 90 469 90 506.5 76 c 128,-1,58
 544 62 544 62 544 33 c 0,59,60
 544 27 544 27 543 21 c 0,61,62
 534 -20 534 -20 487 -20 c 2,63,-1
 148 -20 l 2,64,65
 110 -20 110 -20 110 8 c 0,66,67
 110 14 110 14 112 21 c 0,68,69
 121 59 121 59 175 76.5 c 128,-1,70
 229 94 229 94 241 146 c 2,71,-1
 397 824 l 1,0,1
EndSplineSet
Validated: 1
EndChar

StartChar: florin
Encoding: 402 402 117
Width: 722
Flags: W
LayerCount: 2
Fore
SplineSet
441 12 m 2,0,1
 395 -187 395 -187 344.5 -286 c 128,-1,2
 294 -385 294 -385 209 -457 c 1,3,4
 90 -556 90 -556 -70 -594 c 1,5,-1
 -50 -507 l 1,6,7
 62 -448 62 -448 114 -353 c 1,8,9
 134 -314 134 -314 151 -241 c 128,-1,10
 168 -168 168 -168 208 6 c 2,11,-1
 397 824 l 1,12,13
 385 824 385 824 308 820 c 1,14,-1
 302 820 l 2,15,16
 265 820 265 820 266 849 c 0,17,18
 266 854 266 854 267 860 c 1,19,-1
 267 862 l 2,20,21
 273 889 273 889 309 904 c 0,22,23
 330 913 330 913 400 947 c 0,24,25
 418 955 418 955 436 962 c 0,26,27
 439 963 439 963 440 964 c 256,28,29
 440 965 440 965 430 965 c 1,30,-1
 444 1027 l 2,31,32
 477 1171 477 1171 515 1235.5 c 128,-1,33
 553 1300 553 1300 584 1329 c 1,34,35
 606 1352 606 1352 641 1363 c 2,36,-1
 918 1458 l 2,37,38
 932 1463 932 1463 962 1465 c 1,39,-1
 967 1465 l 2,40,41
 997 1465 997 1465 1020 1448 c 1,42,43
 1051 1422 1051 1422 1052 1384 c 0,44,45
 1052 1372 1052 1372 1049 1358 c 2,46,-1
 1047 1351 l 1,47,48
 1028 1284 1028 1284 983 1284 c 0,49,50
 963 1284 963 1284 946 1302 c 1,51,52
 919 1325 919 1325 877 1325 c 2,53,-1
 870 1325 l 1,54,55
 817 1322 817 1322 790 1312 c 0,56,57
 753 1298 753 1298 726.5 1216 c 128,-1,58
 700 1134 700 1134 675 1027 c 2,59,-1
 662 969 l 1,60,-1
 876 973 l 1,61,-1
 877 973 l 2,62,63
 909 973 909 973 908 944 c 0,64,65
 908 936 908 936 906 927 c 0,66,67
 903 912 903 912 893 890 c 0,68,69
 864 826 864 826 809 826 c 2,70,-1
 629 827 l 1,71,-1
 441 12 l 2,0,1
EndSplineSet
Validated: 1
EndChar

StartChar: uni0256
Encoding: 598 598 118
Width: 1140
Flags: W
LayerCount: 2
Fore
SplineSet
811 154 m 1,0,-1
 946 741 l 1,1,2
 918 772 918 772 865.5 800 c 128,-1,3
 813 828 813 828 770 830 c 0,4,5
 755 830 755 830 737 824 c 0,6,7
 698 811 698 811 660.5 798 c 128,-1,8
 623 785 623 785 585 773 c 1,9,10
 565 765 565 765 552 753 c 0,11,12
 482 693 482 693 442 607 c 0,13,14
 410 539 410 539 395 473 c 0,15,16
 390 452 390 452 387 429 c 0,17,18
 381 386 381 386 381 349 c 0,19,20
 381 269 381 269 410 211 c 0,21,22
 452 127 452 127 534 103 c 0,23,24
 566 93 566 93 598 93 c 0,25,26
 610 93 610 93 621 94 c 0,27,28
 639 96 639 96 667 105 c 0,29,30
 690 112 690 112 742 130 c 0,31,32
 791 147 791 147 811 154 c 1,0,-1
787 54 m 1,33,-1
 535 -32 l 2,34,35
 501 -43 501 -43 472 -45 c 1,36,37
 445 -45 445 -45 429 -44 c 0,38,39
 281 -39 281 -39 201 76 c 0,40,41
 140 163 140 163 140 277 c 0,42,43
 140 311 140 311 145 348 c 0,44,45
 151 390 151 390 160 430 c 0,46,47
 172 481 172 481 190 528 c 0,48,49
 222 613 222 613 296 700 c 1,50,51
 332 745 332 745 408 794 c 0,52,53
 438 814 438 814 471 825 c 0,54,55
 557 855 557 855 642 884 c 128,-1,56
 727 913 727 913 809 941 c 1,57,58
 832 950 832 950 860 950 c 1,59,60
 927 947 927 947 988 922 c 1,61,-1
 1111 1454 l 1,62,63
 1199 1420 1199 1420 1255.5 1404 c 128,-1,64
 1312 1388 1312 1388 1373 1385 c 1,65,66
 1410 1385 1410 1385 1410 1357 c 0,67,68
 1410 1351 1410 1351 1408 1344 c 0,69,70
 1399 1307 1399 1307 1346.5 1289.5 c 128,-1,71
 1294 1272 1294 1272 1282 1222 c 2,72,-1
 1001 6 l 2,73,74
 962 -163 962 -163 947.5 -229.5 c 128,-1,75
 933 -296 933 -296 933 -331 c 0,76,77
 933 -337 933 -337 933 -342 c 0,78,79
 940 -436 940 -436 1022 -493 c 1,80,-1
 1002 -579 l 1,81,82
 864 -542 864 -542 791 -445 c 1,83,84
 741 -375 741 -375 739 -322.5 c 128,-1,85
 737 -270 737 -270 737 -261 c 0,86,87
 737 -165 737 -165 778 11 c 2,88,-1
 787 54 l 1,33,-1
EndSplineSet
Validated: 1
EndChar

StartChar: uni0261
Encoding: 609 609 119
Width: 1164
Flags: W
LayerCount: 2
Fore
SplineSet
1074 199 m 2,0,1
 1059 134 1059 134 1059 82 c 0,2,3
 1059 58 1059 58 1066 15 c 128,-1,4
 1073 -28 1073 -28 1084 -153 c 0,5,6
 1085 -167 1085 -167 1085 -181 c 0,7,8
 1085 -222 1085 -222 1076 -261 c 0,9,10
 1059 -333 1059 -333 1012 -400 c 0,11,12
 928 -519 928 -519 790 -566 c 0,13,14
 697 -598 697 -598 600 -598 c 0,15,16
 582 -598 582 -598 563 -597 c 0,17,18
 452 -590 452 -590 341.5 -574.5 c 128,-1,19
 231 -559 231 -559 124 -552 c 0,20,21
 107 -551 107 -551 91 -551 c 0,22,23
 7 -551 7 -551 -74 -579 c 0,24,25
 -117 -594 -117 -594 -146 -594 c 0,26,27
 -156 -594 -156 -594 -165 -593 c 0,28,29
 -185 -589 -185 -589 -185 -574 c 0,30,31
 -185 -571 -185 -571 -184 -568 c 0,32,33
 -178 -544 -178 -544 -57 -472 c 0,34,35
 58 -404 58 -404 163 -404 c 0,36,37
 261 -404 261 -404 353.5 -420 c 128,-1,38
 446 -436 446 -436 535 -446 c 0,39,40
 551 -448 551 -448 566 -448 c 0,41,42
 632 -448 632 -448 701 -416 c 0,43,44
 775 -382 775 -382 820 -334 c 0,45,46
 844 -310 844 -310 851 -276 c 0,47,48
 857 -249 857 -249 853 -215 c 2,49,-1
 820 59 l 1,50,-1
 550 -32 l 2,51,52
 510 -45 510 -45 484 -45 c 2,53,-1
 442 -45 l 1,54,55
 290 -37 290 -37 208 77 c 0,56,57
 144 168 144 168 144 288 c 0,58,59
 144 322 144 322 149 358 c 0,60,61
 155 400 155 400 164 440 c 0,62,63
 176 493 176 493 194 543 c 0,64,65
 228 632 228 632 304 720 c 1,66,67
 342 767 342 767 421 818 c 1,68,69
 450 835 450 835 483 848 c 1,70,71
 571 878 571 878 658.5 908 c 128,-1,72
 746 938 746 938 833 968 c 0,73,74
 857 976 857 976 877 976 c 2,75,-1
 883 976 l 1,76,77
 950 973 950 973 1039 942 c 0,78,79
 1048 939 1048 939 1050 937 c 1,80,81
 1068 929 1068 929 1097 919 c 0,82,83
 1104 916 1104 916 1111 916 c 0,84,85
 1117 916 1117 916 1122 919 c 0,86,87
 1145 935 1145 935 1154 945 c 0,88,89
 1171 962 1171 962 1193 962 c 0,90,91
 1204 962 1204 962 1212 958 c 0,92,93
 1241 947 1241 947 1241 927 c 0,94,95
 1241 924 1241 924 1240 920 c 2,96,-1
 1074 199 l 2,0,1
833 158 m 1,97,-1
 847 219 l 1,98,-1
 848 219 l 1,99,-1
 973 762 l 1,100,101
 948 792 948 792 892.5 822 c 128,-1,102
 837 852 837 852 791 854 c 1,103,-1
 788 854 l 2,104,105
 774 854 774 854 757 848 c 0,106,107
 718 835 718 835 679.5 821.5 c 128,-1,108
 641 808 641 808 602 795 c 1,109,110
 581 787 581 787 567 775 c 0,111,112
 495 713 495 713 454 624 c 1,113,114
 421 554 421 554 405 486 c 0,115,116
 400 465 400 465 397 442 c 0,117,118
 390 397 390 397 390 358 c 0,119,120
 390 276 390 276 420 217 c 1,121,122
 462 130 462 130 548 105 c 0,123,124
 580 95 580 95 615 95 c 0,125,126
 626 95 626 95 637 96 c 0,127,128
 655 98 655 98 685 107 c 0,129,130
 710 115 710 115 762 133 c 128,-1,131
 814 151 814 151 833 158 c 1,97,-1
EndSplineSet
Validated: 1
EndChar

StartChar: uni0262
Encoding: 610 610 120
Width: 1078
Flags: W
LayerCount: 2
Fore
SplineSet
612 -46 m 0,0,1
 393 -46 393 -46 275.5 70.5 c 128,-1,2
 158 187 158 187 158 336 c 0,3,4
 158 395 158 395 174 463 c 0,5,6
 228 695 228 695 423.5 835.5 c 128,-1,7
 619 976 619 976 848 976 c 0,8,9
 929 976 929 976 1017 958.5 c 128,-1,10
 1105 941 1105 941 1187 882 c 1,11,-1
 1130 711 l 1,12,13
 1118 681 1118 681 1085 681 c 2,14,-1
 1081 681 l 1,15,16
 1054 684 1054 684 1049 714 c 1,17,18
 1028 799 1028 799 976 830.5 c 128,-1,19
 924 862 924 862 822 862 c 0,20,21
 758 862 758 862 674 823.5 c 128,-1,22
 590 785 590 785 520 699 c 0,23,24
 440 599 440 599 409 463 c 0,25,26
 397 413 397 413 397 367 c 0,27,28
 397 271 397 271 460.5 176 c 128,-1,29
 524 81 524 81 642 73 c 0,30,31
 667 71 667 71 688 71 c 0,32,33
 746 71 746 71 783 84 c 0,34,35
 831 100 831 100 882 162 c 1,36,-1
 910 281 l 1,37,38
 912 292 912 292 904 297 c 0,39,40
 889 305 889 305 850.5 322 c 128,-1,41
 812 339 812 339 818 365 c 0,42,43
 826 399 826 399 865 399 c 2,44,-1
 1154 399 l 2,45,46
 1193 399 1193 399 1185 365 c 0,47,48
 1178 335 1178 335 1141.5 323 c 128,-1,49
 1105 311 1105 311 1098 282 c 2,50,-1
 1034 5 l 1,51,52
 953 1 953 1 910 -5.5 c 128,-1,53
 867 -12 867 -12 813 -23 c 1,54,55
 721 -46 721 -46 612 -46 c 0,0,1
EndSplineSet
Validated: 1
EndChar

StartChar: uni026A
Encoding: 618 618 121
Width: 452
Flags: W
LayerCount: 2
Fore
SplineSet
402 146 m 2,0,1
 400 135 400 135 399 126 c 0,2,3
 399 90 399 90 436.5 76 c 128,-1,4
 474 62 474 62 474 33 c 0,5,6
 474 27 474 27 473 21 c 0,7,8
 464 -20 464 -20 418 -20 c 2,9,-1
 85 -20 l 2,10,11
 47 -20 47 -20 47 8 c 0,12,13
 47 14 47 14 49 21 c 0,14,15
 58 59 58 59 112 76.5 c 128,-1,16
 166 94 166 94 178 146 c 2,17,-1
 325 785 l 2,18,19
 327 795 327 795 328 804 c 0,20,21
 328 839 328 839 290.5 854 c 128,-1,22
 253 869 253 869 253 899 c 0,23,24
 253 905 253 905 254 911 c 0,25,26
 263 951 263 951 310 951 c 2,27,-1
 643 951 l 2,28,29
 680 951 680 951 680 923 c 0,30,31
 680 917 680 917 678 911 c 0,32,33
 669 872 669 872 615 854 c 128,-1,34
 561 836 561 836 549 785 c 2,35,-1
 402 146 l 2,0,1
EndSplineSet
Validated: 1
EndChar

StartChar: uni0274
Encoding: 628 628 122
Width: 1142
Flags: W
LayerCount: 2
Fore
SplineSet
954 267 m 1,0,-1
 1073 784 l 2,1,2
 1075 794 1075 794 1075 803 c 0,3,4
 1075 838 1075 838 1038 853 c 128,-1,5
 1001 868 1001 868 1001 898 c 0,6,7
 1001 904 1001 904 1002 910 c 0,8,9
 1011 951 1011 951 1058 951 c 2,10,-1
 1312 951 l 2,11,12
 1350 951 1350 951 1350 923 c 0,13,14
 1350 917 1350 917 1348 910 c 0,15,16
 1339 871 1339 871 1283 853 c 128,-1,17
 1227 835 1227 835 1215 784 c 2,18,-1
 1018 -71 l 1,19,-1
 833 -17 l 1,20,-1
 428 650 l 1,21,-1
 312 146 l 2,22,23
 310 135 310 135 309 126 c 0,24,25
 309 90 309 90 346.5 76 c 128,-1,26
 384 62 384 62 384 33 c 0,27,28
 384 27 384 27 383 21 c 0,29,30
 374 -20 374 -20 328 -20 c 2,31,-1
 73 -20 l 2,32,33
 35 -20 35 -20 35 8 c 0,34,35
 35 14 35 14 37 21 c 0,36,37
 46 59 46 59 101.5 76.5 c 128,-1,38
 157 94 157 94 169 146 c 2,39,-1
 316 784 l 2,40,41
 318 794 318 794 318 803 c 0,42,43
 318 838 318 838 281 853 c 128,-1,44
 244 868 244 868 244 898 c 0,45,46
 244 904 244 904 245 910 c 0,47,48
 254 951 254 951 301 951 c 2,49,-1
 550 951 l 1,50,-1
 954 267 l 1,0,-1
EndSplineSet
Validated: 1
EndChar

StartChar: uni0276
Encoding: 630 630 123
Width: 1506
Flags: W
LayerCount: 2
Fore
SplineSet
806 976 m 0,0,1
 858 976 858 976 903.5 963.5 c 128,-1,2
 949 951 949 951 990 951 c 2,3,-1
 1652 951 l 1,4,-1
 1603 740 l 2,5,6
 1594 702 1594 702 1554 697 c 1,7,-1
 1550 697 l 2,8,9
 1523 697 1523 697 1500 743 c 1,10,11
 1478 790 1478 790 1470 809 c 128,-1,12
 1462 828 1462 828 1438 828 c 2,13,-1
 1212 828 l 1,14,-1
 1143 529 l 1,15,-1
 1237 529 l 2,16,17
 1252 529 1252 529 1269 545 c 2,18,-1
 1326 598 l 1,19,20
 1371 598 1371 598 1371 572 c 0,21,22
 1371 568 1371 568 1370 564 c 2,23,-1
 1326 374 l 2,24,25
 1318 340 1318 340 1279 340 c 0,26,27
 1251 340 1251 340 1246 362.5 c 128,-1,28
 1241 385 1241 385 1232 396 c 0,29,30
 1223 408 1223 408 1209 408 c 2,31,-1
 1115 408 l 1,32,-1
 1044 98 l 1,33,-1
 1271 98 l 2,34,35
 1319 98 1319 98 1356 133 c 128,-1,36
 1393 168 1393 168 1421 194 c 1,37,38
 1458 232 1458 232 1483 232 c 2,39,-1
 1485 232 l 1,40,41
 1523 229 1523 229 1522 201 c 0,42,43
 1522 195 1522 195 1521 189 c 0,44,45
 1519 179 1519 179 1512 167 c 2,46,-1
 1416 -20 l 1,47,-1
 738 -20 l 2,48,49
 703 -20 703 -20 659 -31 c 128,-1,50
 615 -42 615 -42 572 -45 c 0,51,52
 557 -46 557 -46 541 -46 c 0,53,54
 342 -46 342 -46 223 89 c 1,55,56
 137 184 137 184 136 321 c 0,57,58
 136 377 136 377 151 441 c 2,59,-1
 156 465 l 1,60,61
 218 698 218 698 395 835.5 c 128,-1,62
 572 973 572 973 806 976 c 0,0,1
842 197 m 1,63,-1
 970 748 l 1,64,65
 915 838 915 838 777 838 c 2,66,-1
 774 838 l 2,67,68
 603 838 603 838 509 729.5 c 128,-1,69
 415 621 415 621 379 464 c 0,70,71
 366 410 366 410 366 361 c 0,72,73
 366 358 366 358 366 354 c 0,74,75
 366 266 366 266 416.5 178 c 128,-1,76
 467 90 467 90 602 89 c 1,77,-1
 607 89 l 2,78,79
 731 89 731 89 842 197 c 1,63,-1
EndSplineSet
Validated: 1
EndChar

StartChar: uni0280
Encoding: 640 640 124
Width: 1010
Flags: W
LayerCount: 2
Fore
SplineSet
952 82 m 1,0,-1
 967 74 l 2,1,2
 981 66 981 66 1002 65 c 1,3,4
 1044 60 1044 60 1044 32 c 0,5,6
 1044 27 1044 27 1043 21 c 2,7,-1
 1042 18 l 2,8,9
 1033 -20 1033 -20 988 -20 c 2,10,-1
 758 -20 l 2,11,12
 732 -20 732 -20 651 144 c 128,-1,13
 570 308 570 308 519 399 c 1,14,-1
 460 399 l 1,15,-1
 402 146 l 2,16,17
 400 135 400 135 399 126 c 0,18,19
 399 90 399 90 436.5 76 c 128,-1,20
 474 62 474 62 474 33 c 0,21,22
 474 27 474 27 473 21 c 0,23,24
 464 -20 464 -20 418 -20 c 2,25,-1
 85 -20 l 2,26,27
 47 -20 47 -20 47 8 c 0,28,29
 47 14 47 14 49 21 c 0,30,31
 58 58 58 58 112 76 c 128,-1,32
 166 94 166 94 178 146 c 2,33,-1
 325 785 l 2,34,35
 327 795 327 795 328 804 c 0,36,37
 328 839 328 839 290.5 854 c 128,-1,38
 253 869 253 869 253 899 c 0,39,40
 253 905 253 905 254 911 c 0,41,42
 263 951 263 951 310 951 c 2,43,-1
 800 951 l 2,44,45
 875 951 875 951 951 924.5 c 128,-1,46
 1027 898 1027 898 1057 821 c 0,47,48
 1068 790 1068 790 1068 752 c 0,49,50
 1068 718 1068 718 1059 678 c 1,51,52
 1039 598 1039 598 978 533 c 1,53,54
 928 481 928 481 855 453.5 c 128,-1,55
 782 426 782 426 764 425 c 1,56,-1
 952 82 l 1,0,-1
486 509 m 1,57,-1
 610 509 l 2,58,59
 693 509 693 509 760 562 c 0,60,61
 818 607 818 607 835 681 c 2,62,-1
 836 684 l 2,63,64
 841 707 841 707 841 727 c 0,65,66
 841 773 841 773 814 806 c 0,67,68
 789 835 789 835 767.5 838 c 128,-1,69
 746 841 746 841 700 841 c 2,70,-1
 562 841 l 1,71,-1
 486 509 l 1,57,-1
EndSplineSet
Validated: 1
EndChar

StartChar: uni028F
Encoding: 655 655 125
Width: 940
Flags: W
LayerCount: 2
Fore
SplineSet
483 404 m 1,0,-1
 368 754 l 1,1,2
 355 786 355 786 315 812 c 0,3,4
 293 825 293 825 270 834.5 c 128,-1,5
 247 844 247 844 233 855 c 1,6,7
 217 864 217 864 213 877 c 1,8,9
 211 883 211 883 211 889 c 0,10,11
 211 893 211 893 212 896 c 2,12,-1
 213 900 l 1,13,14
 223 925 223 925 254 925 c 2,15,-1
 583 925 l 2,16,17
 598 925 598 925 612 916 c 0,18,19
 626 908 626 908 632 894 c 0,20,21
 636 884 636 884 634 875 c 0,22,23
 631 863 631 863 618 849 c 1,24,25
 589 823 589 823 586 815 c 1,26,-1
 585 811 l 2,27,28
 581 795 581 795 590 777 c 1,29,-1
 691 508 l 1,30,-1
 807 642 l 2,31,32
 841 682 841 682 852 708 c 1,33,-1
 855 718 l 2,34,35
 857 727 857 727 857 738 c 0,36,37
 857 758 857 758 850 785 c 2,38,-1
 828 867 l 1,39,-1
 1000 935 l 1,40,41
 1013 942 1013 942 1028 942 c 0,42,43
 1055 942 1055 942 1067 915 c 1,44,-1
 1103 816 l 2,45,46
 1108 803 1108 803 1108 789 c 0,47,48
 1108 780 1108 780 1106 771 c 0,49,50
 1097 730 1097 730 1050 691 c 0,51,52
 988 638 988 638 910 555 c 2,53,-1
 757 391 l 1,54,55
 736 370 736 370 720.5 324.5 c 128,-1,56
 705 279 705 279 696 237 c 2,57,-1
 674 142 l 2,58,59
 672 132 672 132 671 123 c 0,60,61
 671 88 671 88 708 74 c 128,-1,62
 745 60 745 60 745 31 c 0,63,64
 745 26 745 26 744 20 c 0,65,66
 735 -20 735 -20 688 -20 c 2,67,-1
 359 -20 l 2,68,69
 322 -20 322 -20 322 8 c 0,70,71
 322 14 322 14 324 20 c 0,72,73
 333 57 333 57 385 74.5 c 128,-1,74
 437 92 437 92 449 142 c 2,75,-1
 488 311 l 2,76,77
 493 332 493 332 493 352 c 0,78,79
 492 380 492 380 483 404 c 1,0,-1
EndSplineSet
Validated: 1
EndChar

StartChar: uni0299
Encoding: 665 665 126
Width: 865
Flags: W
LayerCount: 2
Fore
SplineSet
365 69 m 1,0,-1
 470 69 l 2,1,2
 514 69 514 69 561 81.5 c 128,-1,3
 608 94 608 94 647 125 c 0,4,5
 708 173 708 173 726 253 c 256,6,7
 732 277 732 277 732 299 c 0,8,9
 732 349 732 349 696 393 c 128,-1,10
 660 437 660 437 569 437 c 2,11,-1
 450 437 l 1,12,-1
 365 69 l 1,0,-1
473 535 m 1,13,-1
 609 535 l 1,14,15
 680 544 680 544 732 585 c 0,16,17
 782 624 782 624 798 695 c 2,18,-1
 799 698 l 2,19,20
 804 721 804 721 804 741 c 0,21,22
 804 785 804 785 773 823.5 c 128,-1,23
 742 862 742 862 659 862 c 2,24,-1
 548 862 l 1,25,-1
 473 535 l 1,13,-1
751 955 m 2,26,27
 822 955 822 955 891 931 c 1,28,29
 967 903 967 903 989 836 c 0,30,31
 1000 802 1000 802 1000 765 c 0,32,33
 1000 734 1000 734 992 699 c 2,34,-1
 991 694 l 2,35,36
 973 617 973 617 922 562 c 128,-1,37
 871 507 871 507 849 499 c 1,38,39
 902 479 902 479 928 405 c 0,40,41
 940 370 940 370 940 331 c 0,42,43
 940 328 940 328 940 325 c 0,44,45
 940 291 940 291 932 254 c 2,46,-1
 931 250 l 2,47,48
 911 165 911 165 851 100 c 1,49,50
 791 37 791 37 708.5 8.5 c 128,-1,51
 626 -20 626 -20 564 -20 c 2,52,-1
 104 -20 l 2,53,54
 73 -20 73 -20 73 1 c 0,55,56
 73 6 73 6 74 12 c 0,57,58
 81 43 81 43 116.5 55 c 128,-1,59
 152 67 152 67 159 97 c 2,60,-1
 330 837 l 2,61,62
 337 866 337 866 306.5 878 c 128,-1,63
 276 890 276 890 284 923 c 0,64,65
 291 955 291 955 329 955 c 2,66,-1
 751 955 l 2,26,27
EndSplineSet
Validated: 1
EndChar

StartChar: uni029C
Encoding: 668 668 127
Width: 1169
Flags: W
LayerCount: 2
Fore
SplineSet
495 548 m 1,0,-1
 966 548 l 1,1,-1
 1020 785 l 2,2,3
 1022 795 1022 795 1023 804 c 0,4,5
 1023 839 1023 839 985.5 854 c 128,-1,6
 948 869 948 869 948 899 c 0,7,8
 948 905 948 905 949 911 c 0,9,10
 958 951 958 951 1005 951 c 2,11,-1
 1338 951 l 2,12,13
 1376 951 1376 951 1376 923 c 0,14,15
 1376 917 1376 917 1374 911 c 0,16,17
 1365 872 1365 872 1310.5 854 c 128,-1,18
 1256 836 1256 836 1244 785 c 2,19,-1
 1097 146 l 2,20,21
 1095 135 1095 135 1094 126 c 0,22,23
 1094 90 1094 90 1132 76 c 128,-1,24
 1170 62 1170 62 1170 33 c 0,25,26
 1170 27 1170 27 1169 21 c 0,27,28
 1160 -20 1160 -20 1113 -20 c 2,29,-1
 780 -20 l 2,30,31
 742 -20 742 -20 742 8 c 0,32,33
 742 14 742 14 744 21 c 0,34,35
 753 59 753 59 807 76.5 c 128,-1,36
 861 94 861 94 873 146 c 2,37,-1
 940 438 l 1,38,-1
 469 438 l 1,39,-1
 402 146 l 2,40,41
 400 135 400 135 399 126 c 0,42,43
 399 90 399 90 436.5 76 c 128,-1,44
 474 62 474 62 474 33 c 0,45,46
 474 27 474 27 473 21 c 0,47,48
 464 -20 464 -20 418 -20 c 2,49,-1
 85 -20 l 2,50,51
 47 -20 47 -20 47 8 c 0,52,53
 47 14 47 14 49 21 c 0,54,55
 58 59 58 59 112 76.5 c 128,-1,56
 166 94 166 94 178 146 c 2,57,-1
 325 785 l 2,58,59
 327 795 327 795 328 804 c 0,60,61
 328 839 328 839 290.5 854 c 128,-1,62
 253 869 253 869 253 899 c 0,63,64
 253 905 253 905 254 911 c 0,65,66
 263 951 263 951 310 951 c 2,67,-1
 643 951 l 2,68,69
 680 951 680 951 680 923 c 0,70,71
 680 917 680 917 678 911 c 0,72,73
 669 872 669 872 615 854 c 128,-1,74
 561 836 561 836 549 785 c 2,75,-1
 495 548 l 1,0,-1
EndSplineSet
Validated: 1
EndChar

StartChar: uni029F
Encoding: 671 671 128
Width: 865
Flags: W
LayerCount: 2
Fore
SplineSet
872 232 m 0,0,1
 911 232 911 232 911 201 c 0,2,3
 911 196 911 196 910 189 c 0,4,5
 908 181 908 181 901 167 c 2,6,-1
 805 -20 l 1,7,-1
 85 -20 l 2,8,9
 47 -20 47 -20 47 8 c 0,10,11
 47 14 47 14 49 20 c 0,12,13
 58 59 58 59 112 76.5 c 128,-1,14
 166 94 166 94 178 146 c 2,15,-1
 325 785 l 2,16,17
 327 795 327 795 328 804 c 0,18,19
 328 839 328 839 290.5 854 c 128,-1,20
 253 869 253 869 253 899 c 0,21,22
 253 905 253 905 254 911 c 0,23,24
 263 951 263 951 310 951 c 2,25,-1
 643 951 l 2,26,27
 680 951 680 951 680 923 c 0,28,29
 680 917 680 917 678 911 c 0,30,31
 669 872 669 872 615 854 c 128,-1,32
 561 836 561 836 549 785 c 2,33,-1
 392 103 l 1,34,-1
 662 103 l 2,35,36
 710 103 710 103 746 135.5 c 128,-1,37
 782 168 782 168 815 200 c 128,-1,38
 848 232 848 232 872 232 c 0,0,1
EndSplineSet
Validated: 1
EndChar

StartChar: circumflex
Encoding: 710 710 129
Width: 1000
Flags: W
LayerCount: 2
Fore
SplineSet
460 1076 m 1,0,-1
 807 1463 l 1,1,-1
 952 1463 l 1,2,-1
 1118 1076 l 1,3,-1
 1008 1076 l 1,4,-1
 835 1275 l 1,5,-1
 571 1076 l 1,6,-1
 460 1076 l 1,0,-1
EndSplineSet
Validated: 1
EndChar

StartChar: breve
Encoding: 728 728 130
Width: 1000
Flags: W
LayerCount: 2
Fore
SplineSet
778 1095 m 0,0,1
 605 1095 605 1095 543 1217 c 0,2,3
 515 1271 515 1271 515 1340 c 0,4,5
 515 1374 515 1374 522 1412 c 1,6,-1
 523 1415 l 2,7,8
 533 1459 533 1459 585 1459 c 0,9,10
 624 1459 624 1459 626 1416 c 0,11,12
 631 1267 631 1267 816 1266 c 1,13,-1
 821 1266 l 2,14,15
 1004 1266 1004 1266 1077 1416 c 1,16,17
 1099 1459 1099 1459 1139 1459 c 0,18,19
 1182 1459 1182 1459 1182 1428 c 0,20,21
 1182 1422 1182 1422 1180 1414 c 2,22,-1
 1180 1412 l 1,23,24
 1146 1297 1146 1297 1069 1217 c 0,25,26
 950 1095 950 1095 778 1095 c 0,0,1
EndSplineSet
Validated: 1
EndChar

StartChar: dotaccent
Encoding: 729 729 131
Width: 1000
Flags: W
LayerCount: 2
Fore
SplineSet
853 1420 m 256,1,2
 963 1420 963 1420 963 1333 c 0,3,4
 963 1314 963 1314 958 1290 c 0,5,6
 928 1159 928 1159 793 1159 c 256,7,8
 683 1159 683 1159 682 1246 c 0,9,10
 682 1266 682 1266 688 1290 c 0,11,0
 718 1420 718 1420 853 1420 c 256,1,2
EndSplineSet
Validated: 1
EndChar

StartChar: ring
Encoding: 730 730 132
Width: 1000
Flags: W
LayerCount: 2
Fore
SplineSet
879 1534 m 256,0,1
 972 1534 972 1534 1013 1478.5 c 128,-1,2
 1054 1423 1054 1423 1054 1365 c 0,3,4
 1054 1341 1054 1341 1048 1314 c 0,5,6
 1027 1224 1027 1224 949 1159.5 c 128,-1,7
 871 1095 871 1095 778 1095 c 256,8,9
 685 1095 685 1095 643.5 1150 c 128,-1,10
 602 1205 602 1205 602 1262 c 0,11,12
 602 1287 602 1287 608 1314 c 0,13,14
 629 1403 629 1403 707.5 1468.5 c 128,-1,15
 786 1534 786 1534 879 1534 c 256,0,1
911 1426 m 1,16,17
 890 1466 890 1466 855 1466 c 256,18,19
 820 1466 820 1466 789 1429 c 0,20,21
 751 1386 751 1386 737 1327 c 2,22,-1
 735 1315 l 1,23,24
 731 1291 731 1291 730 1271 c 0,25,26
 730 1234 730 1234 748 1198.5 c 128,-1,27
 766 1163 766 1163 802 1163 c 0,28,29
 837 1163 837 1163 869 1199 c 1,30,31
 910 1254 910 1254 922 1306 c 0,32,33
 927 1328 927 1328 927 1350 c 0,34,35
 926 1389 926 1389 911 1426 c 1,16,17
EndSplineSet
Validated: 1
EndChar

StartChar: tilde
Encoding: 732 732 133
Width: 1000
Flags: W
LayerCount: 2
Fore
SplineSet
489 1138 m 1,0,1
 456 1146 456 1146 456 1170 c 0,2,3
 456 1173 456 1173 457 1177 c 1,4,-1
 457 1180 l 2,5,6
 462 1201 462 1201 492 1243 c 2,7,-1
 572 1360 l 2,8,9
 633 1450 633 1450 728 1450 c 0,10,11
 822 1450 822 1450 898 1355 c 1,12,13
 927 1316 927 1316 963 1316 c 0,14,15
 994 1316 994 1316 1035 1345 c 0,16,17
 1075 1373 1075 1373 1118 1442 c 0,18,19
 1134 1469 1134 1469 1162 1469 c 0,20,21
 1167 1469 1167 1469 1173 1468 c 0,22,23
 1201 1460 1201 1460 1201 1441 c 0,24,25
 1201 1438 1201 1438 1200 1435 c 1,26,-1
 1198 1427 l 2,27,28
 1194 1409 1194 1409 1188 1401 c 1,29,30
 1119 1285 1119 1285 1060 1226 c 128,-1,31
 1001 1167 1001 1167 942 1167 c 0,32,33
 852 1167 852 1167 772 1258 c 1,34,35
 741 1297 741 1297 705 1297 c 0,36,37
 678 1297 678 1297 644 1274 c 1,38,-1
 620 1257 l 1,39,40
 576 1223 576 1223 534 1161 c 1,41,42
 517 1138 517 1138 489 1138 c 1,0,1
EndSplineSet
Validated: 1
EndChar

StartChar: uni0305
Encoding: 773 773 134
Width: 0
Flags: W
LayerCount: 2
Fore
SplineSet
-793 1201 m 1,0,-1
 -764 1324 l 1,1,-1
 356 1324 l 1,2,-1
 327 1201 l 1,3,-1
 -793 1201 l 1,0,-1
EndSplineSet
Validated: 1
EndChar

StartChar: uni031A
Encoding: 794 794 135
Width: 0
Flags: W
LayerCount: 2
Fore
SplineSet
314 871 m 1,0,-1
 183 871 l 1,1,-1
 245 1138 l 1,2,-1
 -210 1138 l 1,3,-1
 -182 1261 l 1,4,-1
 404 1261 l 1,5,-1
 314 871 l 1,0,-1
EndSplineSet
Validated: 1
EndChar

StartChar: uni031F
Encoding: 799 799 136
Width: 0
Flags: W
LayerCount: 2
Fore
SplineSet
-473 -54 m 1,0,-1
 -517 -243 l 1,1,-1
 -328 -243 l 1,2,-1
 -356 -366 l 1,3,-1
 -545 -366 l 1,4,-1
 -589 -554 l 1,5,-1
 -721 -554 l 1,6,-1
 -677 -366 l 1,7,-1
 -866 -366 l 1,8,-1
 -838 -243 l 1,9,-1
 -649 -243 l 1,10,-1
 -605 -54 l 1,11,-1
 -473 -54 l 1,0,-1
EndSplineSet
Validated: 1
EndChar

StartChar: uni0320
Encoding: 800 800 137
Width: 0
Flags: W
LayerCount: 2
Fore
SplineSet
-838 -243 m 1,0,-1
 -328 -243 l 1,1,-1
 -356 -366 l 1,2,-1
 -866 -366 l 1,3,-1
 -838 -243 l 1,0,-1
EndSplineSet
Validated: 1
EndChar

StartChar: uni0321
Encoding: 801 801 138
Width: 0
Flags: W
LayerCount: 2
Fore
SplineSet
-91 20 m 1,0,1
 -140 -194 -140 -194 -188 -284.5 c 128,-1,2
 -236 -375 -236 -375 -318 -445 c 1,3,4
 -436 -542 -436 -542 -591 -579 c 1,5,-1
 -571 -493 l 1,6,7
 -462 -435 -462 -435 -412 -343 c 0,8,9
 -392 -306 -392 -306 -376 -237.5 c 128,-1,10
 -360 -169 -360 -169 -316 20 c 1,11,-1
 -91 20 l 1,0,1
EndSplineSet
Validated: 1
EndChar

StartChar: uni0322
Encoding: 802 802 139
Width: 0
Flags: W
LayerCount: 2
Fore
SplineSet
-329 20 m 1,0,1
 -104 20 l 1,2,3
 -148 -169 -148 -169 -162.5 -233 c 128,-1,4
 -177 -297 -177 -297 -177 -332 c 0,5,6
 -177 -338 -177 -338 -176 -343 c 0,7,8
 -169 -435 -169 -435 -87 -493 c 1,9,-1
 -107 -579 l 1,10,11
 -244 -542 -244 -542 -318 -445 c 1,12,13
 -368 -375 -368 -375 -371 -325 c 128,-1,14
 -374 -275 -374 -275 -374 -265 c 0,15,16
 -373 -172 -373 -172 -329 20 c 1,0,1
EndSplineSet
Validated: 1
EndChar

StartChar: dotbelowcomb
Encoding: 803 803 140
Width: 0
VWidth: 448
Flags: W
LayerCount: 2
Fore
SplineSet
-542 -180 m 256,1,2
 -432 -180 -432 -180 -431 -267 c 0,3,4
 -431 -286 -431 -286 -437 -310 c 0,5,6
 -467 -441 -467 -441 -602 -441 c 256,7,8
 -712 -441 -712 -441 -712 -354 c 0,9,10
 -712 -334 -712 -334 -707 -310 c 0,11,0
 -677 -180 -677 -180 -542 -180 c 256,1,2
EndSplineSet
Validated: 1
EndChar

StartChar: uni0324
Encoding: 804 804 141
Width: 0
VWidth: 448
Flags: W
LayerCount: 2
Fore
SplineSet
-307 -180 m 0,0,1
 -197 -180 -197 -180 -196 -267 c 0,2,3
 -196 -286 -196 -286 -202 -310 c 0,4,5
 -232 -441 -232 -441 -367 -441 c 0,6,7
 -477 -441 -477 -441 -477 -354 c 0,8,9
 -477 -334 -477 -334 -472 -310 c 0,10,11
 -442 -180 -442 -180 -307 -180 c 0,0,1
-777 -180 m 0,12,13
 -667 -180 -667 -180 -666 -267 c 0,14,15
 -666 -286 -666 -286 -672 -310 c 0,16,17
 -702 -441 -702 -441 -837 -441 c 0,18,19
 -947 -441 -947 -441 -947 -354 c 0,20,21
 -947 -334 -947 -334 -942 -310 c 0,22,23
 -912 -180 -912 -180 -777 -180 c 0,12,13
EndSplineSet
Validated: 1
EndChar

StartChar: uni0326
Encoding: 806 806 142
Width: 0
Flags: W
LayerCount: 2
Fore
SplineSet
-517 -71 m 1,0,-1
 -506 -71 l 2,1,2
 -399 -71 -399 -71 -399 -148 c 0,3,4
 -399 -160 -399 -160 -401 -172 c 2,5,-1
 -416 -255 l 1,6,-1
 -417 -260 l 2,7,8
 -422 -280 -422 -280 -434 -308 c 1,9,10
 -450 -337 -450 -337 -460 -357 c 0,11,12
 -523 -478 -523 -478 -658 -564 c 1,13,14
 -708 -597 -708 -597 -742 -597 c 0,15,16
 -766 -597 -766 -597 -782 -581 c 1,17,18
 -789 -571 -789 -571 -790 -561 c 0,19,20
 -790 -557 -790 -557 -789 -553 c 0,21,22
 -786 -539 -786 -539 -770 -524 c 0,23,24
 -748 -503 -748 -503 -718 -487 c 1,25,26
 -621 -430 -621 -430 -599 -367 c 1,27,-1
 -584 -367 l 2,28,29
 -690 -367 -690 -367 -690 -291 c 0,30,31
 -690 -280 -690 -280 -688 -267 c 2,32,-1
 -672 -184 l 1,33,-1
 -671 -177 l 2,34,35
 -648 -80 -648 -80 -517 -71 c 1,0,-1
EndSplineSet
Validated: 1
EndChar

StartChar: uni0329
Encoding: 809 809 143
Width: 0
Flags: W
LayerCount: 2
Fore
SplineSet
-716 -521 m 1,0,-1
 -617 -92 l 1,1,-1
 -441 -92 l 1,2,-1
 -540 -521 l 1,3,-1
 -716 -521 l 1,0,-1
EndSplineSet
Validated: 1
EndChar

StartChar: uni032A
Encoding: 810 810 144
Width: 0
Flags: W
LayerCount: 2
Fore
SplineSet
-181 -148 m 1,0,-1
 -254 -462 l 1,1,-1
 -387 -462 l 1,2,-1
 -343 -271 l 1,3,-1
 -880 -271 l 1,4,-1
 -924 -462 l 1,5,-1
 -1056 -462 l 1,6,-1
 -983 -148 l 1,7,-1
 -181 -148 l 1,0,-1
EndSplineSet
Validated: 1
EndChar

StartChar: uni032B
Encoding: 811 811 145
Width: 0
Flags: W
LayerCount: 2
Fore
SplineSet
-1005 -208 m 2,0,-1
 -1000 -186 l 1,1,-1
 -916 -186 l 1,2,3
 -928 -212 -928 -212 -929 -216 c 0,4,5
 -931 -224 -931 -224 -931 -231 c 0,6,7
 -931 -260 -931 -260 -903 -281 c 0,8,9
 -869 -307 -869 -307 -816 -307 c 2,10,-1
 -805 -307 l 1,11,12
 -765 -304 -765 -304 -706.5 -279 c 128,-1,13
 -648 -254 -648 -254 -637 -208 c 2,14,-1
 -632 -186 l 1,15,-1
 -551 -186 l 1,16,-1
 -556 -208 l 2,17,18
 -559 -222 -559 -222 -559 -234 c 0,19,20
 -559 -269 -559 -269 -531 -285 c 256,21,22
 -493 -307 -493 -307 -447 -307 c 2,23,-1
 -436 -307 l 1,24,25
 -376 -304 -376 -304 -326.5 -274 c 128,-1,26
 -277 -244 -277 -244 -259 -186 c 1,27,-1
 -183 -186 l 1,28,-1
 -188 -208 l 2,29,30
 -208 -296 -208 -296 -287.5 -359.5 c 128,-1,31
 -367 -423 -367 -423 -462 -423 c 0,32,33
 -613 -423 -613 -423 -628 -346 c 1,34,35
 -678 -423 -678 -423 -831 -423 c 0,36,37
 -925 -423 -925 -423 -968 -368.5 c 128,-1,38
 -1011 -314 -1011 -314 -1011 -257 c 0,39,40
 -1011 -233 -1011 -233 -1005 -208 c 2,0,-1
EndSplineSet
Validated: 1
EndChar

StartChar: uni0332
Encoding: 818 818 146
Width: 0
Flags: W
LayerCount: 2
Fore
SplineSet
-998 -403 m 1,0,-1
 -970 -280 l 1,1,-1
 -15 -280 l 1,2,-1
 -43 -403 l 1,3,-1
 -998 -403 l 1,0,-1
EndSplineSet
Validated: 1
EndChar

StartChar: uni0333
Encoding: 819 819 147
Width: 0
Flags: W
LayerCount: 2
Fore
SplineSet
-1105 -196 m 1,0,-1
 5 -196 l 1,1,-1
 -24 -319 l 1,2,-1
 -1134 -319 l 1,3,-1
 -1105 -196 l 1,0,-1
-1144 -365 m 1,4,-1
 -34 -365 l 1,5,-1
 -62 -487 l 1,6,-1
 -1172 -487 l 1,7,-1
 -1144 -365 l 1,4,-1
EndSplineSet
Validated: 1
EndChar

StartChar: uni0335
Encoding: 821 821 148
Width: 0
Flags: W
LayerCount: 2
Fore
SplineSet
-821 407 m 1,0,-1
 -793 530 l 1,1,-1
 26 530 l 1,2,-1
 -2 407 l 1,3,-1
 -821 407 l 1,0,-1
EndSplineSet
Validated: 1
EndChar

StartChar: uni0336
Encoding: 822 822 149
Width: 0
Flags: W
LayerCount: 2
Fore
SplineSet
-968 400 m 1,0,-1
 -939 523 l 1,1,-1
 171 523 l 1,2,-1
 142 400 l 1,3,-1
 -968 400 l 1,0,-1
EndSplineSet
Validated: 1
EndChar

StartChar: uni0337
Encoding: 823 823 150
Width: 0
Flags: W
LayerCount: 2
Fore
SplineSet
-783 229 m 1,0,-1
 -73 806 l 1,1,-1
 2 708 l 1,2,-1
 -708 131 l 1,3,-1
 -783 229 l 1,0,-1
EndSplineSet
Validated: 1
EndChar

StartChar: uni0338
Encoding: 824 824 151
Width: 0
Flags: W
LayerCount: 2
Fore
SplineSet
-869 -30 m 1,0,-1
 -21 1018 l 1,1,-1
 82 948 l 1,2,-1
 -766 -100 l 1,3,-1
 -869 -30 l 1,0,-1
EndSplineSet
Validated: 1
EndChar

StartChar: uni0339
Encoding: 825 825 152
Width: 0
Flags: W
LayerCount: 2
Fore
SplineSet
-626 -87 m 2,0,1
 -533 -87 -533 -87 -491.5 -142 c 128,-1,2
 -450 -197 -450 -197 -450 -255 c 0,3,4
 -450 -280 -450 -280 -456 -307 c 0,5,6
 -477 -396 -477 -396 -555.5 -461 c 128,-1,7
 -634 -526 -634 -526 -727 -526 c 2,8,-1
 -753 -526 l 1,9,-1
 -738 -459 l 1,10,11
 -679 -453 -679 -453 -639.5 -411 c 128,-1,12
 -600 -369 -600 -369 -583 -306 c 1,13,-1
 -579 -290 l 2,14,15
 -573 -265 -573 -265 -573 -243 c 0,16,17
 -573 -216 -573 -216 -582 -194 c 0,18,19
 -598 -155 -598 -155 -634 -155 c 0,20,21
 -635 -155 -635 -155 -670 -166 c 1,22,-1
 -652 -87 l 1,23,-1
 -626 -87 l 2,0,1
EndSplineSet
Validated: 1
EndChar

StartChar: uni033A
Encoding: 826 826 153
Width: 0
Flags: W
LayerCount: 2
Fore
SplineSet
-254 -462 m 1,0,-1
 -1056 -462 l 1,1,-1
 -983 -148 l 1,2,-1
 -851 -148 l 1,3,-1
 -895 -339 l 1,4,-1
 -358 -339 l 1,5,-1
 -314 -148 l 1,6,-1
 -181 -148 l 1,7,-1
 -254 -462 l 1,0,-1
EndSplineSet
Validated: 1
EndChar

StartChar: uni033B
Encoding: 827 827 154
Width: 0
Flags: W
LayerCount: 2
Fore
SplineSet
-826 -72 m 1,0,-1
 -304 -72 l 1,1,-1
 -422 -584 l 1,2,-1
 -944 -584 l 1,3,-1
 -826 -72 l 1,0,-1
-721 -195 m 1,4,-1
 -782 -461 l 1,5,-1
 -526 -461 l 1,6,-1
 -465 -195 l 1,7,-1
 -721 -195 l 1,4,-1
EndSplineSet
Validated: 1
EndChar

StartChar: uni033C
Encoding: 828 828 155
Width: 0
Flags: W
LayerCount: 2
Fore
SplineSet
-984 -153 m 1,0,1
 -816 -197 -816 -197 -705.5 -231 c 128,-1,2
 -595 -265 -595 -265 -595 -306 c 1,3,4
 -579 -267 -579 -267 -471.5 -235.5 c 128,-1,5
 -364 -204 -364 -204 -181 -146 c 1,6,-1
 -203 -242 l 1,7,8
 -335 -299 -335 -299 -427 -347 c 128,-1,9
 -519 -395 -519 -395 -593 -554 c 1,10,-1
 -716 -554 l 1,11,12
 -722 -418 -722 -418 -787 -358 c 128,-1,13
 -852 -298 -852 -298 -1005 -244 c 1,14,-1
 -984 -153 l 1,0,1
EndSplineSet
Validated: 1
EndChar

StartChar: uni033D
Encoding: 829 829 156
Width: 0
Flags: W
LayerCount: 2
Fore
SplineSet
-282 1618 m 1,0,-1
 -180 1485 l 1,1,-1
 -15 1618 l 1,2,-1
 54 1528 l 1,3,-1
 -110 1394 l 1,4,-1
 -8 1261 l 1,5,-1
 -119 1171 l 1,6,-1
 -222 1304 l 1,7,-1
 -386 1171 l 1,8,-1
 -455 1261 l 1,9,-1
 -291 1394 l 1,10,-1
 -393 1528 l 1,11,-1
 -282 1618 l 1,0,-1
EndSplineSet
Validated: 1
EndChar

StartChar: uni033E
Encoding: 830 830 157
Width: 0
Flags: W
LayerCount: 2
Fore
SplineSet
-232 1207 m 0,0,1
 -317 1278 -317 1278 -346 1333 c 1,2,3
 -365 1366 -365 1366 -366 1397 c 0,4,5
 -366 1409 -366 1409 -363 1421 c 128,-1,6
 -360 1433 -360 1433 -353 1445 c 0,7,8
 -312 1527 -312 1527 -183 1601 c 0,9,10
 -108 1643 -108 1643 -97 1693 c 0,11,12
 -92 1714 -92 1714 -99 1737 c 0,13,14
 -102 1746 -102 1746 -105.5 1760 c 128,-1,15
 -109 1774 -109 1774 -119 1791 c 0,16,17
 -135 1820 -135 1820 -160 1847 c 0,18,19
 -173 1860 -173 1860 -170 1873 c 0,20,21
 -166 1889 -166 1889 -144 1902 c 0,22,23
 -129 1911 -129 1911 -112 1911 c 0,24,25
 -90 1911 -90 1911 -71 1893 c 0,26,27
 -22 1842 -22 1842 31 1790 c 1,28,29
 67 1754 67 1754 67 1710 c 0,30,31
 67 1697 67 1697 64 1684 c 0,32,33
 60 1668 60 1668 51 1651 c 0,34,35
 5 1558 5 1558 -125 1489 c 0,36,37
 -197 1451 -197 1451 -209 1398 c 0,38,39
 -215 1373 -215 1373 -209 1344 c 1,40,41
 -198 1303 -198 1303 -148 1259 c 1,42,43
 -135 1246 -135 1246 -139 1231 c 0,44,45
 -141 1223 -141 1223 -148 1214 c 0,46,47
 -163 1193 -163 1193 -193 1193 c 0,48,49
 -200 1193 -200 1193 -204 1194 c 0,50,51
 -219 1196 -219 1196 -232 1207 c 0,0,1
EndSplineSet
Validated: 1
EndChar

StartChar: uni033F
Encoding: 831 831 158
Width: 0
Flags: W
LayerCount: 2
Fore
SplineSet
-725 1408 m 1,0,-1
 375 1408 l 1,1,-1
 347 1285 l 1,2,-1
 -753 1285 l 1,3,-1
 -725 1408 l 1,0,-1
-764 1239 m 1,4,-1
 336 1239 l 1,5,-1
 308 1117 l 1,6,-1
 -792 1117 l 1,7,-1
 -764 1239 l 1,4,-1
EndSplineSet
Validated: 1
EndChar

StartChar: uni0346
Encoding: 838 838 159
Width: 0
Flags: W
LayerCount: 2
Fore
SplineSet
193 1474 m 1,0,-1
 121 1160 l 1,1,-1
 -12 1160 l 1,2,-1
 32 1351 l 1,3,-1
 -505 1351 l 1,4,-1
 -549 1160 l 1,5,-1
 -681 1160 l 1,6,-1
 -609 1474 l 1,7,-1
 193 1474 l 1,0,-1
EndSplineSet
Validated: 1
EndChar

StartChar: uni0347
Encoding: 839 839 160
Width: 0
Flags: W
LayerCount: 2
Fore
SplineSet
-826 -196 m 1,0,-1
 -275 -196 l 1,1,-1
 -304 -319 l 1,2,-1
 -855 -319 l 1,3,-1
 -826 -196 l 1,0,-1
-865 -365 m 1,4,-1
 -314 -365 l 1,5,-1
 -342 -487 l 1,6,-1
 -893 -487 l 1,7,-1
 -865 -365 l 1,4,-1
EndSplineSet
Validated: 1
EndChar

StartChar: uni0348
Encoding: 840 840 161
Width: 0
Flags: W
LayerCount: 2
Fore
SplineSet
-514 -101 m 1,0,-1
 -338 -101 l 1,1,-1
 -437 -530 l 1,2,-1
 -613 -530 l 1,3,-1
 -514 -101 l 1,0,-1
-725 -101 m 1,4,-1
 -549 -101 l 1,5,-1
 -648 -530 l 1,6,-1
 -824 -530 l 1,7,-1
 -725 -101 l 1,4,-1
EndSplineSet
Validated: 1
EndChar

StartChar: uni0349
Encoding: 841 841 162
Width: 0
Flags: W
LayerCount: 2
Fore
SplineSet
-503 -574 m 1,0,-1
 -636 -574 l 1,1,-1
 -574 -306 l 1,2,-1
 -1028 -306 l 1,3,-1
 -999 -183 l 1,4,-1
 -412 -183 l 1,5,-1
 -503 -574 l 1,0,-1
EndSplineSet
Validated: 1
EndChar

StartChar: uni034A
Encoding: 842 842 163
Width: 0
Flags: W
LayerCount: 2
Fore
SplineSet
118 1331 m 1,0,1
 143 1316 143 1316 171 1316 c 256,2,3
 199 1316 199 1316 229 1337 c 1,4,5
 271 1365 271 1365 314 1436 c 1,6,7
 331 1462 331 1462 358 1462 c 0,8,9
 367 1462 367 1462 371 1459 c 1,10,11
 392 1454 392 1454 392 1427 c 0,12,13
 392 1424 392 1424 392 1421 c 1,14,-1
 391 1415 l 2,15,16
 388 1403 388 1403 382 1393 c 0,17,18
 316 1278 316 1278 261 1224 c 1,19,20
 197 1159 197 1159 137 1159 c 256,21,22
 77 1159 77 1159 -5 1216.5 c 128,-1,23
 -87 1274 -87 1274 -127 1302 c 1,24,25
 -175 1333 -175 1333 -189 1372 c 0,26,27
 -195 1390 -195 1390 -195 1407 c 0,28,29
 -195 1420 -195 1420 -192 1433 c 0,30,31
 -183 1474 -183 1474 -140 1519 c 0,32,33
 -76 1586 -76 1586 -16 1651 c 1,34,35
 13 1680 13 1680 42 1680 c 0,36,37
 50 1680 50 1680 60 1678 c 1,38,39
 85 1666 85 1666 81 1646 c 0,40,41
 79 1637 79 1637 68 1625 c 0,42,43
 33 1586 33 1586 14 1556 c 0,44,45
 -3 1529 -3 1529 -19 1494 c 0,46,47
 -22 1487 -22 1487 -23 1480 c 0,48,49
 -25 1471 -25 1471 -25 1462 c 0,50,51
 -25 1426 -25 1426 12 1398 c 1,52,53
 23 1412 23 1412 59 1447.5 c 128,-1,54
 95 1483 95 1483 127 1518 c 1,55,56
 156 1547 156 1547 185 1547 c 0,57,58
 196 1547 196 1547 205 1543 c 0,59,60
 228 1532 228 1532 224 1512 c 0,61,62
 222 1503 222 1503 213 1493 c 0,63,64
 178 1455 178 1455 157 1422 c 1,65,66
 139 1395 139 1395 125 1361 c 0,67,68
 124 1359 124 1359 122 1353 c 0,69,70
 119 1341 119 1341 118 1331 c 1,0,1
EndSplineSet
Validated: 1
EndChar

StartChar: uni034B
Encoding: 843 843 164
Width: 0
Flags: W
LayerCount: 2
Fore
SplineSet
-254 1387 m 1,0,1
 -254 1396 -254 1396 -251 1407 c 0,2,3
 -237 1469 -237 1469 -169 1469 c 0,4,5
 -114 1469 -114 1469 -114 1427 c 0,6,7
 -114 1418 -114 1418 -116 1407 c 0,8,9
 -129 1350 -129 1350 -185 1345 c 1,10,11
 -166 1328 -166 1328 -149 1306 c 0,12,13
 -117 1266 -117 1266 -83 1266 c 0,14,15
 -53 1266 -53 1266 -13 1295 c 1,16,17
 29 1323 29 1323 72 1393 c 1,18,19
 89 1419 89 1419 117 1419 c 2,20,-1
 124 1419 l 1,21,22
 152 1412 152 1412 152 1386 c 0,23,24
 152 1384 152 1384 152 1381 c 0,25,26
 152 1377 152 1377 151 1371 c 0,27,28
 149 1361 149 1361 142 1351 c 0,29,30
 73 1235 73 1235 19 1181 c 1,31,32
 -44 1117 -44 1117 -105 1117 c 0,33,34
 -147 1117 -147 1117 -187 1137 c 1,35,36
 -182 1123 -182 1123 -187 1101 c 0,37,38
 -201 1039 -201 1039 -268 1039 c 0,39,40
 -324 1039 -324 1039 -324 1081 c 0,41,42
 -324 1090 -324 1090 -322 1101 c 0,43,44
 -307 1164 -307 1164 -239 1164 c 0,45,46
 -234 1164 -234 1164 -228 1163 c 1,47,48
 -252 1182 -252 1182 -274 1208 c 1,49,50
 -311 1247 -311 1247 -346 1247 c 0,51,52
 -372 1247 -372 1247 -402 1225 c 0,53,54
 -412 1217 -412 1217 -425.5 1207 c 128,-1,55
 -439 1197 -439 1197 -456 1181 c 1,56,57
 -487 1148 -487 1148 -514 1111 c 0,58,59
 -530 1088 -530 1088 -554 1088 c 0,60,61
 -570 1088 -570 1088 -581 1100 c 0,62,63
 -590 1109 -590 1109 -591 1123 c 0,64,65
 -591 1128 -591 1128 -589 1134 c 0,66,67
 -586 1147 -586 1147 -577 1162 c 0,68,69
 -527 1235 -527 1235 -471 1317.5 c 128,-1,70
 -415 1400 -415 1400 -326 1400 c 0,71,72
 -288 1400 -288 1400 -254 1387 c 1,0,1
EndSplineSet
Validated: 1
EndChar

StartChar: uni034C
Encoding: 844 844 165
Width: 0
Flags: W
LayerCount: 2
Fore
SplineSet
152 1405 m 1,0,1
 90 1327 90 1327 42 1295 c 1,2,3
 -15 1254 -15 1254 -73 1254 c 0,4,5
 -159 1254 -159 1254 -246 1312 c 1,6,7
 -287 1337 -287 1337 -325 1337 c 0,8,9
 -355 1337 -355 1337 -384 1323 c 1,10,11
 -392 1317 -392 1317 -405 1311 c 128,-1,12
 -418 1305 -418 1305 -433 1294 c 0,13,14
 -458 1276 -458 1276 -482 1252 c 0,15,16
 -499 1235 -499 1235 -520 1235 c 0,17,18
 -533 1235 -533 1235 -544 1243 c 0,19,20
 -561 1254 -561 1254 -557 1272 c 0,21,22
 -554 1283 -554 1283 -544 1295 c 0,23,24
 -500 1342 -500 1342 -449.5 1395.5 c 128,-1,25
 -399 1449 -399 1449 -314 1449 c 0,26,27
 -217 1449 -217 1449 -134 1390 c 0,28,29
 -99 1364 -99 1364 -60 1364 c 0,30,31
 -27 1364 -27 1364 12 1383 c 1,32,33
 50 1400 50 1400 85 1443 c 1,34,35
 102 1461 102 1461 126 1461 c 2,36,-1
 132 1461 l 1,37,38
 163 1456 163 1456 164 1433 c 0,39,40
 164 1428 164 1428 163 1423 c 0,41,42
 160 1413 160 1413 152 1405 c 1,0,1
110 1216 m 0,43,44
 49 1141 49 1141 -2 1105 c 0,45,46
 -59 1064 -59 1064 -117 1064 c 0,47,48
 -203 1064 -203 1064 -290 1122 c 1,49,50
 -331 1147 -331 1147 -369 1147 c 0,51,52
 -399 1147 -399 1147 -428 1133 c 1,53,54
 -454 1119 -454 1119 -477 1105 c 1,55,56
 -508 1081 -508 1081 -526 1062 c 0,57,58
 -543 1045 -543 1045 -564 1045 c 0,59,60
 -577 1045 -577 1045 -588 1053 c 0,61,62
 -602 1062 -602 1062 -602 1076 c 0,63,64
 -602 1079 -602 1079 -601 1083 c 0,65,66
 -598 1094 -598 1094 -588 1106 c 0,67,68
 -544 1152 -544 1152 -494 1206 c 128,-1,69
 -444 1260 -444 1260 -358 1260 c 0,70,71
 -261 1260 -261 1260 -178 1200 c 0,72,73
 -143 1174 -143 1174 -104 1174 c 0,74,75
 -71 1174 -71 1174 -32 1193 c 0,76,77
 5 1210 5 1210 42 1254 c 1,78,79
 59 1272 59 1272 83 1272 c 2,80,-1
 89 1272 l 1,81,82
 121 1267 121 1267 119 1243 c 1,83,84
 120 1242 120 1242 120 1239 c 0,85,86
 120 1237 120 1237 119 1234 c 0,87,88
 117 1225 117 1225 110 1216 c 0,43,44
EndSplineSet
Validated: 1
EndChar

StartChar: uni034D
Encoding: 845 845 166
Width: 0
Flags: W
LayerCount: 2
Fore
SplineSet
-885 -280 m 1,0,-1
 -238 -280 l 1,1,-1
 -248 -166 l 1,2,-1
 -49 -342 l 1,3,-1
 -329 -517 l 1,4,-1
 -266 -403 l 1,5,-1
 -913 -403 l 1,6,-1
 -902 -517 l 1,7,-1
 -1102 -342 l 1,8,-1
 -821 -166 l 1,9,-1
 -885 -280 l 1,0,-1
EndSplineSet
Validated: 1
EndChar

StartChar: uni034E
Encoding: 846 846 167
Width: 0
Flags: W
LayerCount: 2
Fore
SplineSet
-546 -597 m 1,0,-1
 -679 -597 l 1,1,-1
 -603 -269 l 1,2,-1
 -719 -304 l 1,3,-1
 -489 -66 l 1,4,-1
 -371 -303 l 1,5,-1
 -470 -269 l 1,6,-1
 -546 -597 l 1,0,-1
EndSplineSet
Validated: 1
EndChar

StartChar: uni0350
Encoding: 848 848 168
Width: 0
Flags: W
LayerCount: 2
Fore
SplineSet
-22 1374 m 0,0,1
 -99 1320 -99 1320 -179.5 1266.5 c 128,-1,2
 -260 1213 -260 1213 -337 1161 c 1,3,4
 -350 1154 -350 1154 -362 1154 c 0,5,6
 -370 1154 -370 1154 -378 1158 c 1,7,-1
 -399 1173 l 1,8,9
 -413 1176 -413 1176 -413 1188 c 0,10,11
 -413 1191 -413 1191 -412 1195 c 0,12,13
 -411 1200 -411 1200 -405 1208 c 1,14,-1
 -178 1396 l 1,15,-1
 -316 1580 l 2,16,17
 -321 1587 -321 1587 -320 1595 c 0,18,19
 -317 1608 -317 1608 -300 1616 c 2,20,-1
 -262 1635 l 1,21,-1
 -251 1635 l 2,22,23
 -243 1635 -243 1635 -231 1631 c 1,24,25
 -183 1580 -183 1580 -115.5 1520 c 128,-1,26
 -48 1460 -48 1460 -13 1417 c 1,27,28
 -4 1411 -4 1411 -4 1401 c 0,29,30
 -4 1398 -4 1398 -5 1395 c 0,31,32
 -8 1384 -8 1384 -22 1374 c 0,0,1
EndSplineSet
Validated: 1
EndChar

StartChar: uni0351
Encoding: 849 849 169
Width: 0
Flags: W
LayerCount: 2
Fore
SplineSet
-58 1534 m 2,0,-1
 -31 1534 l 1,1,-1
 -49 1455 l 1,2,3
 -79 1466 -79 1466 -82 1466 c 0,4,5
 -116 1466 -116 1466 -150 1427 c 0,6,7
 -187 1384 -187 1384 -200 1327 c 2,8,-1
 -202 1315 l 1,9,10
 -206 1293 -206 1293 -206 1274 c 0,11,12
 -206 1237 -206 1237 -189.5 1202 c 128,-1,13
 -173 1167 -173 1167 -117 1162 c 1,14,-1
 -132 1095 l 1,15,-1
 -159 1095 l 2,16,17
 -251 1095 -251 1095 -293 1150 c 128,-1,18
 -335 1205 -335 1205 -335 1263 c 0,19,20
 -335 1288 -335 1288 -329 1314 c 0,21,22
 -308 1403 -308 1403 -229 1468.5 c 128,-1,23
 -150 1534 -150 1534 -58 1534 c 2,0,-1
EndSplineSet
Validated: 1
EndChar

StartChar: uni0352
Encoding: 850 850 170
Width: 0
Flags: W
LayerCount: 2
Fore
SplineSet
-122 1673 m 256,0,1
 51 1673 51 1673 113 1551 c 1,2,3
 140 1493 140 1493 140 1424 c 0,4,5
 140 1391 140 1391 134 1356 c 1,6,7
 123 1309 123 1309 71 1309 c 0,8,9
 32 1309 32 1309 30 1352 c 0,10,11
 26 1502 26 1502 -161 1502 c 2,12,-1
 -163 1502 l 1,13,14
 -348 1500 -348 1500 -423 1352 c 0,15,16
 -444 1309 -444 1309 -484 1309 c 0,17,18
 -526 1309 -526 1309 -526 1340 c 0,19,20
 -526 1346 -526 1346 -524 1354 c 2,21,-1
 -524 1356 l 1,22,23
 -494 1464 -494 1464 -414 1551 c 1,24,25
 -295 1673 -295 1673 -122 1673 c 256,0,1
-241 1158 m 0,26,27
 -351 1158 -351 1158 -351 1245 c 0,28,29
 -351 1265 -351 1265 -345 1289 c 0,30,31
 -315 1419 -315 1419 -180 1419 c 0,32,33
 -71 1419 -71 1419 -71 1332 c 0,34,35
 -71 1313 -71 1313 -76 1289 c 0,36,37
 -107 1158 -107 1158 -241 1158 c 0,26,27
EndSplineSet
Validated: 1
EndChar

